<svg xmlns="http://www.w3.org/2000/svg" width="687.559" height="246.237" viewBox="0 0 687.559 246.237">
  <g id="Group_687" data-name="Group 687" transform="translate(-3077.441 826.237)">
    <g id="Group_680" data-name="Group 680" transform="translate(2994.001 -839.941)">
      <g id="Group_653" data-name="Group 653" transform="translate(65 1)">
        <g id="Group_645" data-name="Group 645" transform="matrix(0.978, -0.208, 0.208, 0.978, 0, 44.647)">
          <path id="Path_7490" data-name="Path 7490" d="M-6.051,29.323,45.862.9s29.77-7.241,47.471,19.31c8.479,12.718,11.767,26.547,6.424,36.812-5.514,10.6-20.1,17.1-20.1,17.1a39.731,39.731,0,0,1-14.08,6.839c-7.644,1.71-16.494,0-16.494,0a29.947,29.947,0,0,1-9.253-2.816,27.544,27.544,0,0,1-7.241-6.034l-9.859,5.716Z" transform="translate(96.005 49.538)" fill="#d5d5d5"/>
          <path id="Path_7491" data-name="Path 7491" d="M98.746,26.649,52.884.9S23.114-6.339,5.413,20.212c-7.7,11.55-13.97,26.307-9.6,36.105,5.4,12.124,23.278,17.8,23.278,17.8a39.728,39.728,0,0,0,14.08,6.839c7.644,1.71,16.494,0,16.494,0a29.946,29.946,0,0,0,9.253-2.816,27.543,27.543,0,0,0,7.241-6.034l6.035,2.011Z" transform="translate(19.568 145.262) rotate(-59)" fill="#8c31e8"/>
          <path id="Union_20" data-name="Union 20" d="M0,77.369A44.918,44.918,0,0,1,44.868,32.5h39.3V20.777A11.739,11.739,0,0,0,72.442,9.051H51.549a4.526,4.526,0,1,1,0-9.051H72.442A20.8,20.8,0,0,1,93.218,20.777V32.5h39.3a44.918,44.918,0,0,1,44.868,44.867c0,24.74,1.517,46.607-44.868,44.868A45.07,45.07,0,0,1,91.635,95.872H85.751a45.074,45.074,0,0,1-40.883,26.366,88.085,88.085,0,0,1-9.361.533C2.506,122.769,0,100.122,0,77.369Zm9.052,0c0,19.749,1.507,40.019,35.816,35.816A35.964,35.964,0,0,0,78.476,89.776a4.525,4.525,0,0,1,4.245-2.956H94.667a4.525,4.525,0,0,1,4.245,2.957,35.961,35.961,0,0,0,33.606,23.409c37.51,1.379,35.815-16.068,35.816-35.816a35.856,35.856,0,0,0-35.816-35.816H44.868A35.856,35.856,0,0,0,9.052,77.369Z" transform="translate(0 88.693) rotate(-30)" fill="#fff"/>
          <path id="Path_7489" data-name="Path 7489" d="M37.843,16.8H25.71V4.526a4.526,4.526,0,1,0-9.052,0V16.8H4.526a4.526,4.526,0,0,0,0,9.052H16.658V38.122a4.526,4.526,0,0,0,9.052,0V25.849H37.842a4.526,4.526,0,0,0,0-9.052Z" transform="translate(46.793 124.427) rotate(-30)" fill="#d5d5d5"/>
          <g id="Group_646" data-name="Group 646" transform="translate(132.05 70.365)">
            <ellipse id="Ellipse_243" data-name="Ellipse 243" cx="5.612" cy="5.612" rx="5.612" ry="5.612" transform="matrix(0.866, -0.5, 0.5, 0.866, 4.949, 5.612)" fill="#8c31e8"/>
            <ellipse id="Ellipse_244" data-name="Ellipse 244" cx="5.612" cy="5.612" rx="5.612" ry="5.612" transform="matrix(0.866, -0.5, 0.5, 0.866, 18.335, 28.796)" fill="#8c31e8"/>
            <ellipse id="Ellipse_245" data-name="Ellipse 245" cx="5.612" cy="5.612" rx="5.612" ry="5.612" transform="matrix(0.866, -0.5, 0.5, 0.866, 23.284, 10.326)" fill="#8c31e8"/>
            <ellipse id="Ellipse_246" data-name="Ellipse 246" cx="5.612" cy="5.612" rx="5.612" ry="5.612" transform="matrix(0.866, -0.5, 0.5, 0.866, 0, 24.084)" fill="#8c31e8"/>
          </g>
        </g>
      </g>
      <g id="Group_667" data-name="Group 667" transform="translate(-2615.001 -60.059)">
        <path id="Path_7496" data-name="Path 7496" d="M55.2-13.92v-16.8a13.828,13.828,0,0,0-13.92-13.8H21.72a2.971,2.971,0,0,1-3-3v-16.8a2.947,2.947,0,0,1,3-2.88H54v-9.6H21.12A13.93,13.93,0,0,0,7.2-62.88v15A13.93,13.93,0,0,0,21.12-33.96H40.68a2.872,2.872,0,0,1,2.88,3V-12.6a2.843,2.843,0,0,1-2.88,2.88H9.6V0H41.28A13.93,13.93,0,0,0,55.2-13.92ZM118.8,0V-38.4A19.179,19.179,0,0,0,99.6-57.6H70.8V0H81.6V-48h18c4.2,0,8.28,3.84,8.28,8.88V0Zm66,0V-48a9.628,9.628,0,0,0-9.6-9.6H137.04V-48h36.84v13.2H144a9.628,9.628,0,0,0-9.6,9.6V-9.6A9.628,9.628,0,0,0,144,0ZM173.88-9.6H145.32V-25.2h28.56ZM252-19.2V-38.4a19.1,19.1,0,0,0-19.2-19.2H201.6V24h10.8V0h20.4A19.179,19.179,0,0,0,252-19.2Zm-10.8.72a8.854,8.854,0,0,1-8.4,8.88H212.4V-48h20.4a8.854,8.854,0,0,1,8.4,8.88ZM318-19.2V-38.4a19.1,19.1,0,0,0-19.2-19.2H267.6V24h10.8V0h20.4A19.179,19.179,0,0,0,318-19.2Zm-10.8.72a8.854,8.854,0,0,1-8.4,8.88H278.4V-48h20.4a8.854,8.854,0,0,1,8.4,8.88Z" transform="translate(3068 296)" fill="#d5d5d5"/>
        <path id="Path_7495" data-name="Path 7495" d="M97.2,0V-57.6A19.256,19.256,0,0,0,78-76.8H8.4V0H20.04V-67.2H46.92V0H58.56V-67.2H78c4.2,0,7.56,3.84,7.56,8.88V0Zm66-25.2V-38.4A19.179,19.179,0,0,0,144-57.6H132a19.179,19.179,0,0,0-19.2,19.2v19.2A19.256,19.256,0,0,0,132,0h27.96V-9.6H132c-4.2,0-8.28-3.84-8.28-8.88V-25.2Zm-10.92-9.6H123.72v-4.44A8.644,8.644,0,0,1,132-48h12a8.644,8.644,0,0,1,8.28,8.76ZM228,0V-86.4H217.08v28.8H196.8a19.179,19.179,0,0,0-19.2,19.2v19.2A19.256,19.256,0,0,0,196.8,0ZM217.08-9.6H196.8c-4.2,0-8.28-3.84-8.28-8.88V-39.12c0-5.04,4.08-8.88,8.28-8.88h20.28Z" transform="translate(2832 296)" fill="#8c31e8"/>
      </g>
    </g>
  </g>
</svg>
