<svg id="Layer_1" enable-background="new 0 0 24 24" viewBox="0 0 24 24" xmlns="http://www.w3.org/2000/svg" xmlns:xlink="http://www.w3.org/1999/xlink"><linearGradient id="SVGID_1_" gradientUnits="userSpaceOnUse" x1="-.24" x2="23.265" y1="3.901" y2="14.862"><stop offset="0" stop-color="#fff" stop-opacity=".2"/><stop offset="1" stop-color="#fff" stop-opacity="0"/></linearGradient><g><path d="m24 4c0-2.2431641-1.5375977-4-3.5-4s-3.5 1.7568359-3.5 4c0 1.6097412 1.2141724 4.4613647 3 4.9275513v9.5724487c0 2.4814453-2.0185547 4.5-4.5 4.5-2.3879395 0-4.328186-1.8747559-4.4724121-4.2269897 1.56781-.1994629 2.9724121-.5725708 2.9724121-1.2730103v-1.9238281c1.7626953-.7737427 3-2.531128 3-4.5761719s-1.2373047-3.8024292-3-4.5761719v-2.9238281c0-1.4277344-5.8310547-1.5-7-1.5s-7 .0722656-7 1.5v14c0 1.4277344 5.8310547 1.5 7 1.5.4735107 0 1.7130737-.0135498 3.019104-.1225586.1954346 2.8566284 2.5755615 5.1225586 5.480896 5.1225586 3.0327148 0 5.5-2.4672852 5.5-5.5v-9.5724487c1.7858276-.4661866 3-3.3178101 3-4.9275513z" fill="#303c42"/><circle cx="12" cy="11" fill="#fafafa" r="4"/><path d="m9 12c0-2.2055664 1.7944336-4 4-4 .8477783 0 1.6315918.269043 2.2792969.7207031-.7234497-1.0374145-1.9215088-1.7207031-3.2792969-1.7207031-2.2055664 0-4 1.7944336-4 4 0 1.3577881.6832886 2.5558472 1.7207031 3.2792969-.4516601-.6477051-.7207031-1.4315186-.7207031-2.2792969z" opacity=".1"/><path d="m4 17.8654785v-12.9864502c1.2989502.107544 2.5288086.1209717 3 .1209717.8654785 0 4.2819824-.0411377 6-.6411743v1.7422485c-.3232422-.065918-.6575928-.1010742-1-.1010742-2.7568359 0-5 2.2431641-5 5s2.2431641 5 5 5c.3424072 0 .6767578-.0351562 1-.1010742v1.4272461c-.5761719.2866211-3.0566406.6738281-6 .6738281-1.0881348 0-2.1112061-.0533447-3-.1345215z" fill="#78909c"/><path d="m11.5 8.5v1.6537476c-.293335.1745605-.5.481018-.5.8462524 0 .5512695.4487305 1 1 1s1-.4487305 1-1c0-.3652344-.206665-.6716919-.5-.8462524v-1.6537476c0-.2763672-.2236328-.5-.5-.5s-.5.2236328-.5.5z" fill="#d32f2f"/><path d="m7 3c2.375 0 4.4487305.2519531 5.4633789.5-1.0146484.2480469-3.0883789.5-5.4633789.5s-4.4487305-.2519531-5.4633789-.5c1.0146484-.2480469 3.0883789-.5 5.4633789-.5z" fill="#78909c"/><path d="m7 3c2.375 0 4.4487305.2519531 5.4633789.5-1.0146484.2480469-3.0883789.5-5.4633789.5s-4.4487305-.2519531-5.4633789-.5c1.0146484-.2480469 3.0883789-.5 5.4633789-.5z" opacity=".3"/><path d="m1 4.3588257c.5426636.1895752 1.2516479.3238525 2 .4179688v12.9777222c-.9977417-.130127-1.7229004-.2904663-2-.4283447z" fill="#78909c"/><path d="m4 16.5066528v1.3588257c.8887939.0811768 1.9118652.1345215 3 .1345215 2.9433594 0 5.4238281-.387207 6-.6738281v-1.3588257c-.5761719.2866211-3.0566406.6738281-6 .6738281-1.0881348 0-2.1112061-.0533447-3-.1345215z" opacity=".1"/><path d="m1 17.3261719c.2770996.1378784 1.0022583.2982178 2 .4283447v-1.3588257c-.9977417-.130127-1.7229004-.2904663-2-.4283447z" opacity=".1"/><path d="m20.5 8c-1.2646484 0-2.5-2.5307617-2.5-4 0-1.6821289 1.0981445-3 2.5-3s2.5 1.3178711 2.5 3c0 1.4692383-1.2353516 4-2.5 4z" fill="#78909c"/><path d="m22.4909668 2.1835327c-.0930176 1.4864502-1.2768555 3.8164673-2.4909668 3.8164673-.7680664 0-1.5234985-.9343872-1.9998169-1.9966431.0018311 1.4696045 1.236084 3.9966431 2.4998169 3.9966431 1.2646484 0 2.5-2.5307617 2.5-4 0-.6916504-.1929321-1.31427-.5090332-1.8164673z" opacity=".1"/><path d="m24 4c0-2.2431641-1.5375977-4-3.5-4s-3.5 1.7568359-3.5 4c0 1.6097412 1.2141724 4.4613647 3 4.9275513v9.5724487c0 2.4814453-2.0185547 4.5-4.5 4.5-2.3879395 0-4.328186-1.8747559-4.4724121-4.2269897 1.56781-.1994629 2.9724121-.5725708 2.9724121-1.2730103v-1.9238281c1.7626953-.7737427 3-2.531128 3-4.5761719s-1.2373047-3.8024292-3-4.5761719v-2.9238281c0-1.4277344-5.8310547-1.5-7-1.5s-7 .0722656-7 1.5v14c0 1.4277344 5.8310547 1.5 7 1.5.4735107 0 1.7130737-.0135498 3.019104-.1225586.1954346 2.8566284 2.5755615 5.1225586 5.480896 5.1225586 3.0327148 0 5.5-2.4672852 5.5-5.5v-9.5724487c1.7858276-.4661866 3-3.3178101 3-4.9275513z" fill="url(#SVGID_1_)"/></g><g/><g/><g/><g/><g/><g/><g/><g/><g/><g/><g/><g/><g/><g/><g/></svg>