<svg xmlns="http://www.w3.org/2000/svg" version="1.1" xmlns:xlink="http://www.w3.org/1999/xlink" width="512" height="512" x="0" y="0" viewBox="0 0 512 512" style="enable-background:new 0 0 512 512" xml:space="preserve" class=""><g><path d="M256 0C114.62 0 0 114.62 0 256s114.62 256 256 256 256-114.62 256-256S397.38 0 256 0zm163.34 419.34C375.71 462.97 317.7 487 256 487s-119.71-24.03-163.34-67.66S25 317.7 25 256 49.03 136.29 92.66 92.66 194.3 25 256 25s119.71 24.03 163.34 67.66S487 194.3 487 256s-24.03 119.71-67.66 163.34zM266.47 249.1v-72.51l-36.35 6.07v11.54l15.53.18v54.72l-15.41 1.9v12.2h51.63V251zm0 0v-72.51l-36.35 6.07v11.54l15.53.18v54.72l-15.41 1.9v12.2h51.63V251zM256 156.12c-36.23 0-65.59 29.37-65.59 65.59s29.36 65.6 65.59 65.6 65.59-29.37 65.59-65.6-29.36-65.59-65.59-65.59zm34.96 107.08a9.09 9.09 0 0 1-9.09 9.09h-51.63a9.09 9.09 0 0 1-9.09-9.09V251c0-4.59 3.42-8.45 7.97-9.02l7.44-.92v-37.7l-6.55-.07c-4.97-.05-8.98-4.11-8.98-9.09v-11.54c0-4.45 3.21-8.24 7.59-8.97l36.35-6.06c.5-.08 1-.13 1.5-.13a9.092 9.092 0 0 1 9.09 9.09v64.47l7.43.92c4.55.56 7.97 4.43 7.97 9.02zm-24.49-86.61-36.35 6.07v11.54l15.53.18v54.72l-15.41 1.9v12.2h51.63V251l-15.4-1.9zm0 72.51v-72.51l-36.35 6.07v11.54l15.53.18v54.72l-15.41 1.9v12.2h51.63V251zm0 0v-72.51l-36.35 6.07v11.54l15.53.18v54.72l-15.41 1.9v12.2h51.63V251zM256 156.12c-36.23 0-65.59 29.37-65.59 65.59s29.36 65.6 65.59 65.6 65.59-29.37 65.59-65.6-29.36-65.59-65.59-65.59zm34.96 107.08a9.09 9.09 0 0 1-9.09 9.09h-51.63a9.09 9.09 0 0 1-9.09-9.09V251c0-4.59 3.42-8.45 7.97-9.02l7.44-.92v-37.7l-6.55-.07c-4.97-.05-8.98-4.11-8.98-9.09v-11.54c0-4.45 3.21-8.24 7.59-8.97l36.35-6.06c.5-.08 1-.13 1.5-.13a9.092 9.092 0 0 1 9.09 9.09v64.47l7.43.92c4.55.56 7.97 4.43 7.97 9.02zm-24.49-86.61-36.35 6.07v11.54l15.53.18v54.72l-15.41 1.9v12.2h51.63V251l-15.4-1.9zm0 72.51v-72.51l-36.35 6.07v11.54l15.53.18v54.72l-15.41 1.9v12.2h51.63V251zm0 0v-72.51l-36.35 6.07v11.54l15.53.18v54.72l-15.41 1.9v12.2h51.63V251zM256 156.12c-36.23 0-65.59 29.37-65.59 65.59s29.36 65.6 65.59 65.6 65.59-29.37 65.59-65.6-29.36-65.59-65.59-65.59zm34.96 107.08a9.09 9.09 0 0 1-9.09 9.09h-51.63a9.09 9.09 0 0 1-9.09-9.09V251c0-4.59 3.42-8.45 7.97-9.02l7.44-.92v-37.7l-6.55-.07c-4.97-.05-8.98-4.11-8.98-9.09v-11.54c0-4.45 3.21-8.24 7.59-8.97l36.35-6.06c.5-.08 1-.13 1.5-.13a9.092 9.092 0 0 1 9.09 9.09v64.47l7.43.92c4.55.56 7.97 4.43 7.97 9.02zm-24.49-86.61-36.35 6.07v11.54l15.53.18v54.72l-15.41 1.9v12.2h51.63V251l-15.4-1.9zm0 72.51v-72.51l-36.35 6.07v11.54l15.53.18v54.72l-15.41 1.9v12.2h51.63V251zm0 0v-72.51l-36.35 6.07v11.54l15.53.18v54.72l-15.41 1.9v12.2h51.63V251zM256 156.12c-36.23 0-65.59 29.37-65.59 65.59s29.36 65.6 65.59 65.6 65.59-29.37 65.59-65.6-29.36-65.59-65.59-65.59zm34.96 107.08a9.09 9.09 0 0 1-9.09 9.09h-51.63a9.09 9.09 0 0 1-9.09-9.09V251c0-4.59 3.42-8.45 7.97-9.02l7.44-.92v-37.7l-6.55-.07c-4.97-.05-8.98-4.11-8.98-9.09v-11.54c0-4.45 3.21-8.24 7.59-8.97l36.35-6.06c.5-.08 1-.13 1.5-.13a9.092 9.092 0 0 1 9.09 9.09v64.47l7.43.92c4.55.56 7.97 4.43 7.97 9.02zm-24.49-86.61-36.35 6.07v11.54l15.53.18v54.72l-15.41 1.9v12.2h51.63V251l-15.4-1.9zm0 72.51v-72.51l-36.35 6.07v11.54l15.53.18v54.72l-15.41 1.9v12.2h51.63V251zm0 0v-72.51l-36.35 6.07v11.54l15.53.18v54.72l-15.41 1.9v12.2h51.63V251zm59.76-107.99-63.69-26.1c-2.09-.86-4.29-1.29-6.55-1.29s-4.45.43-6.55 1.29l-63.69 26.1a17.198 17.198 0 0 0-10.72 15.97v83.66c0 26.97 9.96 48.91 29.6 65.2 16.91 14.03 36.75 20.57 47.06 23.22 1.4.36 2.85.55 4.29.55s2.89-.18 4.29-.55c10.33-2.65 30.16-9.19 47.06-23.22 19.64-16.29 29.6-38.23 29.6-65.2v-83.66c0-7.04-4.21-13.31-10.72-15.97zM255.99 296.4c-41.18 0-74.68-33.51-74.68-74.69s33.5-74.68 74.68-74.68 74.68 33.51 74.68 74.68-33.5 74.69-74.68 74.69zm0-140.28c-36.23 0-65.59 29.37-65.59 65.59s29.36 65.6 65.59 65.6 65.59-29.37 65.59-65.6-29.36-65.59-65.59-65.59zm34.96 107.08a9.09 9.09 0 0 1-9.09 9.09h-51.63a9.09 9.09 0 0 1-9.09-9.09V251c0-4.59 3.42-8.45 7.97-9.02l7.44-.92v-37.7l-6.55-.07c-4.97-.05-8.98-4.11-8.98-9.09v-11.54c0-4.45 3.21-8.24 7.59-8.97l36.35-6.06c.5-.08 1-.13 1.5-.13a9.092 9.092 0 0 1 9.09 9.09v64.47l7.43.92c4.55.56 7.97 4.43 7.97 9.02zm-24.49-86.61-36.35 6.07v11.54l15.53.18v54.72l-15.41 1.9v12.2h51.63V251l-15.4-1.9zm0 72.51v-72.51l-36.35 6.07v11.54l15.53.18v54.72l-15.41 1.9v12.2h51.63V251zm0 0v-72.51l-36.35 6.07v11.54l15.53.18v54.72l-15.41 1.9v12.2h51.63V251zm59.76-107.99-63.69-26.1c-2.09-.86-4.29-1.29-6.55-1.29s-4.45.43-6.55 1.29l-63.69 26.1a17.198 17.198 0 0 0-10.72 15.97v83.66c0 26.97 9.96 48.91 29.6 65.2 16.91 14.03 36.75 20.57 47.06 23.22 1.4.36 2.85.55 4.29.55s2.89-.18 4.29-.55c10.33-2.65 30.16-9.19 47.06-23.22 19.64-16.29 29.6-38.23 29.6-65.2v-83.66c0-7.04-4.21-13.31-10.72-15.97zM255.98 296.4c-41.18 0-74.68-33.51-74.68-74.69s33.5-74.68 74.68-74.68 74.68 33.51 74.68 74.68-33.5 74.69-74.68 74.69zm0-140.28c-36.23 0-65.59 29.37-65.59 65.59s29.36 65.6 65.59 65.6 65.59-29.37 65.59-65.6-29.36-65.59-65.59-65.59zm34.96 107.08a9.09 9.09 0 0 1-9.09 9.09h-51.63a9.09 9.09 0 0 1-9.09-9.09V251c0-4.59 3.42-8.45 7.97-9.02l7.44-.92v-37.7l-6.55-.07c-4.97-.05-8.98-4.11-8.98-9.09v-11.54c0-4.45 3.21-8.24 7.59-8.97l36.35-6.06c.5-.08 1-.13 1.5-.13a9.092 9.092 0 0 1 9.09 9.09v64.47l7.43.92c4.55.56 7.97 4.43 7.97 9.02zm-24.49-86.61-36.35 6.07v11.54l15.53.18v54.72l-15.41 1.9v12.2h51.63V251l-15.4-1.9zm0 72.51v-72.51l-36.35 6.07v11.54l15.53.18v54.72l-15.41 1.9v12.2h51.63V251zm0 0v-72.51l-36.35 6.07v11.54l15.53.18v54.72l-15.41 1.9v12.2h51.63V251zm-10.47-92.98c-36.23 0-65.59 29.37-65.59 65.59s29.36 65.6 65.59 65.6 65.59-29.37 65.59-65.6-29.36-65.59-65.59-65.59zm34.96 107.08a9.09 9.09 0 0 1-9.09 9.09h-51.63a9.09 9.09 0 0 1-9.09-9.09V251c0-4.59 3.42-8.45 7.97-9.02l7.44-.92v-37.7l-6.55-.07c-4.97-.05-8.98-4.11-8.98-9.09v-11.54c0-4.45 3.21-8.24 7.59-8.97l36.35-6.06c.5-.08 1-.13 1.5-.13a9.092 9.092 0 0 1 9.09 9.09v64.47l7.43.92c4.55.56 7.97 4.43 7.97 9.02zm-24.49-86.61-36.35 6.07v11.54l15.53.18v54.72l-15.41 1.9v12.2h51.63V251l-15.4-1.9zm0 72.51v-72.51l-36.35 6.07v11.54l15.53.18v54.72l-15.41 1.9v12.2h51.63V251zm0 0v-72.51l-36.35 6.07v11.54l15.53.18v54.72l-15.41 1.9v12.2h51.63V251zm-10.47-92.98c-36.23 0-65.59 29.37-65.59 65.59s29.36 65.6 65.59 65.6 65.59-29.37 65.59-65.6-29.36-65.59-65.59-65.59zm34.96 107.08a9.09 9.09 0 0 1-9.09 9.09h-51.63a9.09 9.09 0 0 1-9.09-9.09V251c0-4.59 3.42-8.45 7.97-9.02l7.44-.92v-37.7l-6.55-.07c-4.97-.05-8.98-4.11-8.98-9.09v-11.54c0-4.45 3.21-8.24 7.59-8.97l36.35-6.06c.5-.08 1-.13 1.5-.13a9.092 9.092 0 0 1 9.09 9.09v64.47l7.43.92c4.55.56 7.97 4.43 7.97 9.02zm-24.49-86.61-36.35 6.07v11.54l15.53.18v54.72l-15.41 1.9v12.2h51.63V251l-15.4-1.9zm0 72.51v-72.51l-36.35 6.07v11.54l15.53.18v54.72l-15.41 1.9v12.2h51.63V251zm0 0v-72.51l-36.35 6.07v11.54l15.53.18v54.72l-15.41 1.9v12.2h51.63V251zm59.76-107.99-63.69-26.1c-2.09-.86-4.29-1.29-6.55-1.29s-4.45.43-6.55 1.29l-63.69 26.1a17.198 17.198 0 0 0-10.72 15.97v83.66c0 26.97 9.96 48.91 29.6 65.2 16.91 14.03 36.75 20.57 47.06 23.22 1.4.36 2.85.55 4.29.55s2.89-.18 4.29-.55c10.33-2.65 30.16-9.19 47.06-23.22 19.64-16.29 29.6-38.23 29.6-65.2v-83.66c0-7.04-4.21-13.31-10.72-15.97zM255.97 296.4c-41.18 0-74.68-33.51-74.68-74.69s33.5-74.68 74.68-74.68 74.68 33.51 74.68 74.68-33.5 74.69-74.68 74.69zm0-140.28c-36.23 0-65.59 29.37-65.59 65.59s29.36 65.6 65.59 65.6 65.59-29.37 65.59-65.6-29.36-65.59-65.59-65.59zm34.96 107.08a9.09 9.09 0 0 1-9.09 9.09h-51.63a9.09 9.09 0 0 1-9.09-9.09V251c0-4.59 3.42-8.45 7.97-9.02l7.44-.92v-37.7l-6.55-.07c-4.97-.05-8.98-4.11-8.98-9.09v-11.54c0-4.45 3.21-8.24 7.59-8.97l36.35-6.06c.5-.08 1-.13 1.5-.13a9.092 9.092 0 0 1 9.09 9.09v64.47l7.43.92c4.55.56 7.97 4.43 7.97 9.02zm-24.49-86.61-36.35 6.07v11.54l15.53.18v54.72l-15.41 1.9v12.2h51.63V251l-15.4-1.9zm0 72.51v-72.51l-36.35 6.07v11.54l15.53.18v54.72l-15.41 1.9v12.2h51.63V251zm0 0v-72.51l-36.35 6.07v11.54l15.53.18v54.72l-15.41 1.9v12.2h51.63V251zm59.76-107.99-63.69-26.1c-2.09-.86-4.29-1.29-6.55-1.29s-4.45.43-6.55 1.29l-63.69 26.1A17.198 17.198 0 0 0 175 157.08v83.66c0 26.97 9.96 48.91 29.6 65.2 16.91 14.03 36.75 20.57 47.06 23.22 1.4.36 2.85.55 4.29.55s2.89-.18 4.29-.55c10.33-2.65 30.16-9.19 47.06-23.22 19.64-16.29 29.6-38.23 29.6-65.2v-83.66c0-7.04-4.21-13.31-10.72-15.97zM255.96 296.4c-41.18 0-74.68-33.51-74.68-74.69s33.5-74.68 74.68-74.68 74.68 33.51 74.68 74.68-33.5 74.69-74.68 74.69zm0-140.28c-36.23 0-65.59 29.37-65.59 65.59s29.36 65.6 65.59 65.6 65.59-29.37 65.59-65.6-29.36-65.59-65.59-65.59zm34.96 107.08a9.09 9.09 0 0 1-9.09 9.09H230.2a9.09 9.09 0 0 1-9.09-9.09V251c0-4.59 3.42-8.45 7.97-9.02l7.44-.92v-37.7l-6.55-.07c-4.97-.05-8.98-4.11-8.98-9.09v-11.54c0-4.45 3.21-8.24 7.59-8.97l36.35-6.06c.5-.08 1-.13 1.5-.13a9.092 9.092 0 0 1 9.09 9.09v64.47l7.43.92c4.55.56 7.97 4.43 7.97 9.02zm-24.49-86.61-36.35 6.07v11.54l15.53.18v54.72L230.2 251v12.2h51.63V251l-15.4-1.9zm0 72.51v-72.51l-36.35 6.07v11.54l15.53.18v54.72L230.2 251v12.2h51.63V251zm0 0v-72.51l-36.35 6.07v11.54l15.53.18v54.72L230.2 251v12.2h51.63V251zm-10.47-92.98c-36.23 0-65.59 29.37-65.59 65.59s29.36 65.6 65.59 65.6 65.59-29.37 65.59-65.6-29.36-65.59-65.59-65.59zm34.96 107.08a9.09 9.09 0 0 1-9.09 9.09H230.2a9.09 9.09 0 0 1-9.09-9.09V251c0-4.59 3.42-8.45 7.97-9.02l7.44-.92v-37.7l-6.55-.07c-4.97-.05-8.98-4.11-8.98-9.09v-11.54c0-4.45 3.21-8.24 7.59-8.97l36.35-6.06c.5-.08 1-.13 1.5-.13a9.092 9.092 0 0 1 9.09 9.09v64.47l7.43.92c4.55.56 7.97 4.43 7.97 9.02zm-24.49-86.61-36.35 6.07v11.54l15.53.18v54.72L230.2 251v12.2h51.63V251l-15.4-1.9zm0 72.51v-72.51l-36.35 6.07v11.54l15.53.18v54.72L230.2 251v12.2h51.63V251zm0 0v-72.51l-36.35 6.07v11.54l15.53.18v54.72L230.2 251v12.2h51.63V251zm-10.47-92.98c-36.23 0-65.59 29.37-65.59 65.59s29.36 65.6 65.59 65.6 65.59-29.37 65.59-65.6-29.36-65.59-65.59-65.59zm34.96 107.08a9.09 9.09 0 0 1-9.09 9.09H230.2a9.09 9.09 0 0 1-9.09-9.09V251c0-4.59 3.42-8.45 7.97-9.02l7.44-.92v-37.7l-6.55-.07c-4.97-.05-8.98-4.11-8.98-9.09v-11.54c0-4.45 3.21-8.24 7.59-8.97l36.35-6.06c.5-.08 1-.13 1.5-.13a9.092 9.092 0 0 1 9.09 9.09v64.47l7.43.92c4.55.56 7.97 4.43 7.97 9.02zm-24.49-86.61-36.35 6.07v11.54l15.53.18v54.72L230.2 251v12.2h51.63V251l-15.4-1.9zm141.55 6.27c-10.25-2.58-27.79-5.55-44.73-1.68v25.77c.57-.02 1.15-.04 1.73-.04 15.08 0 29.28 5.24 40.29 10.93 4.71-8.57 7.7-17.08 9.47-23.22 1.55-5.39-1.31-10.39-6.76-11.76zm-19.25-48.93c-7.45.13-18.46 1.02-29.69 4.38 2.73 5.74 4.21 12.11 4.21 18.76v14.8c5.48-1.1 11.29-1.66 17.44-1.66 4.86 0 9.55.35 13.85.89 2.87-10.48 3.66-20.6 3.78-27.58.1-5.62-3.97-9.69-9.59-9.59zm-265.56 0c-5.62-.1-9.69 3.97-9.59 9.59.12 6.98.91 17.1 3.78 27.58 4.31-.54 8.99-.89 13.85-.89 6.15 0 11.95.56 17.44 1.66v-14.8c0-6.65 1.48-13.03 4.21-18.76-11.23-3.37-22.24-4.25-29.69-4.38zm-19.25 48.93c-5.45 1.37-8.32 6.37-6.76 11.76 1.77 6.14 4.76 14.65 9.47 23.22 11-5.69 25.21-10.93 40.29-10.93.58 0 1.15.03 1.73.05v-25.77c-16.94-3.87-34.48-.91-44.73 1.67zm44.73 57.88v-24.69c-21.25-.65-41.15 10.89-51.49 18.15-4.6 3.23-5.49 8.92-2.11 13.41 5.58 7.38 15.34 18.53 28.18 26.28 5.68-9.48 14.08-20.71 25.48-29.19-.05-1.32-.06-2.64-.06-3.96zm.85 15.01c-11.28 10-18.89 22.81-23.05 31.14-2.5 5.03-.58 10.45 4.53 12.79 8.99 4.11 24.2 9.71 40.33 9.8-12.15-15.32-19.45-33.29-21.81-53.73zm170.32 120.91H192.09c-10.49 0-18.99 8.5-18.99 18.98s8.5 18.99 18.99 18.99h127.73c10.49 0 18.99-8.5 18.99-18.99s-8.5-18.98-18.99-18.98zm-16.26-36.51c-14.51 7.99-28.29 12.36-36.75 14.54a43.665 43.665 0 0 1-21.7 0c-8.45-2.17-22.24-6.55-36.75-14.54-4.52 2.27-7.64 6.94-7.64 12.35v15.07h110.47V352.5c0-5.41-3.12-10.07-7.64-12.35zm-37.13-91.05v-72.51l-36.35 6.07v11.54l15.53.18v54.72L230.2 251v12.2h51.63V251zm0 0v-72.51l-36.35 6.07v11.54l15.53.18v54.72L230.2 251v12.2h51.63V251zm59.76-107.99-63.69-26.1c-2.09-.86-4.29-1.29-6.55-1.29s-4.45.43-6.55 1.29l-63.69 26.1a17.198 17.198 0 0 0-10.72 15.97v83.66c0 26.97 9.96 48.91 29.6 65.2 16.91 14.03 36.75 20.57 47.06 23.22 1.4.36 2.85.55 4.29.55s2.89-.18 4.29-.55c10.33-2.65 30.16-9.19 47.06-23.22 19.64-16.29 29.6-38.23 29.6-65.2v-83.66c0-7.04-4.21-13.31-10.72-15.97zM255.95 296.4c-41.18 0-74.68-33.51-74.68-74.69s33.5-74.68 74.68-74.68 74.68 33.51 74.68 74.68-33.5 74.69-74.68 74.69zm0-140.28c-36.23 0-65.59 29.37-65.59 65.59s29.36 65.6 65.59 65.6 65.59-29.37 65.59-65.6-29.36-65.59-65.59-65.59zm34.96 107.08a9.09 9.09 0 0 1-9.09 9.09h-51.63a9.09 9.09 0 0 1-9.09-9.09V251c0-4.59 3.42-8.45 7.97-9.02l7.44-.92v-37.7l-6.55-.07c-4.97-.05-8.98-4.11-8.98-9.09v-11.54c0-4.45 3.21-8.24 7.59-8.97l36.35-6.06c.5-.08 1-.13 1.5-.13a9.092 9.092 0 0 1 9.09 9.09v64.47l7.43.92c4.55.56 7.97 4.43 7.97 9.02zm-24.49-86.61-36.35 6.07v11.54l15.53.18v54.72l-15.41 1.9v12.2h51.63V251l-15.4-1.9zm59.76-35.48-63.69-26.1c-2.09-.86-4.29-1.29-6.55-1.29s-4.45.43-6.55 1.29l-63.69 26.1a17.198 17.198 0 0 0-10.72 15.97v83.66c0 26.97 9.96 48.91 29.6 65.2 16.91 14.03 36.75 20.57 47.06 23.22 1.4.36 2.85.55 4.29.55s2.89-.18 4.29-.55c10.33-2.65 30.16-9.19 47.06-23.22 19.64-16.29 29.6-38.23 29.6-65.2v-83.66c0-7.04-4.21-13.31-10.72-15.97zM255.94 296.4c-41.18 0-74.68-33.51-74.68-74.69s33.5-74.68 74.68-74.68 74.68 33.51 74.68 74.68-33.5 74.69-74.68 74.69zm0-140.28c-36.23 0-65.59 29.37-65.59 65.59s29.36 65.6 65.59 65.6 65.59-29.37 65.59-65.6-29.36-65.59-65.59-65.59zM290.9 263.2a9.09 9.09 0 0 1-9.09 9.09h-51.63a9.09 9.09 0 0 1-9.09-9.09V251c0-4.59 3.42-8.45 7.97-9.02l7.44-.92v-37.7l-6.55-.07c-4.97-.05-8.98-4.11-8.98-9.09v-11.54c0-4.45 3.21-8.24 7.59-8.97l36.35-6.06c.5-.08 1-.13 1.5-.13a9.092 9.092 0 0 1 9.09 9.09v64.47l7.43.92c4.55.56 7.97 4.43 7.97 9.02zm-24.49-86.61-36.35 6.07v11.54l15.53.18v54.72l-15.41 1.9v12.2h51.63V251l-15.4-1.9zm66.31-51.45-63.69-26.1a34.404 34.404 0 0 0-26.18 0l-63.69 26.1c-12.96 5.31-21.43 17.94-21.43 31.95v83.66c0 75.26 65.69 98.99 89.62 105.14a34.47 34.47 0 0 0 17.18 0c23.93-6.15 89.62-29.87 89.62-105.14v-83.66c0-14.01-8.46-26.64-21.43-31.95zm13.26 115.61c0 29.8-11.06 54.09-32.89 72.2-18.26 15.15-39.55 22.18-50.6 25.03a26.312 26.312 0 0 1-13.11 0c-11.05-2.85-32.33-9.87-50.59-25.03-21.83-18.11-32.89-42.4-32.89-72.2v-83.66c0-10.75 6.43-20.31 16.36-24.38l63.69-26.11c3.19-1.3 6.55-1.96 9.99-1.96s6.8.66 9.99 1.96l63.69 26.11a26.259 26.259 0 0 1 16.36 24.38zm-19.81-99.64-63.69-26.1c-2.09-.86-4.29-1.29-6.55-1.29s-4.45.43-6.55 1.29l-63.69 26.1a17.198 17.198 0 0 0-10.72 15.97v83.66c0 26.97 9.96 48.91 29.6 65.2 16.91 14.03 36.75 20.57 47.06 23.22 1.4.36 2.85.55 4.29.55s2.89-.18 4.29-.55c10.33-2.65 30.16-9.19 47.06-23.22 19.64-16.29 29.6-38.23 29.6-65.2v-83.66c0-7.04-4.21-13.31-10.72-15.97zM255.93 296.4c-41.18 0-74.68-33.51-74.68-74.69s33.5-74.68 74.68-74.68 74.68 33.51 74.68 74.68-33.5 74.69-74.68 74.69zm0-140.28c-36.23 0-65.59 29.37-65.59 65.59s29.36 65.6 65.59 65.6 65.59-29.37 65.59-65.6-29.36-65.59-65.59-65.59zm34.96 107.08a9.09 9.09 0 0 1-9.09 9.09h-51.63a9.09 9.09 0 0 1-9.09-9.09V251c0-4.59 3.42-8.45 7.97-9.02l7.44-.92v-37.7l-6.55-.07c-4.97-.05-8.98-4.11-8.98-9.09v-11.54c0-4.45 3.21-8.24 7.59-8.97l36.35-6.06c.5-.08 1-.13 1.5-.13a9.092 9.092 0 0 1 9.09 9.09v64.47l7.43.92c4.55.56 7.97 4.43 7.97 9.02zm-24.49-86.61-36.35 6.07v11.54l15.53.18v54.72l-15.41 1.9v12.2h51.63V251l-15.4-1.9zm119.03 110.3c-4.15-8.32-11.76-21.13-23.05-31.13-2.36 20.44-9.66 38.4-21.81 53.72 16.13-.09 31.34-5.7 40.33-9.8 5.11-2.34 7.03-7.76 4.53-12.79zm29.29-52.68c-10.35-7.26-30.25-18.8-51.49-18.15v24.69c0 1.34-.02 2.65-.06 3.97 11.39 8.49 19.8 19.71 25.49 29.18 12.84-7.76 22.59-18.9 28.17-26.28 3.38-4.49 2.49-10.18-2.11-13.41zM266.4 249.1v-72.51l-36.35 6.07v11.54l15.53.18v54.72l-15.41 1.9v12.2h51.63V251zm0 0v-72.51l-36.35 6.07v11.54l15.53.18v54.72l-15.41 1.9v12.2h51.63V251zm59.76-107.99-63.69-26.1c-2.09-.86-4.29-1.29-6.55-1.29s-4.45.43-6.55 1.29l-63.69 26.1a17.198 17.198 0 0 0-10.72 15.97v83.66c0 26.97 9.96 48.91 29.6 65.2 16.91 14.03 36.75 20.57 47.06 23.22 1.4.36 2.85.55 4.29.55s2.89-.18 4.29-.55c10.33-2.65 30.16-9.19 47.06-23.22 19.64-16.29 29.6-38.23 29.6-65.2v-83.66c0-7.04-4.21-13.31-10.72-15.97zM255.92 296.4c-41.18 0-74.68-33.51-74.68-74.69s33.5-74.68 74.68-74.68 74.68 33.51 74.68 74.68-33.5 74.69-74.68 74.69zm0-140.28c-36.23 0-65.59 29.37-65.59 65.59s29.36 65.6 65.59 65.6 65.59-29.37 65.59-65.6-29.36-65.59-65.59-65.59zm34.96 107.08a9.09 9.09 0 0 1-9.09 9.09h-51.63a9.09 9.09 0 0 1-9.09-9.09V251c0-4.59 3.42-8.45 7.97-9.02l7.44-.92v-37.7l-6.55-.07c-4.97-.05-8.98-4.11-8.98-9.09v-11.54c0-4.45 3.21-8.24 7.59-8.97l36.35-6.06c.5-.08 1-.13 1.5-.13a9.092 9.092 0 0 1 9.09 9.09v64.47l7.43.92c4.55.56 7.97 4.43 7.97 9.02zm-24.49-86.61-36.35 6.07v11.54l15.53.18v54.72l-15.41 1.9v12.2h51.63V251l-15.4-1.9zm0 72.51v-72.51l-36.35 6.07v11.54l15.53.18v54.72l-15.41 1.9v12.2h51.63V251zm0 0v-72.51l-36.35 6.07v11.54l15.53.18v54.72l-15.41 1.9v12.2h51.63V251zm59.76-107.99-63.69-26.1c-2.09-.86-4.29-1.29-6.55-1.29s-4.45.43-6.55 1.29l-63.69 26.1a17.198 17.198 0 0 0-10.72 15.97v83.66c0 26.97 9.96 48.91 29.6 65.2 16.91 14.03 36.75 20.57 47.06 23.22 1.4.36 2.85.55 4.29.55s2.89-.18 4.29-.55c10.33-2.65 30.16-9.19 47.06-23.22 19.64-16.29 29.6-38.23 29.6-65.2v-83.66c0-7.04-4.21-13.31-10.72-15.97zM255.91 296.4c-41.18 0-74.68-33.51-74.68-74.69s33.5-74.68 74.68-74.68 74.68 33.51 74.68 74.68-33.5 74.69-74.68 74.69zm0-140.28c-36.23 0-65.59 29.37-65.59 65.59s29.36 65.6 65.59 65.6 65.59-29.37 65.59-65.6-29.36-65.59-65.59-65.59zm34.96 107.08a9.09 9.09 0 0 1-9.09 9.09h-51.63a9.09 9.09 0 0 1-9.09-9.09V251c0-4.59 3.42-8.45 7.97-9.02l7.44-.92v-37.7l-6.55-.07c-4.97-.05-8.98-4.11-8.98-9.09v-11.54c0-4.45 3.21-8.24 7.59-8.97l36.35-6.06c.5-.08 1-.13 1.5-.13a9.092 9.092 0 0 1 9.09 9.09v64.47l7.43.92c4.55.56 7.97 4.43 7.97 9.02zm-24.49-86.61-36.35 6.07v11.54l15.53.18v54.72l-15.41 1.9v12.2h51.63V251l-15.4-1.9zm0 72.51v-72.51l-36.35 6.07v11.54l15.53.18v54.72l-15.41 1.9v12.2h51.63V251zm0 0v-72.51l-36.35 6.07v11.54l15.53.18v54.72l-15.41 1.9v12.2h51.63V251zm-10.47-92.98c-36.23 0-65.59 29.37-65.59 65.59s29.36 65.6 65.59 65.6 65.59-29.37 65.59-65.6-29.36-65.59-65.59-65.59zm34.96 107.08a9.09 9.09 0 0 1-9.09 9.09h-51.63a9.09 9.09 0 0 1-9.09-9.09V251c0-4.59 3.42-8.45 7.97-9.02l7.44-.92v-37.7l-6.55-.07c-4.97-.05-8.98-4.11-8.98-9.09v-11.54c0-4.45 3.21-8.24 7.59-8.97l36.35-6.06c.5-.08 1-.13 1.5-.13a9.092 9.092 0 0 1 9.09 9.09v64.47l7.43.92c4.55.56 7.97 4.43 7.97 9.02zm-24.49-86.61-36.35 6.07v11.54l15.53.18v54.72l-15.41 1.9v12.2h51.63V251l-15.4-1.9zm0 72.51v-72.51l-36.35 6.07v11.54l15.53.18v54.72l-15.41 1.9v12.2h51.63V251zm0 0v-72.51l-36.35 6.07v11.54l15.53.18v54.72l-15.41 1.9v12.2h51.63V251zm-10.47-92.98c-36.23 0-65.59 29.37-65.59 65.59s29.36 65.6 65.59 65.6 65.59-29.37 65.59-65.6-29.36-65.59-65.59-65.59zm34.96 107.08a9.09 9.09 0 0 1-9.09 9.09h-51.63a9.09 9.09 0 0 1-9.09-9.09V251c0-4.59 3.42-8.45 7.97-9.02l7.44-.92v-37.7l-6.55-.07c-4.97-.05-8.98-4.11-8.98-9.09v-11.54c0-4.45 3.21-8.24 7.59-8.97l36.35-6.06c.5-.08 1-.13 1.5-.13a9.092 9.092 0 0 1 9.09 9.09v64.47l7.43.92c4.55.56 7.97 4.43 7.97 9.02zm-24.49-86.61-36.35 6.07v11.54l15.53.18v54.72l-15.41 1.9v12.2h51.63V251l-15.4-1.9zm0 72.51v-72.51l-36.35 6.07v11.54l15.53.18v54.72l-15.41 1.9v12.2h51.63V251zm0 0v-72.51l-36.35 6.07v11.54l15.53.18v54.72l-15.41 1.9v12.2h51.63V251z" data-name="95" fill="#f1d200" opacity="1" data-original="#000000" class=""></path></g></svg>