<svg xmlns="http://www.w3.org/2000/svg" version="1.1" xmlns:xlink="http://www.w3.org/1999/xlink" width="512" height="512" x="0" y="0" viewBox="0 0 96 96" style="enable-background:new 0 0 512 512" xml:space="preserve"><g><path d="M73 47c-1.7 0-3-1.3-3-3s1.3-3 3-3 3 1.3 3 3-1.3 3-3 3zm-6 6c-1.7 0-3-1.3-3-3s1.3-3 3-3 3 1.3 3 3-1.3 3-3 3zm-6-6c-1.7 0-3-1.3-3-3s1.3-3 3-3 3 1.3 3 3-1.3 3-3 3zm6-12c1.7 0 3 1.3 3 3s-1.3 3-3 3-3-1.3-3-3 1.3-3 3-3zM35 46h-4v4c0 1.1-.9 2-2 2s-2-.9-2-2v-4h-4c-1.1 0-2-.9-2-2s.9-2 2-2h4v-4c0-1.1.9-2 2-2s2 .9 2 2v4h4c1.1 0 2 .9 2 2s-.9 2-2 2zm36-26c-11.8 0-5.8 6-23 6s-11.2-6-23-6C12.4 20-3.6 76 13 76c15.3 0 9.5-14 35-14s19.7 14 35 14c16.6 0 .6-56-12-56z" fill="#ffffff" opacity="1" data-original="#000000"></path></g></svg>