<svg viewBox="0 0 48 48" xmlns="http://www.w3.org/2000/svg"><g id="Gift_box" data-name="Gift box"><path d="m1 8v8h46v-8z" fill="#db5669"/><path d="m3.08 8a7 7 0 0 0 6.92 6h37v-6z" fill="#f26674"/><path d="m4 16h40v28h-40z" fill="#db5669"/><path d="m44 18v23h-33a4 4 0 0 1 -4-4v-17a2 2 0 0 1 2-2z" fill="#f26674"/><path d="m21 18v23h6v-23z" fill="#ffde76"/><path d="m7 27v6h37v-6z" fill="#ffde76"/><path d="m33 27c-.1 2.18-.61 2.21-9 10.59l-7.72-7.72a4.37 4.37 0 0 1 4.72-7.14c1.07.42 1.54 1.05 3 2.51 1.45-1.45 2.46-2.83 4.64-2.83a4.36 4.36 0 0 1 4.36 4.59z" fill="#dad7e5"/><path d="m33 27c-.11 2.38-1.68 3.14-4.39 6a3.69 3.69 0 0 1 -5.2 0c-5.41-5.37-6.3-5.85-6.41-8a4.25 4.25 0 0 1 .44-2.14 4.38 4.38 0 0 1 3.56-.13c1.07.42 1.54 1.05 3 2.51 1.45-1.45 2.46-2.83 4.64-2.83a4.36 4.36 0 0 1 4.36 4.59z" fill="#edebf2"/><path d="m21 8h6v6h-6z" fill="#ffde76"/><path d="m22.22 10.41c-4 1.85-10.82 3-8.4-.52 1.18-1.68 1.6-1.65.68-2.89-.76-1-2-2.37-.5-3 1.64-.81 6.37.74 8.22 1.59h3.56c1.66-.76 7-2.56 8.4-1.48 1.63 1.02-1.18 2.89-1.18 3.89 0 .48.68 1.18 1.18 1.89 2.4 3.51-4.11 2.45-8.4.52z" fill="#a82af4"/><g fill="#fc6"><path d="m21 14h6v4h-6z"/><path d="m21 41h6v3h-6z"/><path d="m4 27h3v6h-3z"/></g><path d="m25.78 10.41a3 3 0 1 1 -1.78-5.41 3 3 0 0 1 1.78 5.41z" fill="#6fabe6"/><path d="m26.55 9.56a2.84 2.84 0 0 1 -1.55.44 3 3 0 0 1 -2.56-4.56 3.16 3.16 0 0 1 1.56-.44 3 3 0 0 1 2.55 4.56z" fill="#82bcf4"/><path d="m33 8c0 .48.68 1.18 1.18 1.89-.89.72-3.77 0-4.88-.23a19.35 19.35 0 0 1 -2.3-.74c-.23-.11-.08.1 0-.52a3 3 0 0 0 -1.19-2.81c1.66-.76 7-2.56 8.4-1.48 1.6 1.02-1.21 2.89-1.21 3.89z" fill="#ae3ef9"/><path d="m22.22 5.59a3 3 0 0 0 -1.09 3.28c-1 .51-6.12 2-7.31 1 1.18-1.66 1.6-1.63.68-2.87-.76-1-2-2.37-.5-3 1.64-.81 6.37.74 8.22 1.59z" fill="#ae3ef9"/></g></svg>