<svg xmlns="http://www.w3.org/2000/svg" version="1.1" xmlns:xlink="http://www.w3.org/1999/xlink" width="512" height="512" x="0" y="0" viewBox="0 0 152 152" style="enable-background:new 0 0 512 512" xml:space="preserve" class=""><g><linearGradient id="a" x1="34.246" x2="117.686" y1="16.504" y2="99.944" gradientUnits="userSpaceOnUse"><stop stop-opacity="1" stop-color="#ff6562" offset="0"></stop><stop stop-opacity="1" stop-color="#a00000" offset="1"></stop></linearGradient><path fill="url(#a)" d="M128.1 88.9c-7.9 9.5-19.2 19.1-32.3 30.3-4.4 3.8-9.5 8.1-14.8 12.7-2.9 2.5-7.2 2.5-10 0-5.3-4.6-10.3-8.9-14.8-12.7C43.1 108 31.8 98.4 23.9 88.9 15.2 78.3 11 68.2 11 57.2c-.2-10.2 3.5-20.1 10.3-27.7 6.7-7.3 16.1-11.4 26-11.3 7.4 0 14.6 2.5 20.4 7.1 3.2 2.5 5.9 5.4 8.2 8.7 2.3-3.3 5.1-6.2 8.2-8.7 5.8-4.6 13-7.1 20.5-7 9.9-.1 19.3 4 26 11.3 6.8 7.6 10.5 17.5 10.3 27.7.1 10.9-4.1 21-12.8 31.6z" opacity="1" data-original="url(#a)" class=""></path></g></svg>