<svg xmlns="http://www.w3.org/2000/svg" version="1.1" xmlns:xlink="http://www.w3.org/1999/xlink" width="512" height="512" x="0" y="0" viewBox="0 0 24 24" style="enable-background:new 0 0 512 512" xml:space="preserve" class=""><g><path d="M14.5 24a1 1 0 0 1-.832-.445L11.965 21H10a1 1 0 0 1 0-2h2.5c.334 0 .646.167.832.445l1.044 1.566 2.229-4.459a1.001 1.001 0 0 1 1.752-.068L21.066 21H23a1 1 0 0 1 0 2h-2.5a.999.999 0 0 1-.857-.485l-2.063-3.438-2.185 4.371c-.16.319-.477.529-.833.551L14.5 24z" fill="#ffffff" opacity="1" data-original="#000000" class=""></path><circle cx="9" cy="5" r="5" fill="#ffffff" opacity="1" data-original="#000000" class=""></circle><path d="M7 20c0-1.654 1.346-3 3-3h2.5c.519 0 1.019.133 1.458.377l.859-1.719c.437-.871 1.269-1.442 2.214-1.594A4.984 4.984 0 0 0 13 12H5a5 5 0 0 0-5 5v3.25c0 .414.336.75.75.75h6.434A2.966 2.966 0 0 1 7 20z" fill="#ffffff" opacity="1" data-original="#000000" class=""></path></g></svg>