<svg xmlns="http://www.w3.org/2000/svg" version="1.1" xmlns:xlink="http://www.w3.org/1999/xlink" width="512" height="512" x="0" y="0" viewBox="0 0 512 512" style="enable-background:new 0 0 512 512" xml:space="preserve" class=""><g><path fill-rule="evenodd" d="M35.895 43.027h398.278c14.242 0 25.895 11.652 25.895 25.895v31.08H10v-31.08c0-14.243 11.653-25.895 25.895-25.895zm310.496 264.21 133.16 44.399c1.997.666 3.292 2.445 3.311 4.55.019 2.106-1.242 3.908-3.227 4.61l-27.22 9.636 46.755 46.755c3.773 3.773 3.773 9.927 0 13.7l-35.256 35.256c-3.773 3.773-9.927 3.773-13.699 0l-46.755-46.755-9.636 27.22c-.702 1.985-2.505 3.246-4.61 3.227-2.105-.02-3.884-1.314-4.55-3.311l-44.399-133.16c-.595-1.784-.16-3.627 1.17-4.957 1.329-1.33 3.172-1.765 4.956-1.17zM94.931 200.228c-3.612-4.221-3.118-10.571 1.103-14.182 4.221-3.612 10.571-3.118 14.183 1.103l10.811 12.613 35.119-27.594 13.153-10.335c4.373-3.437 10.706-2.679 14.143 1.694 3.438 4.373 2.679 10.706-1.694 14.143l-25.602 20.116-30.251 23.768-.008-.011c-4.216 3.319-10.338 2.746-13.859-1.368zm61.215-28.06v-5.159c0-5.555-4.53-10.085-10.085-10.085H83.022c-5.554 0-10.085 4.53-10.085 10.085v63.039c0 5.555 4.53 10.085 10.085 10.085h63.039c5.554 0 10.085-4.53 10.085-10.085v-32.262zm303.922-51.996H10v283.556c0 14.243 11.653 25.895 25.895 25.895h321.871L321.13 319.744c-3.012-9.031-.689-18.868 6.043-25.6 6.731-6.731 16.568-9.052 25.599-6.041l107.297 35.775V120.172zM95.757 66.608c-5.494 0-9.948 4.454-9.948 9.948s4.454 9.948 9.948 9.948 9.948-4.454 9.948-9.948-4.453-9.948-9.948-9.948zm39.45 0c-5.494 0-9.948 4.454-9.948 9.948s4.454 9.948 9.948 9.948 9.948-4.454 9.948-9.948-4.454-9.948-9.948-9.948zm-78.899 0c-5.494 0-9.948 4.454-9.948 9.948s4.454 9.948 9.948 9.948 9.948-4.454 9.948-9.948-4.454-9.948-9.948-9.948zm154.823 293.751c-5.57 0-10.085-4.515-10.085-10.085s4.516-10.085 10.085-10.085h78.786c5.57 0 10.085 4.515 10.085 10.085s-4.516 10.085-10.085 10.085zm0-129.791c-5.57 0-10.085-4.515-10.085-10.085s4.516-10.085 10.085-10.085H349.72c5.569 0 10.085 4.515 10.085 10.085s-4.516 10.085-10.085 10.085zm0-43.908c-5.57 0-10.085-4.515-10.085-10.085s4.516-10.085 10.085-10.085H349.72c5.569 0 10.085 4.515 10.085 10.085s-4.516 10.085-10.085 10.085zm0 129.79c-5.57 0-10.085-4.515-10.085-10.085s4.516-10.085 10.085-10.085h78.786c5.57 0 10.085 4.515 10.085 10.085s-4.516 10.085-10.085 10.085zM83.022 291.49h63.039c5.554 0 10.085 4.53 10.085 10.085v63.039c0 5.555-4.53 10.085-10.085 10.085H83.022c-5.554 0-10.085-4.53-10.085-10.085v-63.039c0-5.555 4.531-10.085 10.085-10.085z" clip-rule="evenodd" fill="#ffffff" opacity="1" data-original="#000000" class=""></path></g></svg>