<svg xmlns="http://www.w3.org/2000/svg" version="1.1" xmlns:xlink="http://www.w3.org/1999/xlink" width="512" height="512" x="0" y="0" viewBox="0 0 512 512" style="enable-background:new 0 0 512 512" xml:space="preserve" class=""><g><path d="M256 0C114.62 0 0 114.62 0 256s114.62 256 256 256 256-114.62 256-256S397.38 0 256 0zm163.34 419.34C375.71 462.97 317.7 487 256 487s-119.71-24.03-163.34-67.66S25 317.7 25 256 49.03 136.29 92.66 92.66 194.3 25 256 25s119.71 24.03 163.34 67.66S487 194.3 487 256s-24.03 119.71-67.66 163.34zM255.02 199.52c-.22.6-.45 1.65-.48 3.36.05-.1.08-.19.11-.28.29-.82.45-1.57.45-2.22 0-.36-.03-.65-.07-.86zm16.42 39.46-.89 7.2h-17.19l-.12-.3 13.09-13.85c4.6-4.84 8.27-8.96 11.03-12.37 2.75-3.41 4.74-6.61 5.95-9.61 1.21-2.99 1.81-6.27 1.81-9.85 0-5.23-1.2-9.8-3.6-13.71-2.4-3.9-5.83-6.94-10.29-9.1-4.45-2.16-9.8-3.24-16.03-3.24s-11.64 1.26-16.24 3.8c-4.6 2.55-8.12 5.97-10.55 10.29-2.45 4.33-3.6 9.16-3.48 14.52l.12.35h20.4c0-3.93.79-7.05 2.38-9.37 1.58-2.32 4.03-3.47 7.32-3.47 3.01 0 5.27.98 6.77 2.95 1.51 1.95 2.26 4.35 2.26 7.16 0 1.71-.33 3.47-.98 5.29-.65 1.83-1.72 3.83-3.18 6.01s-3.45 4.7-5.95 7.55l-27.9 29.38v13.38h60.91v-23.02h-15.65zm0 0-.89 7.2h-17.19l-.12-.3 13.09-13.85c4.6-4.84 8.27-8.96 11.03-12.37 2.75-3.41 4.74-6.61 5.95-9.61 1.21-2.99 1.81-6.27 1.81-9.85 0-5.23-1.2-9.8-3.6-13.71-2.4-3.9-5.83-6.94-10.29-9.1-4.45-2.16-9.8-3.24-16.03-3.24s-11.64 1.26-16.24 3.8c-4.6 2.55-8.12 5.97-10.55 10.29-2.45 4.33-3.6 9.16-3.48 14.52l.12.35h20.4c0-3.93.79-7.05 2.38-9.37 1.58-2.32 4.03-3.47 7.32-3.47 3.01 0 5.27.98 6.77 2.95 1.51 1.95 2.26 4.35 2.26 7.16 0 1.71-.33 3.47-.98 5.29-.65 1.83-1.72 3.83-3.18 6.01s-3.45 4.7-5.95 7.55l-27.9 29.38v13.38h60.91v-23.02h-15.65zm-16.42-39.46c-.22.6-.45 1.65-.48 3.36.05-.1.08-.19.11-.28.29-.82.45-1.57.45-2.22 0-.36-.03-.65-.07-.86zm.98-43.4c-36.23 0-65.59 29.37-65.59 65.59s29.36 65.6 65.59 65.6 65.59-29.37 65.59-65.6-29.36-65.59-65.59-65.59zM296.17 262a9.09 9.09 0 0 1-9.09 9.09h-60.91a9.09 9.09 0 0 1-9.09-9.09v-13.38c0-2.33.9-4.57 2.5-6.25l27.76-29.25c.45-.51.86-1 1.26-1.47-.98.36-2.05.56-3.16.56h-20.4c-3.92 0-7.39-2.5-8.63-6.22l-.12-.35c-.28-.86-.45-1.76-.46-2.67-.15-6.98 1.41-13.44 4.65-19.18 3.26-5.8 8.01-10.44 14.08-13.78 5.94-3.28 12.88-4.94 20.63-4.94s14.31 1.39 20 4.15c6.02 2.93 10.75 7.14 14.06 12.53 3.28 5.34 4.95 11.55 4.95 18.46 0 4.73-.83 9.18-2.47 13.25-1.56 3.86-3.95 7.76-7.31 11.91-1.13 1.4-2.4 2.91-3.82 4.53h6.47a9.09 9.09 0 0 1 9.09 9.09v23.02zm-25.63-15.82h-17.19l-.12-.3 13.09-13.85c4.6-4.84 8.27-8.96 11.03-12.37 2.75-3.41 4.74-6.61 5.95-9.61 1.21-2.99 1.81-6.27 1.81-9.85 0-5.23-1.2-9.8-3.6-13.71-2.4-3.9-5.83-6.94-10.29-9.1-4.45-2.16-9.8-3.24-16.03-3.24s-11.64 1.26-16.24 3.8c-4.6 2.55-8.12 5.97-10.55 10.29-2.45 4.33-3.6 9.16-3.48 14.52l.12.35h20.4c0-3.93.79-7.05 2.38-9.37 1.58-2.32 4.03-3.47 7.32-3.47 3.01 0 5.27.98 6.77 2.95 1.51 1.95 2.26 4.35 2.26 7.16 0 1.71-.33 3.47-.98 5.29-.65 1.83-1.72 3.83-3.18 6.01s-3.45 4.7-5.95 7.55l-27.9 29.38v13.38h60.91v-23.02h-15.65l-.89 7.2zm-15.53-46.66c-.22.6-.45 1.65-.48 3.36.05-.1.08-.19.11-.28.29-.82.45-1.57.45-2.22 0-.36-.03-.65-.07-.86zm0 0c-.22.6-.45 1.65-.48 3.36.05-.1.08-.19.11-.28.29-.82.45-1.57.45-2.22 0-.36-.03-.65-.07-.86zm16.42 39.46-.89 7.2h-17.19l-.12-.3 13.09-13.85c4.6-4.84 8.27-8.96 11.03-12.37 2.75-3.41 4.74-6.61 5.95-9.61 1.21-2.99 1.81-6.27 1.81-9.85 0-5.23-1.2-9.8-3.6-13.71-2.4-3.9-5.83-6.94-10.29-9.1-4.45-2.16-9.8-3.24-16.03-3.24s-11.64 1.26-16.24 3.8c-4.6 2.55-8.12 5.97-10.55 10.29-2.45 4.33-3.6 9.16-3.48 14.52l.12.35h20.4c0-3.93.79-7.05 2.38-9.37 1.58-2.32 4.03-3.47 7.32-3.47 3.01 0 5.27.98 6.77 2.95 1.51 1.95 2.26 4.35 2.26 7.16 0 1.71-.33 3.47-.98 5.29-.65 1.83-1.72 3.83-3.18 6.01s-3.45 4.7-5.95 7.55l-27.9 29.38v13.38h60.91v-23.02h-15.65zm0 0-.89 7.2h-17.19l-.12-.3 13.09-13.85c4.6-4.84 8.27-8.96 11.03-12.37 2.75-3.41 4.74-6.61 5.95-9.61 1.21-2.99 1.81-6.27 1.81-9.85 0-5.23-1.2-9.8-3.6-13.71-2.4-3.9-5.83-6.94-10.29-9.1-4.45-2.16-9.8-3.24-16.03-3.24s-11.64 1.26-16.24 3.8c-4.6 2.55-8.12 5.97-10.55 10.29-2.45 4.33-3.6 9.16-3.48 14.52l.12.35h20.4c0-3.93.79-7.05 2.38-9.37 1.58-2.32 4.03-3.47 7.32-3.47 3.01 0 5.27.98 6.77 2.95 1.51 1.95 2.26 4.35 2.26 7.16 0 1.71-.33 3.47-.98 5.29-.65 1.83-1.72 3.83-3.18 6.01s-3.45 4.7-5.95 7.55l-27.9 29.38v13.38h60.91v-23.02h-15.65zm-16.42-39.46c-.22.6-.45 1.65-.48 3.36.05-.1.08-.19.11-.28.29-.82.45-1.57.45-2.22 0-.36-.03-.65-.07-.86zm.98-43.4c-36.23 0-65.59 29.37-65.59 65.59s29.36 65.6 65.59 65.6 65.59-29.37 65.59-65.6-29.36-65.59-65.59-65.59zM296.16 262a9.09 9.09 0 0 1-9.09 9.09h-60.91a9.09 9.09 0 0 1-9.09-9.09v-13.38c0-2.33.9-4.57 2.5-6.25l27.76-29.25c.45-.51.86-1 1.26-1.47-.98.36-2.05.56-3.16.56h-20.4c-3.92 0-7.39-2.5-8.63-6.22l-.12-.35c-.28-.86-.45-1.76-.46-2.67-.15-6.98 1.41-13.44 4.65-19.18 3.26-5.8 8.01-10.44 14.08-13.78 5.94-3.28 12.88-4.94 20.63-4.94s14.31 1.39 20 4.15c6.02 2.93 10.75 7.14 14.06 12.53 3.28 5.34 4.95 11.55 4.95 18.46 0 4.73-.83 9.18-2.47 13.25-1.56 3.86-3.95 7.76-7.31 11.91-1.13 1.4-2.4 2.91-3.82 4.53h6.47a9.09 9.09 0 0 1 9.09 9.09v23.02zm-25.63-15.82h-17.19l-.12-.3 13.09-13.85c4.6-4.84 8.27-8.96 11.03-12.37 2.75-3.41 4.74-6.61 5.95-9.61 1.21-2.99 1.81-6.27 1.81-9.85 0-5.23-1.2-9.8-3.6-13.71-2.4-3.9-5.83-6.94-10.29-9.1-4.45-2.16-9.8-3.24-16.03-3.24s-11.64 1.26-16.24 3.8c-4.6 2.55-8.12 5.97-10.55 10.29-2.45 4.33-3.6 9.16-3.48 14.52l.12.35h20.4c0-3.93.79-7.05 2.38-9.37 1.58-2.32 4.03-3.47 7.32-3.47 3.01 0 5.27.98 6.77 2.95 1.51 1.95 2.26 4.35 2.26 7.16 0 1.71-.33 3.47-.98 5.29-.65 1.83-1.72 3.83-3.18 6.01s-3.45 4.7-5.95 7.55l-27.9 29.38v13.38h60.91v-23.02h-15.65l-.89 7.2zM255 199.52c-.22.6-.45 1.65-.48 3.36.05-.1.08-.19.11-.28.29-.82.45-1.57.45-2.22 0-.36-.03-.65-.07-.86zm0 0c-.22.6-.45 1.65-.48 3.36.05-.1.08-.19.11-.28.29-.82.45-1.57.45-2.22 0-.36-.03-.65-.07-.86zm16.42 39.46-.89 7.2h-17.19l-.12-.3 13.09-13.85c4.6-4.84 8.27-8.96 11.03-12.37 2.75-3.41 4.74-6.61 5.95-9.61 1.21-2.99 1.81-6.27 1.81-9.85 0-5.23-1.2-9.8-3.6-13.71-2.4-3.9-5.83-6.94-10.29-9.1-4.45-2.16-9.8-3.24-16.03-3.24s-11.64 1.26-16.24 3.8c-4.6 2.55-8.12 5.97-10.55 10.29-2.45 4.33-3.6 9.16-3.48 14.52l.12.35h20.4c0-3.93.79-7.05 2.38-9.37 1.58-2.32 4.03-3.47 7.32-3.47 3.01 0 5.27.98 6.77 2.95 1.51 1.95 2.26 4.35 2.26 7.16 0 1.71-.33 3.47-.98 5.29-.65 1.83-1.72 3.83-3.18 6.01s-3.45 4.7-5.95 7.55l-27.9 29.38v13.38h60.91v-23.02h-15.65zm0 0-.89 7.2h-17.19l-.12-.3 13.09-13.85c4.6-4.84 8.27-8.96 11.03-12.37 2.75-3.41 4.74-6.61 5.95-9.61 1.21-2.99 1.81-6.27 1.81-9.85 0-5.23-1.2-9.8-3.6-13.71-2.4-3.9-5.83-6.94-10.29-9.1-4.45-2.16-9.8-3.24-16.03-3.24s-11.64 1.26-16.24 3.8c-4.6 2.55-8.12 5.97-10.55 10.29-2.45 4.33-3.6 9.16-3.48 14.52l.12.35h20.4c0-3.93.79-7.05 2.38-9.37 1.58-2.32 4.03-3.47 7.32-3.47 3.01 0 5.27.98 6.77 2.95 1.51 1.95 2.26 4.35 2.26 7.16 0 1.71-.33 3.47-.98 5.29-.65 1.83-1.72 3.83-3.18 6.01s-3.45 4.7-5.95 7.55l-27.9 29.38v13.38h60.91v-23.02h-15.65zM255 199.52c-.22.6-.45 1.65-.48 3.36.05-.1.08-.19.11-.28.29-.82.45-1.57.45-2.22 0-.36-.03-.65-.07-.86zm.98-43.4c-36.23 0-65.59 29.37-65.59 65.59s29.36 65.6 65.59 65.6 65.59-29.37 65.59-65.6-29.36-65.59-65.59-65.59zM296.15 262a9.09 9.09 0 0 1-9.09 9.09h-60.91a9.09 9.09 0 0 1-9.09-9.09v-13.38c0-2.33.9-4.57 2.5-6.25l27.76-29.25c.45-.51.86-1 1.26-1.47-.98.36-2.05.56-3.16.56h-20.4c-3.92 0-7.39-2.5-8.63-6.22l-.12-.35c-.28-.86-.45-1.76-.46-2.67-.15-6.98 1.41-13.44 4.65-19.18 3.26-5.8 8.01-10.44 14.08-13.78 5.94-3.28 12.88-4.94 20.63-4.94s14.31 1.39 20 4.15c6.02 2.93 10.75 7.14 14.06 12.53 3.28 5.34 4.95 11.55 4.95 18.46 0 4.73-.83 9.18-2.47 13.25-1.56 3.86-3.95 7.76-7.31 11.91-1.13 1.4-2.4 2.91-3.82 4.53h6.47a9.09 9.09 0 0 1 9.09 9.09v23.02zm-25.63-15.82h-17.19l-.12-.3 13.09-13.85c4.6-4.84 8.27-8.96 11.03-12.37 2.75-3.41 4.74-6.61 5.95-9.61 1.21-2.99 1.81-6.27 1.81-9.85 0-5.23-1.2-9.8-3.6-13.71-2.4-3.9-5.83-6.94-10.29-9.1-4.45-2.16-9.8-3.24-16.03-3.24s-11.64 1.26-16.24 3.8c-4.6 2.55-8.12 5.97-10.55 10.29-2.45 4.33-3.6 9.16-3.48 14.52l.12.35h20.4c0-3.93.79-7.05 2.38-9.37 1.58-2.32 4.03-3.47 7.32-3.47 3.01 0 5.27.98 6.77 2.95 1.51 1.95 2.26 4.35 2.26 7.16 0 1.71-.33 3.47-.98 5.29-.65 1.83-1.72 3.83-3.18 6.01s-3.45 4.7-5.95 7.55l-27.9 29.38v13.38h60.91v-23.02H271.4l-.89 7.2zm-15.53-46.66c-.22.6-.45 1.65-.48 3.36.05-.1.08-.19.11-.28.29-.82.45-1.57.45-2.22 0-.36-.03-.65-.07-.86zm0 0c-.22.6-.45 1.65-.48 3.36.05-.1.08-.19.11-.28.29-.82.45-1.57.45-2.22 0-.36-.03-.65-.07-.86zm16.42 39.46-.89 7.2h-17.19l-.12-.3 13.09-13.85c4.6-4.84 8.27-8.96 11.03-12.37 2.75-3.41 4.74-6.61 5.95-9.61 1.21-2.99 1.81-6.27 1.81-9.85 0-5.23-1.2-9.8-3.6-13.71-2.4-3.9-5.83-6.94-10.29-9.1-4.45-2.16-9.8-3.24-16.03-3.24s-11.64 1.26-16.24 3.8c-4.6 2.55-8.12 5.97-10.55 10.29-2.45 4.33-3.6 9.16-3.48 14.52l.12.35h20.4c0-3.93.79-7.05 2.38-9.37 1.58-2.32 4.03-3.47 7.32-3.47 3.01 0 5.27.98 6.77 2.95 1.51 1.95 2.26 4.35 2.26 7.16 0 1.71-.33 3.47-.98 5.29-.65 1.83-1.72 3.83-3.18 6.01s-3.45 4.7-5.95 7.55l-27.9 29.38v13.38h60.91v-23.02H271.4zm0 0-.89 7.2h-17.19l-.12-.3 13.09-13.85c4.6-4.84 8.27-8.96 11.03-12.37 2.75-3.41 4.74-6.61 5.95-9.61 1.21-2.99 1.81-6.27 1.81-9.85 0-5.23-1.2-9.8-3.6-13.71-2.4-3.9-5.83-6.94-10.29-9.1-4.45-2.16-9.8-3.24-16.03-3.24s-11.64 1.26-16.24 3.8c-4.6 2.55-8.12 5.97-10.55 10.29-2.45 4.33-3.6 9.16-3.48 14.52l.12.35h20.4c0-3.93.79-7.05 2.38-9.37 1.58-2.32 4.03-3.47 7.32-3.47 3.01 0 5.27.98 6.77 2.95 1.51 1.95 2.26 4.35 2.26 7.16 0 1.71-.33 3.47-.98 5.29-.65 1.83-1.72 3.83-3.18 6.01s-3.45 4.7-5.95 7.55l-27.9 29.38v13.38h60.91v-23.02H271.4zm-16.42-39.46c-.22.6-.45 1.65-.48 3.36.05-.1.08-.19.11-.28.29-.82.45-1.57.45-2.22 0-.36-.03-.65-.07-.86zm.98-43.4c-36.23 0-65.59 29.37-65.59 65.59s29.36 65.6 65.59 65.6 65.59-29.37 65.59-65.6-29.36-65.59-65.59-65.59zM296.14 262a9.09 9.09 0 0 1-9.09 9.09h-60.91a9.09 9.09 0 0 1-9.09-9.09v-13.38c0-2.33.9-4.57 2.5-6.25l27.76-29.25c.45-.51.86-1 1.26-1.47-.98.36-2.05.56-3.16.56h-20.4c-3.92 0-7.39-2.5-8.63-6.22l-.12-.35c-.28-.86-.45-1.76-.46-2.67-.15-6.98 1.41-13.44 4.65-19.18 3.26-5.8 8.01-10.44 14.08-13.78 5.94-3.28 12.88-4.94 20.63-4.94s14.31 1.39 20 4.15c6.02 2.93 10.75 7.14 14.06 12.53 3.28 5.34 4.95 11.55 4.95 18.46 0 4.73-.83 9.18-2.47 13.25-1.56 3.86-3.95 7.76-7.31 11.91-1.13 1.4-2.4 2.91-3.82 4.53h6.47a9.09 9.09 0 0 1 9.09 9.09v23.02zm-25.63-15.82h-17.19l-.12-.3 13.09-13.85c4.6-4.84 8.27-8.96 11.03-12.37 2.75-3.41 4.74-6.61 5.95-9.61 1.21-2.99 1.81-6.27 1.81-9.85 0-5.23-1.2-9.8-3.6-13.71-2.4-3.9-5.83-6.94-10.29-9.1-4.45-2.16-9.8-3.24-16.03-3.24s-11.64 1.26-16.24 3.8c-4.6 2.55-8.12 5.97-10.55 10.29-2.45 4.33-3.6 9.16-3.48 14.52l.12.35h20.4c0-3.93.79-7.05 2.38-9.37 1.58-2.32 4.03-3.47 7.32-3.47 3.01 0 5.27.98 6.77 2.95 1.51 1.95 2.26 4.35 2.26 7.16 0 1.71-.33 3.47-.98 5.29-.65 1.83-1.72 3.83-3.18 6.01s-3.45 4.7-5.95 7.55l-27.9 29.38v13.38h60.91v-23.02h-15.65l-.89 7.2zm-15.53-46.66c-.22.6-.45 1.65-.48 3.36.05-.1.08-.19.11-.28.29-.82.45-1.57.45-2.22 0-.36-.03-.65-.07-.86zm0 0c-.22.6-.45 1.65-.48 3.36.05-.1.08-.19.11-.28.29-.82.45-1.57.45-2.22 0-.36-.03-.65-.07-.86zm16.42 39.46-.89 7.2h-17.19l-.12-.3 13.09-13.85c4.6-4.84 8.27-8.96 11.03-12.37 2.75-3.41 4.74-6.61 5.95-9.61 1.21-2.99 1.81-6.27 1.81-9.85 0-5.23-1.2-9.8-3.6-13.71-2.4-3.9-5.83-6.94-10.29-9.1-4.45-2.16-9.8-3.24-16.03-3.24s-11.64 1.26-16.24 3.8c-4.6 2.55-8.12 5.97-10.55 10.29-2.45 4.33-3.6 9.16-3.48 14.52l.12.35h20.4c0-3.93.79-7.05 2.38-9.37 1.58-2.32 4.03-3.47 7.32-3.47 3.01 0 5.27.98 6.77 2.95 1.51 1.95 2.26 4.35 2.26 7.16 0 1.71-.33 3.47-.98 5.29-.65 1.83-1.72 3.83-3.18 6.01s-3.45 4.7-5.95 7.55l-27.9 29.38v13.38h60.91v-23.02h-15.65zm0 0-.89 7.2h-17.19l-.12-.3 13.09-13.85c4.6-4.84 8.27-8.96 11.03-12.37 2.75-3.41 4.74-6.61 5.95-9.61 1.21-2.99 1.81-6.27 1.81-9.85 0-5.23-1.2-9.8-3.6-13.71-2.4-3.9-5.83-6.94-10.29-9.1-4.45-2.16-9.8-3.24-16.03-3.24s-11.64 1.26-16.24 3.8c-4.6 2.55-8.12 5.97-10.55 10.29-2.45 4.33-3.6 9.16-3.48 14.52l.12.35h20.4c0-3.93.79-7.05 2.38-9.37 1.58-2.32 4.03-3.47 7.32-3.47 3.01 0 5.27.98 6.77 2.95 1.51 1.95 2.26 4.35 2.26 7.16 0 1.71-.33 3.47-.98 5.29-.65 1.83-1.72 3.83-3.18 6.01s-3.45 4.7-5.95 7.55l-27.9 29.38v13.38h60.91v-23.02h-15.65zm-16.42-39.46c-.22.6-.45 1.65-.48 3.36.05-.1.08-.19.11-.28.29-.82.45-1.57.45-2.22 0-.36-.03-.65-.07-.86zm71.22-58.41-63.69-26.1c-2.09-.86-4.29-1.29-6.55-1.29s-4.45.43-6.55 1.29l-63.69 26.1A17.198 17.198 0 0 0 175 157.08v83.66c0 26.97 9.96 48.91 29.6 65.2 16.91 14.03 36.75 20.57 47.06 23.22 1.4.36 2.85.55 4.29.55s2.89-.18 4.29-.55c10.33-2.65 30.16-9.19 47.06-23.22 19.64-16.29 29.6-38.23 29.6-65.2v-83.66c0-7.04-4.21-13.31-10.72-15.97zM255.96 296.4c-41.18 0-74.68-33.51-74.68-74.69s33.5-74.68 74.68-74.68 74.68 33.51 74.68 74.68-33.5 74.69-74.68 74.69zm0-140.28c-36.23 0-65.59 29.37-65.59 65.59s29.36 65.6 65.59 65.6 65.59-29.37 65.59-65.6-29.36-65.59-65.59-65.59zM296.13 262a9.09 9.09 0 0 1-9.09 9.09h-60.91a9.09 9.09 0 0 1-9.09-9.09v-13.38c0-2.33.9-4.57 2.5-6.25l27.76-29.25c.45-.51.86-1 1.26-1.47-.98.36-2.05.56-3.16.56H225c-3.92 0-7.39-2.5-8.63-6.22l-.12-.35c-.28-.86-.45-1.76-.46-2.67-.15-6.98 1.41-13.44 4.65-19.18 3.26-5.8 8.01-10.44 14.08-13.78 5.94-3.28 12.88-4.94 20.63-4.94s14.31 1.39 20 4.15c6.02 2.93 10.75 7.14 14.06 12.53 3.28 5.34 4.95 11.55 4.95 18.46 0 4.73-.83 9.18-2.47 13.25-1.56 3.86-3.95 7.76-7.31 11.91-1.13 1.4-2.4 2.91-3.82 4.53h6.47a9.09 9.09 0 0 1 9.09 9.09v23.02zm-25.63-15.82h-17.19l-.12-.3 13.09-13.85c4.6-4.84 8.27-8.96 11.03-12.37 2.75-3.41 4.74-6.61 5.95-9.61 1.21-2.99 1.81-6.27 1.81-9.85 0-5.23-1.2-9.8-3.6-13.71-2.4-3.9-5.83-6.94-10.29-9.1-4.45-2.16-9.8-3.24-16.03-3.24s-11.64 1.26-16.24 3.8c-4.6 2.55-8.12 5.97-10.55 10.29-2.45 4.33-3.6 9.16-3.48 14.52l.12.35h20.4c0-3.93.79-7.05 2.38-9.37 1.58-2.32 4.03-3.47 7.32-3.47 3.01 0 5.27.98 6.77 2.95 1.51 1.95 2.26 4.35 2.26 7.16 0 1.71-.33 3.47-.98 5.29-.65 1.83-1.72 3.83-3.18 6.01s-3.45 4.7-5.95 7.55l-27.9 29.38v13.38h60.91v-23.02h-15.65l-.89 7.2zm-15.53-46.66c-.22.6-.45 1.65-.48 3.36.05-.1.08-.19.11-.28.29-.82.45-1.57.45-2.22 0-.36-.03-.65-.07-.86zm0 0c-.22.6-.45 1.65-.48 3.36.05-.1.08-.19.11-.28.29-.82.45-1.57.45-2.22 0-.36-.03-.65-.07-.86zm16.42 39.46-.89 7.2h-17.19l-.12-.3 13.09-13.85c4.6-4.84 8.27-8.96 11.03-12.37 2.75-3.41 4.74-6.61 5.95-9.61 1.21-2.99 1.81-6.27 1.81-9.85 0-5.23-1.2-9.8-3.6-13.71-2.4-3.9-5.83-6.94-10.29-9.1-4.45-2.16-9.8-3.24-16.03-3.24s-11.64 1.26-16.24 3.8c-4.6 2.55-8.12 5.97-10.55 10.29-2.45 4.33-3.6 9.16-3.48 14.52l.12.35h20.4c0-3.93.79-7.05 2.38-9.37 1.58-2.32 4.03-3.47 7.32-3.47 3.01 0 5.27.98 6.77 2.95 1.51 1.95 2.26 4.35 2.26 7.16 0 1.71-.33 3.47-.98 5.29-.65 1.83-1.72 3.83-3.18 6.01s-3.45 4.7-5.95 7.55l-27.9 29.38v13.38h60.91v-23.02h-15.65zm0 0-.89 7.2h-17.19l-.12-.3 13.09-13.85c4.6-4.84 8.27-8.96 11.03-12.37 2.75-3.41 4.74-6.61 5.95-9.61 1.21-2.99 1.81-6.27 1.81-9.85 0-5.23-1.2-9.8-3.6-13.71-2.4-3.9-5.83-6.94-10.29-9.1-4.45-2.16-9.8-3.24-16.03-3.24s-11.64 1.26-16.24 3.8c-4.6 2.55-8.12 5.97-10.55 10.29-2.45 4.33-3.6 9.16-3.48 14.52l.12.35h20.4c0-3.93.79-7.05 2.38-9.37 1.58-2.32 4.03-3.47 7.32-3.47 3.01 0 5.27.98 6.77 2.95 1.51 1.95 2.26 4.35 2.26 7.16 0 1.71-.33 3.47-.98 5.29-.65 1.83-1.72 3.83-3.18 6.01s-3.45 4.7-5.95 7.55l-27.9 29.38v13.38h60.91v-23.02h-15.65zm-16.42-39.46c-.22.6-.45 1.65-.48 3.36.05-.1.08-.19.11-.28.29-.82.45-1.57.45-2.22 0-.36-.03-.65-.07-.86zm71.22-58.41-63.69-26.1c-2.09-.86-4.29-1.29-6.55-1.29s-4.45.43-6.55 1.29l-63.69 26.1a17.198 17.198 0 0 0-10.72 15.97v83.66c0 26.97 9.96 48.91 29.6 65.2 16.91 14.03 36.75 20.57 47.06 23.22 1.4.36 2.85.55 4.29.55s2.89-.18 4.29-.55c10.33-2.65 30.16-9.19 47.06-23.22 19.64-16.29 29.6-38.23 29.6-65.2v-83.66c0-7.04-4.21-13.31-10.72-15.97zM255.95 296.4c-41.18 0-74.68-33.51-74.68-74.69s33.5-74.68 74.68-74.68 74.68 33.51 74.68 74.68-33.5 74.69-74.68 74.69zm0-140.28c-36.23 0-65.59 29.37-65.59 65.59s29.36 65.6 65.59 65.6 65.59-29.37 65.59-65.6-29.36-65.59-65.59-65.59zM296.12 262a9.09 9.09 0 0 1-9.09 9.09h-60.91a9.09 9.09 0 0 1-9.09-9.09v-13.38c0-2.33.9-4.57 2.5-6.25l27.76-29.25c.45-.51.86-1 1.26-1.47-.98.36-2.05.56-3.16.56h-20.4c-3.92 0-7.39-2.5-8.63-6.22l-.12-.35c-.28-.86-.45-1.76-.46-2.67-.15-6.98 1.41-13.44 4.65-19.18 3.26-5.8 8.01-10.44 14.08-13.78 5.94-3.28 12.88-4.94 20.63-4.94s14.31 1.39 20 4.15c6.02 2.93 10.75 7.14 14.06 12.53 3.28 5.34 4.95 11.55 4.95 18.46 0 4.73-.83 9.18-2.47 13.25-1.56 3.86-3.95 7.76-7.31 11.91-1.13 1.4-2.4 2.91-3.82 4.53h6.47a9.09 9.09 0 0 1 9.09 9.09v23.02zm-25.63-15.82H253.3l-.12-.3 13.09-13.85c4.6-4.84 8.27-8.96 11.03-12.37 2.75-3.41 4.74-6.61 5.95-9.61 1.21-2.99 1.81-6.27 1.81-9.85 0-5.23-1.2-9.8-3.6-13.71-2.4-3.9-5.83-6.94-10.29-9.1-4.45-2.16-9.8-3.24-16.03-3.24s-11.64 1.26-16.24 3.8c-4.6 2.55-8.12 5.97-10.55 10.29-2.45 4.33-3.6 9.16-3.48 14.52l.12.35h20.4c0-3.93.79-7.05 2.38-9.37 1.58-2.32 4.03-3.47 7.32-3.47 3.01 0 5.27.98 6.77 2.95 1.51 1.95 2.26 4.35 2.26 7.16 0 1.71-.33 3.47-.98 5.29-.65 1.83-1.72 3.83-3.18 6.01s-3.45 4.7-5.95 7.55l-27.9 29.38v13.38h60.91v-23.02h-15.65l-.89 7.2zm-15.53-46.66c-.22.6-.45 1.65-.48 3.36.05-.1.08-.19.11-.28.29-.82.45-1.57.45-2.22 0-.36-.03-.65-.07-.86zm0 0c-.22.6-.45 1.65-.48 3.36.05-.1.08-.19.11-.28.29-.82.45-1.57.45-2.22 0-.36-.03-.65-.07-.86zm16.42 39.46-.89 7.2H253.3l-.12-.3 13.09-13.85c4.6-4.84 8.27-8.96 11.03-12.37 2.75-3.41 4.74-6.61 5.95-9.61 1.21-2.99 1.81-6.27 1.81-9.85 0-5.23-1.2-9.8-3.6-13.71-2.4-3.9-5.83-6.94-10.29-9.1-4.45-2.16-9.8-3.24-16.03-3.24s-11.64 1.26-16.24 3.8c-4.6 2.55-8.12 5.97-10.55 10.29-2.45 4.33-3.6 9.16-3.48 14.52l.12.35h20.4c0-3.93.79-7.05 2.38-9.37 1.58-2.32 4.03-3.47 7.32-3.47 3.01 0 5.27.98 6.77 2.95 1.51 1.95 2.26 4.35 2.26 7.16 0 1.71-.33 3.47-.98 5.29-.65 1.83-1.72 3.83-3.18 6.01s-3.45 4.7-5.95 7.55l-27.9 29.38v13.38h60.91v-23.02h-15.65zm0 0-.89 7.2H253.3l-.12-.3 13.09-13.85c4.6-4.84 8.27-8.96 11.03-12.37 2.75-3.41 4.74-6.61 5.95-9.61 1.21-2.99 1.81-6.27 1.81-9.85 0-5.23-1.2-9.8-3.6-13.71-2.4-3.9-5.83-6.94-10.29-9.1-4.45-2.16-9.8-3.24-16.03-3.24s-11.64 1.26-16.24 3.8c-4.6 2.55-8.12 5.97-10.55 10.29-2.45 4.33-3.6 9.16-3.48 14.52l.12.35h20.4c0-3.93.79-7.05 2.38-9.37 1.58-2.32 4.03-3.47 7.32-3.47 3.01 0 5.27.98 6.77 2.95 1.51 1.95 2.26 4.35 2.26 7.16 0 1.71-.33 3.47-.98 5.29-.65 1.83-1.72 3.83-3.18 6.01s-3.45 4.7-5.95 7.55l-27.9 29.38v13.38h60.91v-23.02h-15.65zm-16.42-39.46c-.22.6-.45 1.65-.48 3.36.05-.1.08-.19.11-.28.29-.82.45-1.57.45-2.22 0-.36-.03-.65-.07-.86zm.98-43.4c-36.23 0-65.59 29.37-65.59 65.59s29.36 65.6 65.59 65.6 65.59-29.37 65.59-65.6-29.36-65.59-65.59-65.59zM296.11 262a9.09 9.09 0 0 1-9.09 9.09h-60.91a9.09 9.09 0 0 1-9.09-9.09v-13.38c0-2.33.9-4.57 2.5-6.25l27.76-29.25c.45-.51.86-1 1.26-1.47-.98.36-2.05.56-3.16.56h-20.4c-3.92 0-7.39-2.5-8.63-6.22l-.12-.35c-.28-.86-.45-1.76-.46-2.67-.15-6.98 1.41-13.44 4.65-19.18 3.26-5.8 8.01-10.44 14.08-13.78 5.94-3.28 12.88-4.94 20.63-4.94s14.31 1.39 20 4.15c6.02 2.93 10.75 7.14 14.06 12.53 3.28 5.34 4.95 11.55 4.95 18.46 0 4.73-.83 9.18-2.47 13.25-1.56 3.86-3.95 7.76-7.31 11.91-1.13 1.4-2.4 2.91-3.82 4.53h6.47a9.09 9.09 0 0 1 9.09 9.09v23.02zm-25.63-15.82h-17.19l-.12-.3 13.09-13.85c4.6-4.84 8.27-8.96 11.03-12.37 2.75-3.41 4.74-6.61 5.95-9.61 1.21-2.99 1.81-6.27 1.81-9.85 0-5.23-1.2-9.8-3.6-13.71-2.4-3.9-5.83-6.94-10.29-9.1-4.45-2.16-9.8-3.24-16.03-3.24s-11.64 1.26-16.24 3.8c-4.6 2.55-8.12 5.97-10.55 10.29-2.45 4.33-3.6 9.16-3.48 14.52l.12.35h20.4c0-3.93.79-7.05 2.38-9.37 1.58-2.32 4.03-3.47 7.32-3.47 3.01 0 5.27.98 6.77 2.95 1.51 1.95 2.26 4.35 2.26 7.16 0 1.71-.33 3.47-.98 5.29-.65 1.83-1.72 3.83-3.18 6.01s-3.45 4.7-5.95 7.55l-27.9 29.38v13.38h60.91v-23.02h-15.65l-.89 7.2zm-15.53-46.66c-.22.6-.45 1.65-.48 3.36.05-.1.08-.19.11-.28.29-.82.45-1.57.45-2.22 0-.36-.03-.65-.07-.86zm0 0c-.22.6-.45 1.65-.48 3.36.05-.1.08-.19.11-.28.29-.82.45-1.57.45-2.22 0-.36-.03-.65-.07-.86zm16.42 39.46-.89 7.2h-17.19l-.12-.3 13.09-13.85c4.6-4.84 8.27-8.96 11.03-12.37 2.75-3.41 4.74-6.61 5.95-9.61 1.21-2.99 1.81-6.27 1.81-9.85 0-5.23-1.2-9.8-3.6-13.71-2.4-3.9-5.83-6.94-10.29-9.1-4.45-2.16-9.8-3.24-16.03-3.24s-11.64 1.26-16.24 3.8c-4.6 2.55-8.12 5.97-10.55 10.29-2.45 4.33-3.6 9.16-3.48 14.52l.12.35h20.4c0-3.93.79-7.05 2.38-9.37 1.58-2.32 4.03-3.47 7.32-3.47 3.01 0 5.27.98 6.77 2.95 1.51 1.95 2.26 4.35 2.26 7.16 0 1.71-.33 3.47-.98 5.29-.65 1.83-1.72 3.83-3.18 6.01s-3.45 4.7-5.95 7.55l-27.9 29.38v13.38h60.91v-23.02h-15.65zm0 0-.89 7.2h-17.19l-.12-.3 13.09-13.85c4.6-4.84 8.27-8.96 11.03-12.37 2.75-3.41 4.74-6.61 5.95-9.61 1.21-2.99 1.81-6.27 1.81-9.85 0-5.23-1.2-9.8-3.6-13.71-2.4-3.9-5.83-6.94-10.29-9.1-4.45-2.16-9.8-3.24-16.03-3.24s-11.64 1.26-16.24 3.8c-4.6 2.55-8.12 5.97-10.55 10.29-2.45 4.33-3.6 9.16-3.48 14.52l.12.35h20.4c0-3.93.79-7.05 2.38-9.37 1.58-2.32 4.03-3.47 7.32-3.47 3.01 0 5.27.98 6.77 2.95 1.51 1.95 2.26 4.35 2.26 7.16 0 1.71-.33 3.47-.98 5.29-.65 1.83-1.72 3.83-3.18 6.01s-3.45 4.7-5.95 7.55l-27.9 29.38v13.38h60.91v-23.02h-15.65zm-16.42-39.46c-.22.6-.45 1.65-.48 3.36.05-.1.08-.19.11-.28.29-.82.45-1.57.45-2.22 0-.36-.03-.65-.07-.86zm.98-43.4c-36.23 0-65.59 29.37-65.59 65.59s29.36 65.6 65.59 65.6 65.59-29.37 65.59-65.6-29.36-65.59-65.59-65.59zM296.1 262a9.09 9.09 0 0 1-9.09 9.09H226.1a9.09 9.09 0 0 1-9.09-9.09v-13.38c0-2.33.9-4.57 2.5-6.25l27.76-29.25c.45-.51.86-1 1.26-1.47-.98.36-2.05.56-3.16.56h-20.4c-3.92 0-7.39-2.5-8.63-6.22l-.12-.35c-.28-.86-.45-1.76-.46-2.67-.15-6.98 1.41-13.44 4.65-19.18 3.26-5.8 8.01-10.44 14.08-13.78 5.94-3.28 12.88-4.94 20.63-4.94s14.31 1.39 20 4.15c6.02 2.93 10.75 7.14 14.06 12.53 3.28 5.34 4.95 11.55 4.95 18.46 0 4.73-.83 9.18-2.47 13.25-1.56 3.86-3.95 7.76-7.31 11.91-1.13 1.4-2.4 2.91-3.82 4.53H287a9.09 9.09 0 0 1 9.09 9.09v23.02zm-25.63-15.82h-17.19l-.12-.3 13.09-13.85c4.6-4.84 8.27-8.96 11.03-12.37 2.75-3.41 4.74-6.61 5.95-9.61 1.21-2.99 1.81-6.27 1.81-9.85 0-5.23-1.2-9.8-3.6-13.71-2.4-3.9-5.83-6.94-10.29-9.1-4.45-2.16-9.8-3.24-16.03-3.24s-11.64 1.26-16.24 3.8c-4.6 2.55-8.12 5.97-10.55 10.29-2.45 4.33-3.6 9.16-3.48 14.52l.12.35h20.4c0-3.93.79-7.05 2.38-9.37 1.58-2.32 4.03-3.47 7.32-3.47 3.01 0 5.27.98 6.77 2.95 1.51 1.95 2.26 4.35 2.26 7.16 0 1.71-.33 3.47-.98 5.29-.65 1.83-1.72 3.83-3.18 6.01s-3.45 4.7-5.95 7.55l-27.9 29.38v13.38H287v-23.02h-15.65l-.89 7.2zm-15.53-46.66c-.22.6-.45 1.65-.48 3.36.05-.1.08-.19.11-.28.29-.82.45-1.57.45-2.22 0-.36-.03-.65-.07-.86zm0 0c-.22.6-.45 1.65-.48 3.36.05-.1.08-.19.11-.28.29-.82.45-1.57.45-2.22 0-.36-.03-.65-.07-.86zm16.42 39.46-.89 7.2h-17.19l-.12-.3 13.09-13.85c4.6-4.84 8.27-8.96 11.03-12.37 2.75-3.41 4.74-6.61 5.95-9.61 1.21-2.99 1.81-6.27 1.81-9.85 0-5.23-1.2-9.8-3.6-13.71-2.4-3.9-5.83-6.94-10.29-9.1-4.45-2.16-9.8-3.24-16.03-3.24s-11.64 1.26-16.24 3.8c-4.6 2.55-8.12 5.97-10.55 10.29-2.45 4.33-3.6 9.16-3.48 14.52l.12.35h20.4c0-3.93.79-7.05 2.38-9.37 1.58-2.32 4.03-3.47 7.32-3.47 3.01 0 5.27.98 6.77 2.95 1.51 1.95 2.26 4.35 2.26 7.16 0 1.71-.33 3.47-.98 5.29-.65 1.83-1.72 3.83-3.18 6.01s-3.45 4.7-5.95 7.55l-27.9 29.38v13.38H287v-23.02h-15.65zm0 0-.89 7.2h-17.19l-.12-.3 13.09-13.85c4.6-4.84 8.27-8.96 11.03-12.37 2.75-3.41 4.74-6.61 5.95-9.61 1.21-2.99 1.81-6.27 1.81-9.85 0-5.23-1.2-9.8-3.6-13.71-2.4-3.9-5.83-6.94-10.29-9.1-4.45-2.16-9.8-3.24-16.03-3.24s-11.64 1.26-16.24 3.8c-4.6 2.55-8.12 5.97-10.55 10.29-2.45 4.33-3.6 9.16-3.48 14.52l.12.35h20.4c0-3.93.79-7.05 2.38-9.37 1.58-2.32 4.03-3.47 7.32-3.47 3.01 0 5.27.98 6.77 2.95 1.51 1.95 2.26 4.35 2.26 7.16 0 1.71-.33 3.47-.98 5.29-.65 1.83-1.72 3.83-3.18 6.01s-3.45 4.7-5.95 7.55l-27.9 29.38v13.38H287v-23.02h-15.65zm-16.42-39.46c-.22.6-.45 1.65-.48 3.36.05-.1.08-.19.11-.28.29-.82.45-1.57.45-2.22 0-.36-.03-.65-.07-.86zm71.22-58.41-63.69-26.1c-2.09-.86-4.29-1.29-6.55-1.29s-4.45.43-6.55 1.29l-63.69 26.1a17.198 17.198 0 0 0-10.72 15.97v83.66c0 26.97 9.96 48.91 29.6 65.2 16.91 14.03 36.75 20.57 47.06 23.22 1.4.36 2.85.55 4.29.55s2.89-.18 4.29-.55c10.33-2.65 30.16-9.19 47.06-23.22 19.64-16.29 29.6-38.23 29.6-65.2v-83.66c0-7.04-4.21-13.31-10.72-15.97zM255.92 296.4c-41.18 0-74.68-33.51-74.68-74.69s33.5-74.68 74.68-74.68 74.68 33.51 74.68 74.68-33.5 74.69-74.68 74.69zm0-140.28c-36.23 0-65.59 29.37-65.59 65.59s29.36 65.6 65.59 65.6 65.59-29.37 65.59-65.6-29.36-65.59-65.59-65.59zM296.09 262a9.09 9.09 0 0 1-9.09 9.09h-60.91A9.09 9.09 0 0 1 217 262v-13.38c0-2.33.9-4.57 2.5-6.25l27.76-29.25c.45-.51.86-1 1.26-1.47-.98.36-2.05.56-3.16.56h-20.4c-3.92 0-7.39-2.5-8.63-6.22l-.12-.35c-.28-.86-.45-1.76-.46-2.67-.15-6.98 1.41-13.44 4.65-19.18 3.26-5.8 8.01-10.44 14.08-13.78 5.94-3.28 12.88-4.94 20.63-4.94s14.31 1.39 20 4.15c6.02 2.93 10.75 7.14 14.06 12.53 3.28 5.34 4.95 11.55 4.95 18.46 0 4.73-.83 9.18-2.47 13.25-1.56 3.86-3.95 7.76-7.31 11.91-1.13 1.4-2.4 2.91-3.82 4.53h6.47a9.09 9.09 0 0 1 9.09 9.09v23.02zm-25.63-15.82h-17.19l-.12-.3 13.09-13.85c4.6-4.84 8.27-8.96 11.03-12.37 2.75-3.41 4.74-6.61 5.95-9.61 1.21-2.99 1.81-6.27 1.81-9.85 0-5.23-1.2-9.8-3.6-13.71-2.4-3.9-5.83-6.94-10.29-9.1-4.45-2.16-9.8-3.24-16.03-3.24s-11.64 1.26-16.24 3.8c-4.6 2.55-8.12 5.97-10.55 10.29-2.45 4.33-3.6 9.16-3.48 14.52l.12.35h20.4c0-3.93.79-7.05 2.38-9.37 1.58-2.32 4.03-3.47 7.32-3.47 3.01 0 5.27.98 6.77 2.95 1.51 1.95 2.26 4.35 2.26 7.16 0 1.71-.33 3.47-.98 5.29-.65 1.83-1.72 3.83-3.18 6.01s-3.45 4.7-5.95 7.55l-27.9 29.38v13.38h60.91v-23.02h-15.65l-.89 7.2zm-15.53-46.66c-.22.6-.45 1.65-.48 3.36.05-.1.08-.19.11-.28.29-.82.45-1.57.45-2.22 0-.36-.03-.65-.07-.86zm0 0c-.22.6-.45 1.65-.48 3.36.05-.1.08-.19.11-.28.29-.82.45-1.57.45-2.22 0-.36-.03-.65-.07-.86zm16.42 39.46-.89 7.2h-17.19l-.12-.3 13.09-13.85c4.6-4.84 8.27-8.96 11.03-12.37 2.75-3.41 4.74-6.61 5.95-9.61 1.21-2.99 1.81-6.27 1.81-9.85 0-5.23-1.2-9.8-3.6-13.71-2.4-3.9-5.83-6.94-10.29-9.1-4.45-2.16-9.8-3.24-16.03-3.24s-11.64 1.26-16.24 3.8c-4.6 2.55-8.12 5.97-10.55 10.29-2.45 4.33-3.6 9.16-3.48 14.52l.12.35h20.4c0-3.93.79-7.05 2.38-9.37 1.58-2.32 4.03-3.47 7.32-3.47 3.01 0 5.27.98 6.77 2.95 1.51 1.95 2.26 4.35 2.26 7.16 0 1.71-.33 3.47-.98 5.29-.65 1.83-1.72 3.83-3.18 6.01s-3.45 4.7-5.95 7.55l-27.9 29.38v13.38h60.91v-23.02h-15.65zm0 0-.89 7.2h-17.19l-.12-.3 13.09-13.85c4.6-4.84 8.27-8.96 11.03-12.37 2.75-3.41 4.74-6.61 5.95-9.61 1.21-2.99 1.81-6.27 1.81-9.85 0-5.23-1.2-9.8-3.6-13.71-2.4-3.9-5.83-6.94-10.29-9.1-4.45-2.16-9.8-3.24-16.03-3.24s-11.64 1.26-16.24 3.8c-4.6 2.55-8.12 5.97-10.55 10.29-2.45 4.33-3.6 9.16-3.48 14.52l.12.35h20.4c0-3.93.79-7.05 2.38-9.37 1.58-2.32 4.03-3.47 7.32-3.47 3.01 0 5.27.98 6.77 2.95 1.51 1.95 2.26 4.35 2.26 7.16 0 1.71-.33 3.47-.98 5.29-.65 1.83-1.72 3.83-3.18 6.01s-3.45 4.7-5.95 7.55l-27.9 29.38v13.38h60.91v-23.02h-15.65zm-16.42-39.46c-.22.6-.45 1.65-.48 3.36.05-.1.08-.19.11-.28.29-.82.45-1.57.45-2.22 0-.36-.03-.65-.07-.86zm71.22-58.41-63.69-26.1c-2.09-.86-4.29-1.29-6.55-1.29s-4.45.43-6.55 1.29l-63.69 26.1a17.198 17.198 0 0 0-10.72 15.97v83.66c0 26.97 9.96 48.91 29.6 65.2 16.91 14.03 36.75 20.57 47.06 23.22 1.4.36 2.85.55 4.29.55s2.89-.18 4.29-.55c10.33-2.65 30.16-9.19 47.06-23.22 19.64-16.29 29.6-38.23 29.6-65.2v-83.66c0-7.04-4.21-13.31-10.72-15.97zM255.91 296.4c-41.18 0-74.68-33.51-74.68-74.69s33.5-74.68 74.68-74.68 74.68 33.51 74.68 74.68-33.5 74.69-74.68 74.69zm0-140.28c-36.23 0-65.59 29.37-65.59 65.59s29.36 65.6 65.59 65.6 65.59-29.37 65.59-65.6-29.36-65.59-65.59-65.59zM296.08 262a9.09 9.09 0 0 1-9.09 9.09h-60.91a9.09 9.09 0 0 1-9.09-9.09v-13.38c0-2.33.9-4.57 2.5-6.25l27.76-29.25c.45-.51.86-1 1.26-1.47-.98.36-2.05.56-3.16.56h-20.4c-3.92 0-7.39-2.5-8.63-6.22l-.12-.35c-.28-.86-.45-1.76-.46-2.67-.15-6.98 1.41-13.44 4.65-19.18 3.26-5.8 8.01-10.44 14.08-13.78 5.94-3.28 12.88-4.94 20.63-4.94s14.31 1.39 20 4.15c6.02 2.93 10.75 7.14 14.06 12.53 3.28 5.34 4.95 11.55 4.95 18.46 0 4.73-.83 9.18-2.47 13.25-1.56 3.86-3.95 7.76-7.31 11.91-1.13 1.4-2.4 2.91-3.82 4.53h6.47a9.09 9.09 0 0 1 9.09 9.09v23.02zm-25.63-15.82h-17.19l-.12-.3 13.09-13.85c4.6-4.84 8.27-8.96 11.03-12.37 2.75-3.41 4.74-6.61 5.95-9.61 1.21-2.99 1.81-6.27 1.81-9.85 0-5.23-1.2-9.8-3.6-13.71-2.4-3.9-5.83-6.94-10.29-9.1-4.45-2.16-9.8-3.24-16.03-3.24s-11.64 1.26-16.24 3.8c-4.6 2.55-8.12 5.97-10.55 10.29-2.45 4.33-3.6 9.16-3.48 14.52l.12.35h20.4c0-3.93.79-7.05 2.38-9.37 1.58-2.32 4.03-3.47 7.32-3.47 3.01 0 5.27.98 6.77 2.95 1.51 1.95 2.26 4.35 2.26 7.16 0 1.71-.33 3.47-.98 5.29-.65 1.83-1.72 3.83-3.18 6.01s-3.45 4.7-5.95 7.55l-27.9 29.38v13.38h60.91v-23.02h-15.65l-.89 7.2zm-15.53-46.66c-.22.6-.45 1.65-.48 3.36.05-.1.08-.19.11-.28.29-.82.45-1.57.45-2.22 0-.36-.03-.65-.07-.86zm0 0c-.22.6-.45 1.65-.48 3.36.05-.1.08-.19.11-.28.29-.82.45-1.57.45-2.22 0-.36-.03-.65-.07-.86zm16.42 39.46-.89 7.2h-17.19l-.12-.3 13.09-13.85c4.6-4.84 8.27-8.96 11.03-12.37 2.75-3.41 4.74-6.61 5.95-9.61 1.21-2.99 1.81-6.27 1.81-9.85 0-5.23-1.2-9.8-3.6-13.71-2.4-3.9-5.83-6.94-10.29-9.1-4.45-2.16-9.8-3.24-16.03-3.24s-11.64 1.26-16.24 3.8c-4.6 2.55-8.12 5.97-10.55 10.29-2.45 4.33-3.6 9.16-3.48 14.52l.12.35h20.4c0-3.93.79-7.05 2.38-9.37 1.58-2.32 4.03-3.47 7.32-3.47 3.01 0 5.27.98 6.77 2.95 1.51 1.95 2.26 4.35 2.26 7.16 0 1.71-.33 3.47-.98 5.29-.65 1.83-1.72 3.83-3.18 6.01s-3.45 4.7-5.95 7.55l-27.9 29.38v13.38h60.91v-23.02h-15.65zm0 0-.89 7.2h-17.19l-.12-.3 13.09-13.85c4.6-4.84 8.27-8.96 11.03-12.37 2.75-3.41 4.74-6.61 5.95-9.61 1.21-2.99 1.81-6.27 1.81-9.85 0-5.23-1.2-9.8-3.6-13.71-2.4-3.9-5.83-6.94-10.29-9.1-4.45-2.16-9.8-3.24-16.03-3.24s-11.64 1.26-16.24 3.8c-4.6 2.55-8.12 5.97-10.55 10.29-2.45 4.33-3.6 9.16-3.48 14.52l.12.35h20.4c0-3.93.79-7.05 2.38-9.37 1.58-2.32 4.03-3.47 7.32-3.47 3.01 0 5.27.98 6.77 2.95 1.51 1.95 2.26 4.35 2.26 7.16 0 1.71-.33 3.47-.98 5.29-.65 1.83-1.72 3.83-3.18 6.01s-3.45 4.7-5.95 7.55l-27.9 29.38v13.38h60.91v-23.02h-15.65zm-16.42-39.46c-.22.6-.45 1.65-.48 3.36.05-.1.08-.19.11-.28.29-.82.45-1.57.45-2.22 0-.36-.03-.65-.07-.86zm.98-43.4c-36.23 0-65.59 29.37-65.59 65.59s29.36 65.6 65.59 65.6 65.59-29.37 65.59-65.6-29.36-65.59-65.59-65.59zM296.07 262a9.09 9.09 0 0 1-9.09 9.09h-60.91a9.09 9.09 0 0 1-9.09-9.09v-13.38c0-2.33.9-4.57 2.5-6.25l27.76-29.25c.45-.51.86-1 1.26-1.47-.98.36-2.05.56-3.16.56h-20.4c-3.92 0-7.39-2.5-8.63-6.22l-.12-.35c-.28-.86-.45-1.76-.46-2.67-.15-6.98 1.41-13.44 4.65-19.18 3.26-5.8 8.01-10.44 14.08-13.78 5.94-3.28 12.88-4.94 20.63-4.94s14.31 1.39 20 4.15c6.02 2.93 10.75 7.14 14.06 12.53 3.28 5.34 4.95 11.55 4.95 18.46 0 4.73-.83 9.18-2.47 13.25-1.56 3.86-3.95 7.76-7.31 11.91-1.13 1.4-2.4 2.91-3.82 4.53h6.47a9.09 9.09 0 0 1 9.09 9.09v23.02zm-25.63-15.82h-17.19l-.12-.3 13.09-13.85c4.6-4.84 8.27-8.96 11.03-12.37 2.75-3.41 4.74-6.61 5.95-9.61 1.21-2.99 1.81-6.27 1.81-9.85 0-5.23-1.2-9.8-3.6-13.71-2.4-3.9-5.83-6.94-10.29-9.1-4.45-2.16-9.8-3.24-16.03-3.24s-11.64 1.26-16.24 3.8c-4.6 2.55-8.12 5.97-10.55 10.29-2.45 4.33-3.6 9.16-3.48 14.52l.12.35h20.4c0-3.93.79-7.05 2.38-9.37 1.58-2.32 4.03-3.47 7.32-3.47 3.01 0 5.27.98 6.77 2.95 1.51 1.95 2.26 4.35 2.26 7.16 0 1.71-.33 3.47-.98 5.29-.65 1.83-1.72 3.83-3.18 6.01s-3.45 4.7-5.95 7.55l-27.9 29.38v13.38h60.91v-23.02h-15.65l-.89 7.2zm-15.53-46.66c-.22.6-.45 1.65-.48 3.36.05-.1.08-.19.11-.28.29-.82.45-1.57.45-2.22 0-.36-.03-.65-.07-.86zm0 0c-.22.6-.45 1.65-.48 3.36.05-.1.08-.19.11-.28.29-.82.45-1.57.45-2.22 0-.36-.03-.65-.07-.86zm16.42 39.46-.89 7.2h-17.19l-.12-.3 13.09-13.85c4.6-4.84 8.27-8.96 11.03-12.37 2.75-3.41 4.74-6.61 5.95-9.61 1.21-2.99 1.81-6.27 1.81-9.85 0-5.23-1.2-9.8-3.6-13.71-2.4-3.9-5.83-6.94-10.29-9.1-4.45-2.16-9.8-3.24-16.03-3.24s-11.64 1.26-16.24 3.8c-4.6 2.55-8.12 5.97-10.55 10.29-2.45 4.33-3.6 9.16-3.48 14.52l.12.35h20.4c0-3.93.79-7.05 2.38-9.37 1.58-2.32 4.03-3.47 7.32-3.47 3.01 0 5.27.98 6.77 2.95 1.51 1.95 2.26 4.35 2.26 7.16 0 1.71-.33 3.47-.98 5.29-.65 1.83-1.72 3.83-3.18 6.01s-3.45 4.7-5.95 7.55l-27.9 29.38v13.38h60.91v-23.02h-15.65zm0 0-.89 7.2h-17.19l-.12-.3 13.09-13.85c4.6-4.84 8.27-8.96 11.03-12.37 2.75-3.41 4.74-6.61 5.95-9.61 1.21-2.99 1.81-6.27 1.81-9.85 0-5.23-1.2-9.8-3.6-13.71-2.4-3.9-5.83-6.94-10.29-9.1-4.45-2.16-9.8-3.24-16.03-3.24s-11.64 1.26-16.24 3.8c-4.6 2.55-8.12 5.97-10.55 10.29-2.45 4.33-3.6 9.16-3.48 14.52l.12.35h20.4c0-3.93.79-7.05 2.38-9.37 1.58-2.32 4.03-3.47 7.32-3.47 3.01 0 5.27.98 6.77 2.95 1.51 1.95 2.26 4.35 2.26 7.16 0 1.71-.33 3.47-.98 5.29-.65 1.83-1.72 3.83-3.18 6.01s-3.45 4.7-5.95 7.55l-27.9 29.38v13.38h60.91v-23.02h-15.65zm-16.42-39.46c-.22.6-.45 1.65-.48 3.36.05-.1.08-.19.11-.28.29-.82.45-1.57.45-2.22 0-.36-.03-.65-.07-.86zm.98-43.4c-36.23 0-65.59 29.37-65.59 65.59s29.36 65.6 65.59 65.6 65.59-29.37 65.59-65.6-29.36-65.59-65.59-65.59zM296.06 262a9.09 9.09 0 0 1-9.09 9.09h-60.91a9.09 9.09 0 0 1-9.09-9.09v-13.38c0-2.33.9-4.57 2.5-6.25l27.76-29.25c.45-.51.86-1 1.26-1.47-.98.36-2.05.56-3.16.56h-20.4c-3.92 0-7.39-2.5-8.63-6.22l-.12-.35c-.28-.86-.45-1.76-.46-2.67-.15-6.98 1.41-13.44 4.65-19.18 3.26-5.8 8.01-10.44 14.08-13.78 5.94-3.28 12.88-4.94 20.63-4.94s14.31 1.39 20 4.15c6.02 2.93 10.75 7.14 14.06 12.53 3.28 5.34 4.95 11.55 4.95 18.46 0 4.73-.83 9.18-2.47 13.25-1.56 3.86-3.95 7.76-7.31 11.91-1.13 1.4-2.4 2.91-3.82 4.53h6.47a9.09 9.09 0 0 1 9.09 9.09v23.02zm-25.63-15.82h-17.19l-.12-.3 13.09-13.85c4.6-4.84 8.27-8.96 11.03-12.37 2.75-3.41 4.74-6.61 5.95-9.61 1.21-2.99 1.81-6.27 1.81-9.85 0-5.23-1.2-9.8-3.6-13.71-2.4-3.9-5.83-6.94-10.29-9.1-4.45-2.16-9.8-3.24-16.03-3.24s-11.64 1.26-16.24 3.8c-4.6 2.55-8.12 5.97-10.55 10.29-2.45 4.33-3.6 9.16-3.48 14.52l.12.35h20.4c0-3.93.79-7.05 2.38-9.37 1.58-2.32 4.03-3.47 7.32-3.47 3.01 0 5.27.98 6.77 2.95 1.51 1.95 2.26 4.35 2.26 7.16 0 1.71-.33 3.47-.98 5.29-.65 1.83-1.72 3.83-3.18 6.01s-3.45 4.7-5.95 7.55l-27.9 29.38v13.38h60.91v-23.02h-15.65l-.89 7.2zm-15.53-46.66c-.22.6-.45 1.65-.48 3.36.05-.1.08-.19.11-.28.29-.82.45-1.57.45-2.22 0-.36-.03-.65-.07-.86zm153.01-16.65c-10.25-2.58-27.79-5.55-44.73-1.68v25.77c.57-.02 1.15-.04 1.73-.04 15.08 0 29.28 5.24 40.29 10.93 4.71-8.57 7.7-17.08 9.47-23.22 1.55-5.39-1.31-10.39-6.76-11.76zm-19.25-48.93c-7.45.13-18.46 1.02-29.69 4.38 2.73 5.74 4.21 12.11 4.21 18.76v14.8c5.48-1.1 11.29-1.66 17.44-1.66 4.86 0 9.55.35 13.85.89 2.87-10.48 3.66-20.6 3.78-27.58.1-5.62-3.97-9.69-9.59-9.59zm-265.56 0c-5.62-.1-9.69 3.97-9.59 9.59.12 6.98.91 17.1 3.78 27.58 4.31-.54 8.99-.89 13.85-.89 6.15 0 11.95.56 17.44 1.66v-14.8c0-6.65 1.48-13.03 4.21-18.76-11.23-3.37-22.24-4.25-29.69-4.38zm-19.25 48.93c-5.45 1.37-8.32 6.37-6.76 11.76 1.77 6.14 4.76 14.65 9.47 23.22 11-5.69 25.21-10.93 40.29-10.93.58 0 1.15.03 1.73.05V181.2c-16.94-3.87-34.48-.91-44.73 1.67zm44.73 57.88v-24.69c-21.25-.65-41.15 10.89-51.49 18.15-4.6 3.23-5.49 8.92-2.11 13.41 5.58 7.38 15.34 18.53 28.18 26.28 5.68-9.48 14.08-20.71 25.48-29.19-.05-1.32-.06-2.64-.06-3.96zm.85 15.01c-11.28 10-18.89 22.81-23.05 31.14-2.5 5.03-.58 10.45 4.53 12.79 8.99 4.11 24.2 9.71 40.33 9.8-12.15-15.32-19.45-33.29-21.81-53.73zm170.32 120.91H192.02c-10.49 0-18.99 8.5-18.99 18.98s8.5 18.99 18.99 18.99h127.73c10.49 0 18.99-8.5 18.99-18.99s-8.5-18.98-18.99-18.98zm-16.26-36.51c-14.51 7.99-28.29 12.36-36.75 14.54a43.665 43.665 0 0 1-21.7 0c-8.45-2.17-22.24-6.55-36.75-14.54-4.52 2.27-7.64 6.94-7.64 12.35v15.07h110.47v-15.07c0-5.41-3.12-10.07-7.64-12.35zm-48.58-140.64c-.22.6-.45 1.65-.48 3.36.05-.1.08-.19.11-.28.29-.82.45-1.57.45-2.22 0-.36-.03-.65-.07-.86zm16.42 39.46-.89 7.2h-17.19l-.12-.3 13.09-13.85c4.6-4.84 8.27-8.96 11.03-12.37 2.75-3.41 4.74-6.61 5.95-9.61 1.21-2.99 1.81-6.27 1.81-9.85 0-5.23-1.2-9.8-3.6-13.71-2.4-3.9-5.83-6.94-10.29-9.1-4.45-2.16-9.8-3.24-16.03-3.24s-11.64 1.26-16.24 3.8c-4.6 2.55-8.12 5.97-10.55 10.29-2.45 4.33-3.6 9.16-3.48 14.52l.12.35h20.4c0-3.93.79-7.05 2.38-9.37 1.58-2.32 4.03-3.47 7.32-3.47 3.01 0 5.27.98 6.77 2.95 1.51 1.95 2.26 4.35 2.26 7.16 0 1.71-.33 3.47-.98 5.29-.65 1.83-1.72 3.83-3.18 6.01s-3.45 4.7-5.95 7.55l-27.9 29.38v13.38h60.91v-23.02h-15.65zm0 0-.89 7.2h-17.19l-.12-.3 13.09-13.85c4.6-4.84 8.27-8.96 11.03-12.37 2.75-3.41 4.74-6.61 5.95-9.61 1.21-2.99 1.81-6.27 1.81-9.85 0-5.23-1.2-9.8-3.6-13.71-2.4-3.9-5.83-6.94-10.29-9.1-4.45-2.16-9.8-3.24-16.03-3.24s-11.64 1.26-16.24 3.8c-4.6 2.55-8.12 5.97-10.55 10.29-2.45 4.33-3.6 9.16-3.48 14.52l.12.35h20.4c0-3.93.79-7.05 2.38-9.37 1.58-2.32 4.03-3.47 7.32-3.47 3.01 0 5.27.98 6.77 2.95 1.51 1.95 2.26 4.35 2.26 7.16 0 1.71-.33 3.47-.98 5.29-.65 1.83-1.72 3.83-3.18 6.01s-3.45 4.7-5.95 7.55l-27.9 29.38v13.38h60.91v-23.02h-15.65zm-16.42-39.46c-.22.6-.45 1.65-.48 3.36.05-.1.08-.19.11-.28.29-.82.45-1.57.45-2.22 0-.36-.03-.65-.07-.86zm71.22-58.41-63.69-26.1c-2.09-.86-4.29-1.29-6.55-1.29s-4.45.43-6.55 1.29l-63.69 26.1a17.198 17.198 0 0 0-10.72 15.97v83.66c0 26.97 9.96 48.91 29.6 65.2 16.91 14.03 36.75 20.57 47.06 23.22 1.4.36 2.85.55 4.29.55s2.89-.18 4.29-.55c10.33-2.65 30.16-9.19 47.06-23.22 19.64-16.29 29.6-38.23 29.6-65.2v-83.66c0-7.04-4.21-13.31-10.72-15.97zM255.89 296.4c-41.18 0-74.68-33.51-74.68-74.69s33.5-74.68 74.68-74.68 74.68 33.51 74.68 74.68-33.5 74.69-74.68 74.69zm0-140.28c-36.23 0-65.59 29.37-65.59 65.59s29.36 65.6 65.59 65.6 65.59-29.37 65.59-65.6-29.36-65.59-65.59-65.59zM296.06 262a9.09 9.09 0 0 1-9.09 9.09h-60.91a9.09 9.09 0 0 1-9.09-9.09v-13.38c0-2.33.9-4.57 2.5-6.25l27.76-29.25c.45-.51.86-1 1.26-1.47-.98.36-2.05.56-3.16.56h-20.4c-3.92 0-7.39-2.5-8.63-6.22l-.12-.35c-.28-.86-.45-1.76-.46-2.67-.15-6.98 1.41-13.44 4.65-19.18 3.26-5.8 8.01-10.44 14.08-13.78 5.94-3.28 12.88-4.94 20.63-4.94s14.31 1.39 20 4.15c6.02 2.93 10.75 7.14 14.06 12.53 3.28 5.34 4.95 11.55 4.95 18.46 0 4.73-.83 9.18-2.47 13.25-1.56 3.86-3.95 7.76-7.31 11.91-1.13 1.4-2.4 2.91-3.82 4.53h6.47a9.09 9.09 0 0 1 9.09 9.09v23.02zm-25.63-15.82h-17.19l-.12-.3 13.09-13.85c4.6-4.84 8.27-8.96 11.03-12.37 2.75-3.41 4.74-6.61 5.95-9.61 1.21-2.99 1.81-6.27 1.81-9.85 0-5.23-1.2-9.8-3.6-13.71-2.4-3.9-5.83-6.94-10.29-9.1-4.45-2.16-9.8-3.24-16.03-3.24s-11.64 1.26-16.24 3.8c-4.6 2.55-8.12 5.97-10.55 10.29-2.45 4.33-3.6 9.16-3.48 14.52l.12.35h20.4c0-3.93.79-7.05 2.38-9.37 1.58-2.32 4.03-3.47 7.32-3.47 3.01 0 5.27.98 6.77 2.95 1.51 1.95 2.26 4.35 2.26 7.16 0 1.71-.33 3.47-.98 5.29-.65 1.83-1.72 3.83-3.18 6.01s-3.45 4.7-5.95 7.55l-27.9 29.38v13.38h60.91v-23.02h-15.65l-.89 7.2zm-15.53-46.66c-.22.6-.45 1.65-.48 3.36.05-.1.08-.19.11-.28.29-.82.45-1.57.45-2.22 0-.36-.03-.65-.07-.86zm71.22-58.41-63.69-26.1c-2.09-.86-4.29-1.29-6.55-1.29s-4.45.43-6.55 1.29l-63.69 26.1a17.198 17.198 0 0 0-10.72 15.97v83.66c0 26.97 9.96 48.91 29.6 65.2 16.91 14.03 36.75 20.57 47.06 23.22 1.4.36 2.85.55 4.29.55s2.89-.18 4.29-.55c10.33-2.65 30.16-9.19 47.06-23.22 19.64-16.29 29.6-38.23 29.6-65.2v-83.66c0-7.04-4.21-13.31-10.72-15.97zM255.88 296.4c-41.18 0-74.68-33.51-74.68-74.69s33.5-74.68 74.68-74.68 74.68 33.51 74.68 74.68-33.5 74.69-74.68 74.69zm0-140.28c-36.23 0-65.59 29.37-65.59 65.59s29.36 65.6 65.59 65.6 65.59-29.37 65.59-65.6-29.36-65.59-65.59-65.59zM296.05 262a9.09 9.09 0 0 1-9.09 9.09h-60.91a9.09 9.09 0 0 1-9.09-9.09v-13.38c0-2.33.9-4.57 2.5-6.25l27.76-29.25c.45-.51.86-1 1.26-1.47-.98.36-2.05.56-3.16.56h-20.4c-3.92 0-7.39-2.5-8.63-6.22l-.12-.35c-.28-.86-.45-1.76-.46-2.67-.15-6.98 1.41-13.44 4.65-19.18 3.26-5.8 8.01-10.44 14.08-13.78 5.94-3.28 12.88-4.94 20.63-4.94s14.31 1.39 20 4.15c6.02 2.93 10.75 7.14 14.06 12.53 3.28 5.34 4.95 11.55 4.95 18.46 0 4.73-.83 9.18-2.47 13.25-1.56 3.86-3.95 7.76-7.31 11.91-1.13 1.4-2.4 2.91-3.82 4.53h6.47a9.09 9.09 0 0 1 9.09 9.09v23.02zm-25.63-15.82h-17.19l-.12-.3 13.09-13.85c4.6-4.84 8.27-8.96 11.03-12.37 2.75-3.41 4.74-6.61 5.95-9.61 1.21-2.99 1.81-6.27 1.81-9.85 0-5.23-1.2-9.8-3.6-13.71-2.4-3.9-5.83-6.94-10.29-9.1-4.45-2.16-9.8-3.24-16.03-3.24s-11.64 1.26-16.24 3.8c-4.6 2.55-8.12 5.97-10.55 10.29-2.45 4.33-3.6 9.16-3.48 14.52l.12.35h20.4c0-3.93.79-7.05 2.38-9.37 1.58-2.32 4.03-3.47 7.32-3.47 3.01 0 5.27.98 6.77 2.95 1.51 1.95 2.26 4.35 2.26 7.16 0 1.71-.33 3.47-.98 5.29-.65 1.83-1.72 3.83-3.18 6.01s-3.45 4.7-5.95 7.55l-27.9 29.38v13.38h60.91v-23.02H271.3l-.89 7.2zm-15.53-46.66c-.22.6-.45 1.65-.48 3.36.05-.1.08-.19.11-.28.29-.82.45-1.57.45-2.22 0-.36-.03-.65-.07-.86zm77.76-74.38-63.69-26.1a34.404 34.404 0 0 0-26.18 0l-63.69 26.1c-12.96 5.31-21.43 17.94-21.43 31.95v83.66c0 75.26 65.69 98.99 89.62 105.14a34.47 34.47 0 0 0 17.18 0c23.93-6.15 89.62-29.87 89.62-105.14v-83.66c0-14.01-8.46-26.64-21.43-31.95zm13.26 115.61c0 29.8-11.06 54.09-32.89 72.2-18.26 15.15-39.55 22.18-50.6 25.03a26.312 26.312 0 0 1-13.11 0c-11.05-2.85-32.33-9.87-50.59-25.03-21.83-18.11-32.89-42.4-32.89-72.2v-83.66c0-10.75 6.43-20.31 16.36-24.38l63.69-26.11c3.19-1.3 6.55-1.96 9.99-1.96s6.8.66 9.99 1.96l63.69 26.11a26.259 26.259 0 0 1 16.36 24.38zm-19.81-99.64-63.69-26.1c-2.09-.86-4.29-1.29-6.55-1.29s-4.45.43-6.55 1.29l-63.69 26.1a17.198 17.198 0 0 0-10.72 15.97v83.66c0 26.97 9.96 48.91 29.6 65.2 16.91 14.03 36.75 20.57 47.06 23.22 1.4.36 2.85.55 4.29.55s2.89-.18 4.29-.55c10.33-2.65 30.16-9.19 47.06-23.22 19.64-16.29 29.6-38.23 29.6-65.2v-83.66c0-7.04-4.21-13.31-10.72-15.97zM255.86 296.4c-41.18 0-74.68-33.51-74.68-74.69s33.5-74.68 74.68-74.68 74.68 33.51 74.68 74.68-33.5 74.69-74.68 74.69zm0-140.28c-36.23 0-65.59 29.37-65.59 65.59s29.36 65.6 65.59 65.6 65.59-29.37 65.59-65.6-29.36-65.59-65.59-65.59zM296.03 262a9.09 9.09 0 0 1-9.09 9.09h-60.91a9.09 9.09 0 0 1-9.09-9.09v-13.38c0-2.33.9-4.57 2.5-6.25l27.76-29.25c.45-.51.86-1 1.26-1.47-.98.36-2.05.56-3.16.56h-20.4c-3.92 0-7.39-2.5-8.63-6.22l-.12-.35c-.28-.86-.45-1.76-.46-2.67-.15-6.98 1.41-13.44 4.65-19.18 3.26-5.8 8.01-10.44 14.08-13.78 5.94-3.28 12.88-4.94 20.63-4.94s14.31 1.39 20 4.15c6.02 2.93 10.75 7.14 14.06 12.53 3.28 5.34 4.95 11.55 4.95 18.46 0 4.73-.83 9.18-2.47 13.25-1.56 3.86-3.95 7.76-7.31 11.91-1.13 1.4-2.4 2.91-3.82 4.53h6.47a9.09 9.09 0 0 1 9.09 9.09v23.02zm-25.63-15.82h-17.19l-.12-.3 13.09-13.85c4.6-4.84 8.27-8.96 11.03-12.37 2.75-3.41 4.74-6.61 5.95-9.61 1.21-2.99 1.81-6.27 1.81-9.85 0-5.23-1.2-9.8-3.6-13.71-2.4-3.9-5.83-6.94-10.29-9.1-4.45-2.16-9.8-3.24-16.03-3.24s-11.64 1.26-16.24 3.8c-4.6 2.55-8.12 5.97-10.55 10.29-2.45 4.33-3.6 9.16-3.48 14.52l.12.35h20.4c0-3.93.79-7.05 2.38-9.37 1.58-2.32 4.03-3.47 7.32-3.47 3.01 0 5.27.98 6.77 2.95 1.51 1.95 2.26 4.35 2.26 7.16 0 1.71-.33 3.47-.98 5.29-.65 1.83-1.72 3.83-3.18 6.01s-3.45 4.7-5.95 7.55l-27.9 29.38v13.38h60.91v-23.02h-15.65l-.89 7.2zm-15.53-46.66c-.22.6-.45 1.65-.48 3.36.05-.1.08-.19.11-.28.29-.82.45-1.57.45-2.22 0-.36-.03-.65-.07-.86zm130.48 87.37c-4.15-8.32-11.76-21.13-23.05-31.13-2.36 20.44-9.66 38.4-21.81 53.72 16.13-.09 31.34-5.7 40.33-9.8 5.11-2.34 7.03-7.76 4.53-12.79zm29.29-52.68c-10.35-7.26-30.25-18.8-51.49-18.15v24.69c0 1.34-.02 2.65-.06 3.97 11.39 8.49 19.8 19.71 25.49 29.18 12.84-7.76 22.59-18.9 28.17-26.28 3.38-4.49 2.49-10.18-2.11-13.41zm-159.77-34.69c-.22.6-.45 1.65-.48 3.36.05-.1.08-.19.11-.28.29-.82.45-1.57.45-2.22 0-.36-.03-.65-.07-.86zm16.42 39.46-.89 7.2h-17.19l-.12-.3 13.09-13.85c4.6-4.84 8.27-8.96 11.03-12.37 2.75-3.41 4.74-6.61 5.95-9.61 1.21-2.99 1.81-6.27 1.81-9.85 0-5.23-1.2-9.8-3.6-13.71-2.4-3.9-5.83-6.94-10.29-9.1-4.45-2.16-9.8-3.24-16.03-3.24s-11.64 1.26-16.24 3.8c-4.6 2.55-8.12 5.97-10.55 10.29-2.45 4.33-3.6 9.16-3.48 14.52l.12.35h20.4c0-3.93.79-7.05 2.38-9.37 1.58-2.32 4.03-3.47 7.32-3.47 3.01 0 5.27.98 6.77 2.95 1.51 1.95 2.26 4.35 2.26 7.16 0 1.71-.33 3.47-.98 5.29-.65 1.83-1.72 3.83-3.18 6.01s-3.45 4.7-5.95 7.55l-27.9 29.38v13.38h60.91v-23.02h-15.65zm0 0-.89 7.2h-17.19l-.12-.3 13.09-13.85c4.6-4.84 8.27-8.96 11.03-12.37 2.75-3.41 4.74-6.61 5.95-9.61 1.21-2.99 1.81-6.27 1.81-9.85 0-5.23-1.2-9.8-3.6-13.71-2.4-3.9-5.83-6.94-10.29-9.1-4.45-2.16-9.8-3.24-16.03-3.24s-11.64 1.26-16.24 3.8c-4.6 2.55-8.12 5.97-10.55 10.29-2.45 4.33-3.6 9.16-3.48 14.52l.12.35h20.4c0-3.93.79-7.05 2.38-9.37 1.58-2.32 4.03-3.47 7.32-3.47 3.01 0 5.27.98 6.77 2.95 1.51 1.95 2.26 4.35 2.26 7.16 0 1.71-.33 3.47-.98 5.29-.65 1.83-1.72 3.83-3.18 6.01s-3.45 4.7-5.95 7.55l-27.9 29.38v13.38h60.91v-23.02h-15.65zm-16.42-39.46c-.22.6-.45 1.65-.48 3.36.05-.1.08-.19.11-.28.29-.82.45-1.57.45-2.22 0-.36-.03-.65-.07-.86zm71.22-58.41-63.69-26.1c-2.09-.86-4.29-1.29-6.55-1.29s-4.45.43-6.55 1.29l-63.69 26.1a17.198 17.198 0 0 0-10.72 15.97v83.66c0 26.97 9.96 48.91 29.6 65.2 16.91 14.03 36.75 20.57 47.06 23.22 1.4.36 2.85.55 4.29.55s2.89-.18 4.29-.55c10.33-2.65 30.16-9.19 47.06-23.22 19.64-16.29 29.6-38.23 29.6-65.2v-83.66c0-7.04-4.21-13.31-10.72-15.97zM255.85 296.4c-41.18 0-74.68-33.51-74.68-74.69s33.5-74.68 74.68-74.68 74.68 33.51 74.68 74.68-33.5 74.69-74.68 74.69zm0-140.28c-36.23 0-65.59 29.37-65.59 65.59s29.36 65.6 65.59 65.6 65.59-29.37 65.59-65.6-29.36-65.59-65.59-65.59zM296.02 262a9.09 9.09 0 0 1-9.09 9.09h-60.91a9.09 9.09 0 0 1-9.09-9.09v-13.38c0-2.33.9-4.57 2.5-6.25l27.76-29.25c.45-.51.86-1 1.26-1.47-.98.36-2.05.56-3.16.56h-20.4c-3.92 0-7.39-2.5-8.63-6.22l-.12-.35c-.28-.86-.45-1.76-.46-2.67-.15-6.98 1.41-13.44 4.65-19.18 3.26-5.8 8.01-10.44 14.08-13.78 5.94-3.28 12.88-4.94 20.63-4.94s14.31 1.39 20 4.15c6.02 2.93 10.75 7.14 14.06 12.53 3.28 5.34 4.95 11.55 4.95 18.46 0 4.73-.83 9.18-2.47 13.25-1.56 3.86-3.95 7.76-7.31 11.91-1.13 1.4-2.4 2.91-3.82 4.53h6.47a9.09 9.09 0 0 1 9.09 9.09v23.02zm-25.63-15.82H253.2l-.12-.3 13.09-13.85c4.6-4.84 8.27-8.96 11.03-12.37 2.75-3.41 4.74-6.61 5.95-9.61 1.21-2.99 1.81-6.27 1.81-9.85 0-5.23-1.2-9.8-3.6-13.71-2.4-3.9-5.83-6.94-10.29-9.1-4.45-2.16-9.8-3.24-16.03-3.24s-11.64 1.26-16.24 3.8c-4.6 2.55-8.12 5.97-10.55 10.29-2.45 4.33-3.6 9.16-3.48 14.52l.12.35h20.4c0-3.93.79-7.05 2.38-9.37 1.58-2.32 4.03-3.47 7.32-3.47 3.01 0 5.27.98 6.77 2.95 1.51 1.95 2.26 4.35 2.26 7.16 0 1.71-.33 3.47-.98 5.29-.65 1.83-1.72 3.83-3.18 6.01s-3.45 4.7-5.95 7.55l-27.9 29.38v13.38h60.91v-23.02h-15.65l-.89 7.2zm-15.53-46.66c-.22.6-.45 1.65-.48 3.36.05-.1.08-.19.11-.28.29-.82.45-1.57.45-2.22 0-.36-.03-.65-.07-.86zm0 0c-.22.6-.45 1.65-.48 3.36.05-.1.08-.19.11-.28.29-.82.45-1.57.45-2.22 0-.36-.03-.65-.07-.86zm16.42 39.46-.89 7.2H253.2l-.12-.3 13.09-13.85c4.6-4.84 8.27-8.96 11.03-12.37 2.75-3.41 4.74-6.61 5.95-9.61 1.21-2.99 1.81-6.27 1.81-9.85 0-5.23-1.2-9.8-3.6-13.71-2.4-3.9-5.83-6.94-10.29-9.1-4.45-2.16-9.8-3.24-16.03-3.24s-11.64 1.26-16.24 3.8c-4.6 2.55-8.12 5.97-10.55 10.29-2.45 4.33-3.6 9.16-3.48 14.52l.12.35h20.4c0-3.93.79-7.05 2.38-9.37 1.58-2.32 4.03-3.47 7.32-3.47 3.01 0 5.27.98 6.77 2.95 1.51 1.95 2.26 4.35 2.26 7.16 0 1.71-.33 3.47-.98 5.29-.65 1.83-1.72 3.83-3.18 6.01s-3.45 4.7-5.95 7.55l-27.9 29.38v13.38h60.91v-23.02h-15.65zm0 0-.89 7.2H253.2l-.12-.3 13.09-13.85c4.6-4.84 8.27-8.96 11.03-12.37 2.75-3.41 4.74-6.61 5.95-9.61 1.21-2.99 1.81-6.27 1.81-9.85 0-5.23-1.2-9.8-3.6-13.71-2.4-3.9-5.83-6.94-10.29-9.1-4.45-2.16-9.8-3.24-16.03-3.24s-11.64 1.26-16.24 3.8c-4.6 2.55-8.12 5.97-10.55 10.29-2.45 4.33-3.6 9.16-3.48 14.52l.12.35h20.4c0-3.93.79-7.05 2.38-9.37 1.58-2.32 4.03-3.47 7.32-3.47 3.01 0 5.27.98 6.77 2.95 1.51 1.95 2.26 4.35 2.26 7.16 0 1.71-.33 3.47-.98 5.29-.65 1.83-1.72 3.83-3.18 6.01s-3.45 4.7-5.95 7.55l-27.9 29.38v13.38h60.91v-23.02h-15.65zm-16.42-39.46c-.22.6-.45 1.65-.48 3.36.05-.1.08-.19.11-.28.29-.82.45-1.57.45-2.22 0-.36-.03-.65-.07-.86zm71.22-58.41-63.69-26.1c-2.09-.86-4.29-1.29-6.55-1.29s-4.45.43-6.55 1.29l-63.69 26.1a17.198 17.198 0 0 0-10.72 15.97v83.66c0 26.97 9.96 48.91 29.6 65.2 16.91 14.03 36.75 20.57 47.06 23.22 1.4.36 2.85.55 4.29.55s2.89-.18 4.29-.55c10.33-2.65 30.16-9.19 47.06-23.22 19.64-16.29 29.6-38.23 29.6-65.2v-83.66c0-7.04-4.21-13.31-10.72-15.97zM255.84 296.4c-41.18 0-74.68-33.51-74.68-74.69s33.5-74.68 74.68-74.68 74.68 33.51 74.68 74.68-33.5 74.69-74.68 74.69zm0-140.28c-36.23 0-65.59 29.37-65.59 65.59s29.36 65.6 65.59 65.6 65.59-29.37 65.59-65.6-29.36-65.59-65.59-65.59zM296.01 262a9.09 9.09 0 0 1-9.09 9.09h-60.91a9.09 9.09 0 0 1-9.09-9.09v-13.38c0-2.33.9-4.57 2.5-6.25l27.76-29.25c.45-.51.86-1 1.26-1.47-.98.36-2.05.56-3.16.56h-20.4c-3.92 0-7.39-2.5-8.63-6.22l-.12-.35c-.28-.86-.45-1.76-.46-2.67-.15-6.98 1.41-13.44 4.65-19.18 3.26-5.8 8.01-10.44 14.08-13.78 5.94-3.28 12.88-4.94 20.63-4.94s14.31 1.39 20 4.15c6.02 2.93 10.75 7.14 14.06 12.53 3.28 5.34 4.95 11.55 4.95 18.46 0 4.73-.83 9.18-2.47 13.25-1.56 3.86-3.95 7.76-7.31 11.91-1.13 1.4-2.4 2.91-3.82 4.53h6.47a9.09 9.09 0 0 1 9.09 9.09v23.02zm-25.63-15.82h-17.19l-.12-.3 13.09-13.85c4.6-4.84 8.27-8.96 11.03-12.37 2.75-3.41 4.74-6.61 5.95-9.61 1.21-2.99 1.81-6.27 1.81-9.85 0-5.23-1.2-9.8-3.6-13.71-2.4-3.9-5.83-6.94-10.29-9.1-4.45-2.16-9.8-3.24-16.03-3.24s-11.64 1.26-16.24 3.8c-4.6 2.55-8.12 5.97-10.55 10.29-2.45 4.33-3.6 9.16-3.48 14.52l.12.35h20.4c0-3.93.79-7.05 2.38-9.37 1.58-2.32 4.03-3.47 7.32-3.47 3.01 0 5.27.98 6.77 2.95 1.51 1.95 2.26 4.35 2.26 7.16 0 1.71-.33 3.47-.98 5.29-.65 1.83-1.72 3.83-3.18 6.01s-3.45 4.7-5.95 7.55L226 248.61v13.38h60.91v-23.02h-15.65l-.89 7.2zm-15.53-46.66c-.22.6-.45 1.65-.48 3.36.05-.1.08-.19.11-.28.29-.82.45-1.57.45-2.22 0-.36-.03-.65-.07-.86zm0 0c-.22.6-.45 1.65-.48 3.36.05-.1.08-.19.11-.28.29-.82.45-1.57.45-2.22 0-.36-.03-.65-.07-.86zm16.42 39.46-.89 7.2h-17.19l-.12-.3 13.09-13.85c4.6-4.84 8.27-8.96 11.03-12.37 2.75-3.41 4.74-6.61 5.95-9.61 1.21-2.99 1.81-6.27 1.81-9.85 0-5.23-1.2-9.8-3.6-13.71-2.4-3.9-5.83-6.94-10.29-9.1-4.45-2.16-9.8-3.24-16.03-3.24s-11.64 1.26-16.24 3.8c-4.6 2.55-8.12 5.97-10.55 10.29-2.45 4.33-3.6 9.16-3.48 14.52l.12.35h20.4c0-3.93.79-7.05 2.38-9.37 1.58-2.32 4.03-3.47 7.32-3.47 3.01 0 5.27.98 6.77 2.95 1.51 1.95 2.26 4.35 2.26 7.16 0 1.71-.33 3.47-.98 5.29-.65 1.83-1.72 3.83-3.18 6.01s-3.45 4.7-5.95 7.55L226 248.61v13.38h60.91v-23.02h-15.65zm0 0-.89 7.2h-17.19l-.12-.3 13.09-13.85c4.6-4.84 8.27-8.96 11.03-12.37 2.75-3.41 4.74-6.61 5.95-9.61 1.21-2.99 1.81-6.27 1.81-9.85 0-5.23-1.2-9.8-3.6-13.71-2.4-3.9-5.83-6.94-10.29-9.1-4.45-2.16-9.8-3.24-16.03-3.24s-11.64 1.26-16.24 3.8c-4.6 2.55-8.12 5.97-10.55 10.29-2.45 4.33-3.6 9.16-3.48 14.52l.12.35h20.4c0-3.93.79-7.05 2.38-9.37 1.58-2.32 4.03-3.47 7.32-3.47 3.01 0 5.27.98 6.77 2.95 1.51 1.95 2.26 4.35 2.26 7.16 0 1.71-.33 3.47-.98 5.29-.65 1.83-1.72 3.83-3.18 6.01s-3.45 4.7-5.95 7.55L226 248.61v13.38h60.91v-23.02h-15.65zm-16.42-39.46c-.22.6-.45 1.65-.48 3.36.05-.1.08-.19.11-.28.29-.82.45-1.57.45-2.22 0-.36-.03-.65-.07-.86zm.98-43.4c-36.23 0-65.59 29.37-65.59 65.59s29.36 65.6 65.59 65.6 65.59-29.37 65.59-65.6-29.36-65.59-65.59-65.59zM296 262a9.09 9.09 0 0 1-9.09 9.09H226a9.09 9.09 0 0 1-9.09-9.09v-13.38c0-2.33.9-4.57 2.5-6.25l27.76-29.25c.45-.51.86-1 1.26-1.47-.98.36-2.05.56-3.16.56h-20.4c-3.92 0-7.39-2.5-8.63-6.22l-.12-.35c-.28-.86-.45-1.76-.46-2.67-.15-6.98 1.41-13.44 4.65-19.18 3.26-5.8 8.01-10.44 14.08-13.78 5.94-3.28 12.88-4.94 20.63-4.94s14.31 1.39 20 4.15c6.02 2.93 10.75 7.14 14.06 12.53 3.28 5.34 4.95 11.55 4.95 18.46 0 4.73-.83 9.18-2.47 13.25-1.56 3.86-3.95 7.76-7.31 11.91-1.13 1.4-2.4 2.91-3.82 4.53h6.47a9.09 9.09 0 0 1 9.09 9.09v23.02zm-25.63-15.82h-17.19l-.12-.3 13.09-13.85c4.6-4.84 8.27-8.96 11.03-12.37 2.75-3.41 4.74-6.61 5.95-9.61 1.21-2.99 1.81-6.27 1.81-9.85 0-5.23-1.2-9.8-3.6-13.71-2.4-3.9-5.83-6.94-10.29-9.1-4.45-2.16-9.8-3.24-16.03-3.24s-11.64 1.26-16.24 3.8c-4.6 2.55-8.12 5.97-10.55 10.29-2.45 4.33-3.6 9.16-3.48 14.52l.12.35h20.4c0-3.93.79-7.05 2.38-9.37 1.58-2.32 4.03-3.47 7.32-3.47 3.01 0 5.27.98 6.77 2.95 1.51 1.95 2.26 4.35 2.26 7.16 0 1.71-.33 3.47-.98 5.29-.65 1.83-1.72 3.83-3.18 6.01s-3.45 4.7-5.95 7.55l-27.9 29.38v13.38h60.91v-23.02h-15.65l-.89 7.2zm-15.53-46.66c-.22.6-.45 1.65-.48 3.36.05-.1.08-.19.11-.28.29-.82.45-1.57.45-2.22 0-.36-.03-.65-.07-.86zm0 0c-.22.6-.45 1.65-.48 3.36.05-.1.08-.19.11-.28.29-.82.45-1.57.45-2.22 0-.36-.03-.65-.07-.86zm16.42 39.46-.89 7.2h-17.19l-.12-.3 13.09-13.85c4.6-4.84 8.27-8.96 11.03-12.37 2.75-3.41 4.74-6.61 5.95-9.61 1.21-2.99 1.81-6.27 1.81-9.85 0-5.23-1.2-9.8-3.6-13.71-2.4-3.9-5.83-6.94-10.29-9.1-4.45-2.16-9.8-3.24-16.03-3.24s-11.64 1.26-16.24 3.8c-4.6 2.55-8.12 5.97-10.55 10.29-2.45 4.33-3.6 9.16-3.48 14.52l.12.35h20.4c0-3.93.79-7.05 2.38-9.37 1.58-2.32 4.03-3.47 7.32-3.47 3.01 0 5.27.98 6.77 2.95 1.51 1.95 2.26 4.35 2.26 7.16 0 1.71-.33 3.47-.98 5.29-.65 1.83-1.72 3.83-3.18 6.01s-3.45 4.7-5.95 7.55l-27.9 29.38v13.38h60.91v-23.02h-15.65zm0 0-.89 7.2h-17.19l-.12-.3 13.09-13.85c4.6-4.84 8.27-8.96 11.03-12.37 2.75-3.41 4.74-6.61 5.95-9.61 1.21-2.99 1.81-6.27 1.81-9.85 0-5.23-1.2-9.8-3.6-13.71-2.4-3.9-5.83-6.94-10.29-9.1-4.45-2.16-9.8-3.24-16.03-3.24s-11.64 1.26-16.24 3.8c-4.6 2.55-8.12 5.97-10.55 10.29-2.45 4.33-3.6 9.16-3.48 14.52l.12.35h20.4c0-3.93.79-7.05 2.38-9.37 1.58-2.32 4.03-3.47 7.32-3.47 3.01 0 5.27.98 6.77 2.95 1.51 1.95 2.26 4.35 2.26 7.16 0 1.71-.33 3.47-.98 5.29-.65 1.83-1.72 3.83-3.18 6.01s-3.45 4.7-5.95 7.55l-27.9 29.38v13.38h60.91v-23.02h-15.65zm-16.42-39.46c-.22.6-.45 1.65-.48 3.36.05-.1.08-.19.11-.28.29-.82.45-1.57.45-2.22 0-.36-.03-.65-.07-.86zm.98-43.4c-36.23 0-65.59 29.37-65.59 65.59s29.36 65.6 65.59 65.6 65.59-29.37 65.59-65.6-29.36-65.59-65.59-65.59zM295.99 262a9.09 9.09 0 0 1-9.09 9.09h-60.91a9.09 9.09 0 0 1-9.09-9.09v-13.38c0-2.33.9-4.57 2.5-6.25l27.76-29.25c.45-.51.86-1 1.26-1.47-.98.36-2.05.56-3.16.56h-20.4c-3.92 0-7.39-2.5-8.63-6.22l-.12-.35c-.28-.86-.45-1.76-.46-2.67-.15-6.98 1.41-13.44 4.65-19.18 3.26-5.8 8.01-10.44 14.08-13.78 5.94-3.28 12.88-4.94 20.63-4.94s14.31 1.39 20 4.15c6.02 2.93 10.75 7.14 14.06 12.53 3.28 5.34 4.95 11.55 4.95 18.46 0 4.73-.83 9.18-2.47 13.25-1.56 3.86-3.95 7.76-7.31 11.91-1.13 1.4-2.4 2.91-3.82 4.53h6.47a9.09 9.09 0 0 1 9.09 9.09v23.02zm-25.63-15.82h-17.19l-.12-.3 13.09-13.85c4.6-4.84 8.27-8.96 11.03-12.37 2.75-3.41 4.74-6.61 5.95-9.61 1.21-2.99 1.81-6.27 1.81-9.85 0-5.23-1.2-9.8-3.6-13.71-2.4-3.9-5.83-6.94-10.29-9.1-4.45-2.16-9.8-3.24-16.03-3.24s-11.64 1.26-16.24 3.8c-4.6 2.55-8.12 5.97-10.55 10.29-2.45 4.33-3.6 9.16-3.48 14.52l.12.35h20.4c0-3.93.79-7.05 2.38-9.37 1.58-2.32 4.03-3.47 7.32-3.47 3.01 0 5.27.98 6.77 2.95 1.51 1.95 2.26 4.35 2.26 7.16 0 1.71-.33 3.47-.98 5.29-.65 1.83-1.72 3.83-3.18 6.01s-3.45 4.7-5.95 7.55l-27.9 29.38v13.38h60.91v-23.02h-15.65l-.89 7.2zm-15.53-46.66c-.22.6-.45 1.65-.48 3.36.05-.1.08-.19.11-.28.29-.82.45-1.57.45-2.22 0-.36-.03-.65-.07-.86zm0 0c-.22.6-.45 1.65-.48 3.36.05-.1.08-.19.11-.28.29-.82.45-1.57.45-2.22 0-.36-.03-.65-.07-.86zm0 0c-.22.6-.45 1.65-.48 3.36.05-.1.08-.19.11-.28.29-.82.45-1.57.45-2.22 0-.36-.03-.65-.07-.86zm16.42 39.46-.89 7.2h-17.19l-.12-.3 13.09-13.85c4.6-4.84 8.27-8.96 11.03-12.37 2.75-3.41 4.74-6.61 5.95-9.61 1.21-2.99 1.81-6.27 1.81-9.85 0-5.23-1.2-9.8-3.6-13.71-2.4-3.9-5.83-6.94-10.29-9.1-4.45-2.16-9.8-3.24-16.03-3.24s-11.64 1.26-16.24 3.8c-4.6 2.55-8.12 5.97-10.55 10.29-2.45 4.33-3.6 9.16-3.48 14.52l.12.35h20.4c0-3.93.79-7.05 2.38-9.37 1.58-2.32 4.03-3.47 7.32-3.47 3.01 0 5.27.98 6.77 2.95 1.51 1.95 2.26 4.35 2.26 7.16 0 1.71-.33 3.47-.98 5.29-.65 1.83-1.72 3.83-3.18 6.01s-3.45 4.7-5.95 7.55l-27.9 29.38v13.38h60.91v-23.02h-15.65zm0 0-.89 7.2h-17.19l-.12-.3 13.09-13.85c4.6-4.84 8.27-8.96 11.03-12.37 2.75-3.41 4.74-6.61 5.95-9.61 1.21-2.99 1.81-6.27 1.81-9.85 0-5.23-1.2-9.8-3.6-13.71-2.4-3.9-5.83-6.94-10.29-9.1-4.45-2.16-9.8-3.24-16.03-3.24s-11.64 1.26-16.24 3.8c-4.6 2.55-8.12 5.97-10.55 10.29-2.45 4.33-3.6 9.16-3.48 14.52l.12.35h20.4c0-3.93.79-7.05 2.38-9.37 1.58-2.32 4.03-3.47 7.32-3.47 3.01 0 5.27.98 6.77 2.95 1.51 1.95 2.26 4.35 2.26 7.16 0 1.71-.33 3.47-.98 5.29-.65 1.83-1.72 3.83-3.18 6.01s-3.45 4.7-5.95 7.55l-27.9 29.38v13.38h60.91v-23.02h-15.65z" data-name="96" fill="#f1d200" opacity="1" data-original="#000000"></path></g></svg>