<svg xmlns="http://www.w3.org/2000/svg" version="1.1" xmlns:xlink="http://www.w3.org/1999/xlink" width="512" height="512" x="0" y="0" viewBox="0 0 32 32" style="enable-background:new 0 0 512 512" xml:space="preserve" class=""><g><path d="M1 9v1.5a4.5 4.5 0 0 0 8 2.83 4.5 4.5 0 0 0 7 0 4.5 4.5 0 0 0 7 0 4.5 4.5 0 0 0 8-2.83V9zM28.45 2.66A3 3 0 0 0 25.76 1H6.24a3 3 0 0 0-2.69 1.66L1.38 7h29.24zM30 29h-9v2h9a1 1 0 0 0 0-2zM1 30a1 1 0 0 0 1 1h9v-2H2a1 1 0 0 0-1 1zM18 24h-4a1 1 0 0 0-1 1v6h6v-6a1 1 0 0 0-1-1z" fill="#ffffff" opacity="1" data-original="#000000" class=""></path><path d="M21 27h8V16.5a6.51 6.51 0 0 1-6-.5 6.51 6.51 0 0 1-7 0 6.51 6.51 0 0 1-7 0 6.51 6.51 0 0 1-6 .52V27h8v-2a3 3 0 0 1 3-3h4a3 3 0 0 1 3 3z" fill="#ffffff" opacity="1" data-original="#000000" class=""></path></g></svg>