<svg xmlns="http://www.w3.org/2000/svg" width="135.177" height="135.171" viewBox="0 0 135.177 135.171">
  <g id="blood-tube" transform="translate(6.454 0.729)">
    <g id="icon">
      <path id="Path_7497" data-name="Path 7497" d="M38.517.382H74.56V124.519a18.021,18.021,0,0,1-36.042,0V.382Z" transform="translate(67.09 -19.048) rotate(45)" fill="#e1e6e9"/>
      <path id="Path_7498" data-name="Path 7498" d="M51.792,50.722,6.278,96.236a18.021,18.021,0,1,0,25.486,25.486L77.278,76.208Z" fill="#67bbf0"/>
      <path id="Path_7499" data-name="Path 7499" d="M119.545,33.941,77.279,76.207l-45.52,45.51a18,18,0,0,1-25.477,0A18.192,18.192,0,0,1,3.5,118.149a18.047,18.047,0,0,0,21.919-2.768l45.52-45.51L113.2,27.605Z" fill="#d5d6db"/>
      <path id="Path_7500" data-name="Path 7500" d="M77.279,76.207l-45.52,45.51a18,18,0,0,1-25.477,0A18.192,18.192,0,0,1,3.5,118.149a18.047,18.047,0,0,0,21.919-2.768l45.52-45.51Z" fill="#579ac4"/>
      <path id="Path_7501" data-name="Path 7501" d="M19.021,128A19.021,19.021,0,0,1,5.571,95.528L93.349,7.751a1,1,0,0,1,1.414,0l25.486,25.486a1,1,0,0,1,0,1.414L32.471,122.428A18.894,18.894,0,0,1,19.021,128ZM94.056,9.872,6.985,96.942a17.021,17.021,0,1,0,24.071,24.072l87.071-87.07Z" fill="#2f3a5a"/>
      <path id="Path_7502" data-name="Path 7502" d="M19.021,128A19.021,19.021,0,0,1,5.571,95.528L51.085,50.015a1.029,1.029,0,0,1,1.414,0L77.984,75.5a1,1,0,0,1,0,1.414L32.471,122.428A18.894,18.894,0,0,1,19.021,128ZM51.792,52.136,6.985,96.942a17.021,17.021,0,1,0,24.071,24.072L75.863,76.208Z" fill="#2f3a5a"/>
      <rect id="Rectangle_301" data-name="Rectangle 301" width="29.202" height="50.408" rx="4.204" transform="translate(72.438 19.917) rotate(-45)" fill="#84879c"/>
      <path id="Path_7503" data-name="Path 7503" d="M125.77,37.875l-14.71,14.7a4.2,4.2,0,0,1-5.941,0l-29.7-29.694a4.2,4.2,0,0,1-.608-5.17,1.038,1.038,0,0,0,.1.112l29.7,29.695a4.21,4.21,0,0,0,5.951,0l14.7-14.7a4.417,4.417,0,0,0,.608-.771,4.194,4.194,0,0,1-.1,5.828Z" fill="#707583"/>
      <path id="Path_7504" data-name="Path 7504" d="M108.092,54.81a5.168,5.168,0,0,1-3.68-1.524l-29.7-29.7a5.2,5.2,0,0,1,0-7.359l14.7-14.7a5.2,5.2,0,0,1,7.359,0l29.7,29.7a5.21,5.21,0,0,1,0,7.36l-14.7,14.7a5.168,5.168,0,0,1-3.679,1.523ZM93.1,2a3.183,3.183,0,0,0-2.266.938l-14.7,14.7a3.208,3.208,0,0,0,0,4.531l29.7,29.7a3.28,3.28,0,0,0,4.531,0l14.7-14.7a3.209,3.209,0,0,0,0-4.532l-29.7-29.7A3.183,3.183,0,0,0,93.1,2Z" fill="#2f3a5a"/>
      <g id="Group_673" data-name="Group 673">
        <path id="Path_7505" data-name="Path 7505" d="M81.25,22.042a1,1,0,0,1-.707-1.707L93.237,7.64a1,1,0,1,1,1.414,1.414L81.957,21.749a1,1,0,0,1-.707.293Z" fill="#707583"/>
        <path id="Path_7506" data-name="Path 7506" d="M86.392,27.183a1,1,0,0,1-.707-1.707L98.379,12.781A1,1,0,1,1,99.793,14.2L87.1,26.89a1,1,0,0,1-.708.293Z" fill="#707583"/>
        <path id="Path_7507" data-name="Path 7507" d="M91.533,32.325a1,1,0,0,1-.707-1.707l12.7-12.7a1,1,0,1,1,1.414,1.414l-12.7,12.7a1,1,0,0,1-.707.293Z" fill="#707583"/>
        <path id="Path_7508" data-name="Path 7508" d="M96.675,37.467a1,1,0,0,1-.707-1.707l12.7-12.7a1,1,0,1,1,1.414,1.414l-12.7,12.7a1,1,0,0,1-.707.293Z" fill="#707583"/>
        <path id="Path_7509" data-name="Path 7509" d="M101.816,42.608a1,1,0,0,1-.707-1.707l12.7-12.7a1,1,0,1,1,1.414,1.414l-12.7,12.7a1,1,0,0,1-.707.293Z" fill="#707583"/>
        <path id="Path_7510" data-name="Path 7510" d="M106.958,47.75a1,1,0,0,1-.707-1.707l12.7-12.7a1,1,0,1,1,1.414,1.414l-12.7,12.7A1,1,0,0,1,106.958,47.75Z" fill="#707583"/>
      </g>
    </g>
  </g>
</svg>
