<?xml version="1.0" encoding="UTF-8"?>
<svg version="1.1" xmlns="http://www.w3.org/2000/svg" width="107" height="107">
<path d="M0 0 C2.640625 2.07421875 2.640625 2.07421875 5.25 4.6875 C6.12140625 5.53699219 6.9928125 6.38648438 7.890625 7.26171875 C10.32125119 10.41703164 10.85294866 12.04450011 11 16 C9.40997314 18.45872498 9.40997314 18.45872498 6.97363281 20.88452148 C6.06808655 21.8024498 5.16254028 22.72037811 4.22955322 23.66612244 C3.22139226 24.65177656 2.21256515 25.63674972 1.203125 26.62109375 C0.17305495 27.64825741 -0.85575533 28.67668581 -1.88336182 29.70631409 C-4.04516102 31.86489361 -6.21833559 34.01108278 -8.40087891 36.14868164 C-11.17297307 38.86456903 -13.92066951 41.6035701 -16.66062546 44.3518362 C-18.78749272 46.48153008 -20.92453508 48.60077233 -23.06485748 50.71693611 C-24.07980727 51.72179245 -25.09233362 52.72910359 -26.10219574 53.7390728 C-33.06861012 60.68572901 -40.35549459 67.42101404 -49.66253662 71.03343201 C-53.88856931 72.78094513 -56.5008732 76.62988178 -59.5 79.98046875 C-62 82 -62 82 -64.6328125 81.94140625 C-68.01223147 80.5974459 -69.7873051 78.86348752 -72 76 C-71.90792156 72.51252923 -71.16470599 71.183597 -68.8203125 68.5703125 C-67.93085937 67.76335937 -67.04140625 66.95640625 -66.125 66.125 C-62.06723458 62.23367758 -59.9865512 59.29746987 -58 54 C-53.28239834 46.16632059 -47.2386835 39.82363889 -40.76171875 33.43359375 C-39.78943718 32.46437902 -38.81775338 31.4945643 -37.84663391 30.52418518 C-35.8299518 28.51206191 -33.80851863 26.50489456 -31.78295898 24.50170898 C-29.18571191 21.93300873 -26.59746927 19.35546242 -24.01224041 16.77467251 C-22.01478861 14.78136844 -20.01452274 12.79091034 -18.01319313 10.80150032 C-16.59332421 9.39008545 -15.17442485 7.97769544 -13.75553894 6.56529236 C-12.89737076 5.71673172 -12.03920258 4.86817108 -11.1550293 3.99389648 C-10.39892868 3.24462387 -9.64282806 2.49535126 -8.86381531 1.72337341 C-5.67555658 -1.22464418 -4.1030995 -1.29852426 0 0 Z " fill="#C4DCFC" transform="translate(83,12)"/>
<path d="M0 0 C2.92542851 1.37504368 4.90059039 3.4324585 7.18927002 5.69464111 C8.54471924 7.00368408 8.54471924 7.00368408 9.92755127 8.33917236 C11.87677002 10.88214111 11.87677002 10.88214111 11.75296021 12.76145935 C10.5897796 15.5767567 8.95379082 17.19399104 6.8069458 19.35601807 C5.9415921 20.23405594 5.0762384 21.11209381 4.18466187 22.01673889 C3.23092408 22.96842325 2.27671858 23.91963907 1.32208252 24.87042236 C0.34058716 25.85648356 -0.64053693 26.84291443 -1.62130737 27.82969666 C-3.68269437 29.90002306 -5.74967197 31.96456576 -7.82049561 34.02545166 C-10.44907197 36.64262969 -13.06162084 39.27515285 -15.66978264 41.91265583 C-17.69610922 43.95752257 -19.73188078 45.9927869 -21.77032852 48.02556419 C-23.19986309 49.45487434 -24.62089319 50.89267446 -26.04165649 52.33070374 C-37.75133748 63.91790623 -37.75133748 63.91790623 -45.12322998 66.88214111 C-49.00218662 65.69581495 -50.76664268 63.08036674 -53.12322998 59.88214111 C-51.73537077 57.64765754 -50.33840282 55.4198004 -48.93572998 53.19464111 C-48.5483667 52.56880127 -48.16100342 51.94296143 -47.76190186 51.29815674 C-45.26050733 47.34967447 -42.66558443 43.99584091 -39.12322998 40.88214111 C-38.46322998 40.88214111 -37.80322998 40.88214111 -37.12322998 40.88214111 C-36.13322998 42.86214111 -35.14322998 44.84214111 -34.12322998 46.88214111 C-30.32603746 47.43589836 -28.24054616 47.62226113 -24.98260498 45.46417236 C-18.72504729 40.15451943 -18.72504729 40.15451943 -15.56072998 32.88214111 C-15.84189965 29.57110574 -15.84189965 29.57110574 -19.12322998 27.50714111 C-20.11322998 26.97089111 -21.10322998 26.43464111 -22.12322998 25.88214111 C-20.72975622 22.7300913 -19.09837919 20.62042338 -16.64666748 18.21026611 C-15.64119873 17.21446533 -15.64119873 17.21446533 -14.61541748 16.19854736 C-13.91674561 15.5166333 -13.21807373 14.83471924 -12.49822998 14.13214111 C-11.79182373 13.4347583 -11.08541748 12.73737549 -10.35760498 12.01885986 C-8.61724295 10.30201623 -6.87238017 8.59002279 -5.12322998 6.88214111 C-10.0914023 10.60070351 -14.34269297 14.97521041 -18.70526123 19.36651611 C-19.51944016 20.18210999 -20.33361908 20.99770386 -21.17247009 21.8380127 C-23.76258744 24.43371042 -26.34919859 27.03287056 -28.93572998 29.63214111 C-30.69526517 31.39669384 -32.45502824 33.16101937 -34.21502686 34.92510986 C-38.52040518 39.24149117 -42.82291298 43.56071761 -47.12322998 47.88214111 C-47.12322998 43.87811544 -45.83840558 43.20714873 -43.05584717 40.39483643 C-42.1678241 39.49090149 -41.27980103 38.58696655 -40.36486816 37.65563965 C-39.38381244 36.67331687 -38.4022113 35.69153853 -37.42010498 34.71026611 C-36.42047881 33.70354244 -35.4211541 32.69651935 -34.42211914 31.68920898 C-32.32554769 29.57918006 -30.22311643 27.47519868 -28.11688232 25.37481689 C-25.41512953 22.67896512 -22.73207992 19.96530811 -20.05356979 17.24638748 C-17.9947206 15.16172395 -15.92454622 13.08860371 -13.85092926 11.01863861 C-12.85658792 10.02260052 -11.86624123 9.02255829 -10.87996674 8.0185318 C-9.50130204 6.61780357 -8.10512909 5.23437253 -6.70819092 3.85186768 C-5.9176532 3.05927551 -5.12711548 2.26668335 -4.31262207 1.45007324 C-2.12322998 -0.11785889 -2.12322998 -0.11785889 0 0 Z " fill="#DAE9FD" transform="translate(80.12322998046875,13.11785888671875)"/>
<path d="M0 0 C2.640625 2.07421875 2.640625 2.07421875 5.25 4.6875 C6.12140625 5.53699219 6.9928125 6.38648438 7.890625 7.26171875 C10.32125119 10.41703164 10.85294866 12.04450011 11 16 C9.40997314 18.45872498 9.40997314 18.45872498 6.97363281 20.88452148 C6.06808655 21.8024498 5.16254028 22.72037811 4.22955322 23.66612244 C3.22139226 24.65177656 2.21256515 25.63674972 1.203125 26.62109375 C0.17305495 27.64825741 -0.85575533 28.67668581 -1.88336182 29.70631409 C-4.04516102 31.86489361 -6.21833559 34.01108278 -8.40087891 36.14868164 C-11.17297307 38.86456903 -13.92066951 41.6035701 -16.66062546 44.3518362 C-18.78749272 46.48153008 -20.92453508 48.60077233 -23.06485748 50.71693611 C-24.07980727 51.72179245 -25.09233362 52.72910359 -26.10219574 53.7390728 C-33.06861012 60.68572901 -40.35549459 67.42101404 -49.66253662 71.03343201 C-53.88856931 72.78094513 -56.5008732 76.62988178 -59.5 79.98046875 C-62 82 -62 82 -64.6328125 81.94140625 C-68.01223147 80.5974459 -69.7873051 78.86348752 -72 76 C-71.90792156 72.51252923 -71.16470599 71.183597 -68.8203125 68.5703125 C-67.93085937 67.76335937 -67.04140625 66.95640625 -66.125 66.125 C-62.06723458 62.23367758 -59.9865512 59.29746987 -58 54 C-53.28239834 46.16632059 -47.2386835 39.82363889 -40.76171875 33.43359375 C-39.78943718 32.46437902 -38.81775338 31.4945643 -37.84663391 30.52418518 C-35.8299518 28.51206191 -33.80851863 26.50489456 -31.78295898 24.50170898 C-29.18571191 21.93300873 -26.59746927 19.35546242 -24.01224041 16.77467251 C-22.01478861 14.78136844 -20.01452274 12.79091034 -18.01319313 10.80150032 C-16.59332421 9.39008545 -15.17442485 7.97769544 -13.75553894 6.56529236 C-12.89737076 5.71673172 -12.03920258 4.86817108 -11.1550293 3.99389648 C-10.39892868 3.24462387 -9.64282806 2.49535126 -8.86381531 1.72337341 C-5.67555658 -1.22464418 -4.1030995 -1.29852426 0 0 Z M-9.45214844 5.0480957 C-10.79934967 6.37627068 -10.79934967 6.37627068 -12.17376709 7.73127747 C-13.1527595 8.71232346 -14.1312834 9.69383716 -15.109375 10.67578125 C-16.11928455 11.68112719 -17.12956457 12.6861011 -18.14019775 13.6907196 C-20.26358452 15.80515414 -22.38117044 17.92520141 -24.49511719 20.04907227 C-27.18070803 22.74604956 -29.88162758 25.42703199 -32.58755112 28.10358906 C-34.68303045 30.18053076 -36.76891191 32.26691667 -38.85230255 34.35597801 C-39.8426063 35.34643341 -40.83594798 36.33386236 -41.83257294 37.31795692 C-52.25532507 47.36768943 -52.25532507 47.36768943 -58.52459717 60.1410675 C-59.36601367 63.43119614 -62.16947688 65.47349111 -64.5625 67.75 C-65.08263672 68.25660156 -65.60277344 68.76320313 -66.13867188 69.28515625 C-67.41910084 70.53034405 -68.70867554 71.76611502 -70 73 C-68.64062915 75.8605891 -67.35479531 77.85927699 -65 80 C-60.07671069 78.01021795 -57.07647084 74.02983025 -53.53515625 70.21484375 C-51 68 -51 68 -48.66290283 67.57537842 C-39.18734509 65.52797685 -30.86823488 55.33552156 -24.265625 48.734375 C-23.29274262 47.76861589 -22.31957187 46.8031472 -21.34613037 45.83795166 C-19.33106741 43.83619005 -17.3218674 41.82876181 -15.31640625 39.81738281 C-12.74412173 37.23913393 -10.15381517 34.67982769 -7.55859756 32.12469101 C-5.55460638 30.14647301 -3.5621193 28.1569782 -1.57280731 26.16400909 C-0.16031023 24.75402521 1.26325739 23.35515987 2.68695068 21.95648193 C3.53243469 21.1016925 4.3779187 20.24690308 5.24902344 19.36621094 C5.99972107 18.61756775 6.7504187 17.86892456 7.52386475 17.09759521 C9.2290667 15.13831873 9.2290667 15.13831873 8.8706665 12.88824463 C7.51398164 9.94595512 5.41393061 8.01902686 3.125 5.75 C2.24070312 4.85796875 1.35640625 3.9659375 0.4453125 3.046875 C-4.0223936 -0.6928662 -5.83234009 1.45306254 -9.45214844 5.0480957 Z " fill="#525051" transform="translate(83,12)"/>
<path d="M0 0 C2.92542851 1.37504368 4.90059039 3.4324585 7.18927002 5.69464111 C8.54471924 7.00368408 8.54471924 7.00368408 9.92755127 8.33917236 C11.87677002 10.88214111 11.87677002 10.88214111 11.85723877 13.08135986 C10.87677002 14.88214111 10.87677002 14.88214111 7.87677002 16.88214111 C7.18969971 16.17186768 6.50262939 15.46159424 5.79473877 14.72979736 C4.89368408 13.8106958 3.99262939 12.89159424 3.06427002 11.94464111 C2.17094971 11.02811768 1.27762939 10.11159424 0.35723877 9.16729736 C-1.97759591 6.70279004 -1.97759591 6.70279004 -5.12322998 5.88214111 C-18.98322998 19.74214111 -32.84322998 33.60214111 -47.12322998 47.88214111 C-47.12322998 43.87811544 -45.83840558 43.20714873 -43.05584717 40.39483643 C-42.1678241 39.49090149 -41.27980103 38.58696655 -40.36486816 37.65563965 C-39.38381244 36.67331687 -38.4022113 35.69153853 -37.42010498 34.71026611 C-36.42047881 33.70354244 -35.4211541 32.69651935 -34.42211914 31.68920898 C-32.32554769 29.57918006 -30.22311643 27.47519868 -28.11688232 25.37481689 C-25.41512953 22.67896512 -22.73207992 19.96530811 -20.05356979 17.24638748 C-17.9947206 15.16172395 -15.92454622 13.08860371 -13.85092926 11.01863861 C-12.85658792 10.02260052 -11.86624123 9.02255829 -10.87996674 8.0185318 C-9.50130204 6.61780357 -8.10512909 5.23437253 -6.70819092 3.85186768 C-5.9176532 3.05927551 -5.12711548 2.26668335 -4.31262207 1.45007324 C-2.12322998 -0.11785889 -2.12322998 -0.11785889 0 0 Z " fill="#BED7F7" transform="translate(80.12322998046875,13.11785888671875)"/>
<path d="M0 0 C2.8605891 1.35937085 4.85927699 2.64520469 7 5 C5.41332422 8.90285767 2.86649519 11.33520982 -0.125 14.25 C-1.03507812 15.14203125 -1.94515625 16.0340625 -2.8828125 16.953125 C-3.58148438 17.62859375 -4.28015625 18.3040625 -5 19 C-7.8605891 17.64062915 -9.85927699 16.35479531 -12 14 C-10.41332422 10.09714233 -7.86649519 7.66479018 -4.875 4.75 C-3.96492188 3.85796875 -3.05484375 2.9659375 -2.1171875 2.046875 C-1.41851562 1.37140625 -0.71984375 0.6959375 0 0 Z " fill="#F37D84" transform="translate(25,73)"/>
<path d="M0 0 C2.2734375 1.609375 2.2734375 1.609375 4.375 3.75 C5.08398438 4.44609375 5.79296875 5.1421875 6.5234375 5.859375 C8 8 8 8 7.9140625 10.140625 C7 12 7 12 4 14 C0 10 -4 6 -8 2 C-4.73958138 -0.17361241 -3.78165007 -0.52554654 0 0 Z " fill="#BFD9F9" transform="translate(84,16)"/>
<path d="M0 0 C1.65 1.65 3.3 3.3 5 5 C4.01 5.33 3.02 5.66 2 6 C0.79117904 8.00016466 0.79117904 8.00016466 0 10 C-1.32 10 -2.64 10 -4 10 C-4.66 8.68 -5.32 7.36 -6 6 C-4.02 4.02 -2.04 2.04 0 0 Z " fill="#FCEFF1" transform="translate(55,45)"/>
<path d="M0 0 C4.12074071 1.37358024 6.66635587 3.20774707 9.75 6.25 C10.52859375 6.99765625 11.3071875 7.7453125 12.109375 8.515625 C14.2977447 11.3912513 14.69129776 13.4396342 15 17 C13 16 13 16 11.875 13.9375 C8.57543322 8.76817871 4.096167 4.39744467 -1 1 C-0.67 0.67 -0.34 0.34 0 0 Z " fill="#464647" transform="translate(79,11)"/>
<path d="M0 0 C1.65 0.33 3.3 0.66 5 1 C4.67 2.65 4.34 4.3 4 6 C2.68 5.34 1.36 4.68 0 4 C0 2.68 0 1.36 0 0 Z " fill="#FBF8FA" transform="translate(57,43)"/>
<path d="M0 0 C1.65 1.65 3.3 3.3 5 5 C3.35 5.33 1.7 5.66 0 6 C-0.38218767 4.34385343 -0.71395102 2.67542976 -1 1 C-0.67 0.67 -0.34 0.34 0 0 Z " fill="#FDFEFF" transform="translate(48,52)"/>
<path d="M0 0 C1.32 0.66 2.64 1.32 4 2 C4 3.32 4 4.64 4 6 C2.68 5.34 1.36 4.68 0 4 C0 2.68 0 1.36 0 0 Z " fill="#F58E95" transform="translate(50,50)"/>
<path d="M0 0 C2.0625 0.25 2.0625 0.25 4 1 C4.33 1.66 4.66 2.32 5 3 C2.69 3.66 0.38 4.32 -2 5 C-2 2 -2 2 0 0 Z " fill="#9DC1EE" transform="translate(78,13)"/>
<path d="M0 0 C1.65 1.65 3.3 3.3 5 5 C3.68 5 2.36 5 1 5 C0.34 3.68 -0.32 2.36 -1 1 C-0.67 0.67 -0.34 0.34 0 0 Z " fill="#F3828A" transform="translate(55,45)"/>
</svg>
