<svg xmlns="http://www.w3.org/2000/svg" version="1.1" xmlns:xlink="http://www.w3.org/1999/xlink" width="512" height="512" x="0" y="0" viewBox="0 0 512 512" style="enable-background:new 0 0 512 512" xml:space="preserve" class=""><g><path fill="#b86f44" d="m119.723 16.21 16.66 69.731h78.125l16.664-69.73C233.148 7.94 226.879 0 218.375 0h-85.86c-8.503 0-14.769 7.941-12.792 16.21zm0 0" opacity="1" data-original="#ffcd34" class=""></path><path fill="#895334" d="M218.375 0H193.91c8.5 0 14.77 7.941 12.793 16.21L190.04 85.942h24.469l16.664-69.73C233.148 7.94 226.879 0 218.375 0zm0 0" opacity="1" data-original="#e69012" class=""></path><path fill="#d8e6f0" d="M350.621 369.023c-3.418-30.086-70.746-92.718-103.375-121.472a51.46 51.46 0 0 1-17.433-38.617v-61.778h4.43c16.902 0 30.605-13.703 30.605-30.605 0-16.903-13.703-30.606-30.606-30.606h-117.59c-16.902 0-30.605 13.703-30.605 30.606 0 16.902 13.703 30.605 30.605 30.605h4.43v61.778a51.463 51.463 0 0 1-17.437 38.617C71.015 276.305 3.688 338.94.273 369.023-4.715 412.926 59.984 512 104.168 512h142.555c44.187 0 108.882-99.074 103.898-142.977zm0 0" opacity="1" data-original="#d8e6f0" class=""></path><path fill="#bdcdd6" d="M350.621 369.023c-3.418-30.086-70.746-92.718-103.375-121.472a51.46 51.46 0 0 1-17.433-38.617v-61.778h4.43c16.902 0 30.605-13.703 30.605-30.605 0-16.903-13.703-30.606-30.606-30.606h-23.347c16.902 0 30.601 13.703 30.601 30.606 0 16.902-13.7 30.605-30.601 30.605h-4.434v61.778a51.463 51.463 0 0 0 17.437 38.617c32.63 28.754 99.957 91.39 103.375 121.472C332.258 412.926 267.56 512 223.375 512h23.348c44.187 0 108.882-99.074 103.898-142.977zm0 0" opacity="1" data-original="#bdcdd6" class=""></path><path fill="#bdcdd6" d="M175.445 147.152a7.5 7.5 0 1 0 0 15h54.368v-15zm0 0" opacity="1" data-original="#bdcdd6" class=""></path><path fill="#be722f" d="M322.996 372.293c-.23-1.066-3.488-13.453-34.738-46.918a583.949 583.949 0 0 0-8.918-9.336c1.348 9.816 1.023 19.84-5.274 27.05-7.441 8.524-20.226 9.458-31.523 8.837-37.91-2.078-74.957-11.875-111.852-20.817-24.062-5.832-58.343-15.07-73.218-.125-27.82 27.957-29.36 40.301-29.578 41.305-.594 5.75 1.816 18.977 10.574 37.598 8.312 17.66 20.328 35.91 32.972 50.07 17.747 19.875 29.641 24.227 32.727 24.227h142.555c3.086 0 14.98-4.352 32.726-24.227 12.645-14.16 24.66-32.41 32.973-50.07 8.762-18.621 11.168-31.848 10.574-37.594zm0 0" opacity="1" data-original="#7f56af" class=""></path><path fill="#a76328" d="M322.996 372.293c-.23-1.066-3.488-13.453-34.738-46.918a583.949 583.949 0 0 0-8.918-9.336c1.226 8.941 1.066 18.05-3.727 25.055 18.301 21.742 20.547 30.32 20.739 31.195.593 5.75-1.817 18.977-10.575 37.598-8.312 17.66-20.328 35.91-32.972 50.074-17.746 19.871-29.64 24.223-32.727 24.223h26.645c3.086 0 14.98-4.352 32.726-24.223 12.645-14.164 24.664-32.414 32.973-50.074 8.762-18.621 11.168-31.848 10.574-37.594zm0 0" opacity="1" data-original="#5e4487" class=""></path><path fill="#c97d3a" d="M242.543 351.93c11.297.617 24.082-.317 31.52-8.836 6.296-7.215 6.625-17.239 5.277-27.055-8.223-8.223-39.703-38.453-130.54 19.488 30.923 7.52 62.032 14.66 93.743 16.403zm0 0" opacity="1" data-original="#9e71d3" class=""></path><g fill="#e69012"><path d="M156.559 32.098a7.5 7.5 0 0 1-7.5-7.5v-4.121c0-4.145 3.355-7.5 7.5-7.5 4.144 0 7.5 3.355 7.5 7.5v4.12a7.5 7.5 0 0 1-7.5 7.5zM194.332 44.152a7.5 7.5 0 0 1-7.5-7.5v-4.12a7.5 7.5 0 0 1 7.5-7.5c4.145 0 7.5 3.355 7.5 7.5v4.12c0 4.145-3.355 7.5-7.5 7.5zM180.254 73.945a7.497 7.497 0 0 1-7.5-7.5v-4.12a7.5 7.5 0 0 1 7.5-7.5 7.5 7.5 0 0 1 7.5 7.5v4.12a7.5 7.5 0 0 1-7.5 7.5zm0 0" fill="#895334" opacity="1" data-original="#e69012" class=""></path></g><path fill="#c97d3a" d="M118.785 378.422c0 7.488-6.07 13.562-13.562 13.562-7.493 0-13.567-6.074-13.567-13.562 0-7.492 6.074-13.567 13.567-13.567 7.492 0 13.562 6.075 13.562 13.567zM196.805 439.238c0 8.961-7.262 16.223-16.223 16.223-8.96 0-16.227-7.262-16.227-16.223 0-8.96 7.266-16.226 16.227-16.226s16.223 7.265 16.223 16.226zm0 0" opacity="1" data-original="#9e71d3" class=""></path></g></svg>