<svg xmlns="http://www.w3.org/2000/svg" width="452" height="501" viewBox="0 0 452 501">
  <g id="Group_771" data-name="Group 771" transform="translate(-7521 -19809)">
    <g id="Path_7580" data-name="Path 7580" transform="translate(7521 19834)" fill="#22b522">
      <path d="M 226 473.5 C 210.8428802490234 473.5 195.6959381103516 471.8920593261719 180.9797515869141 468.7208251953125 C 166.6375579833984 465.630126953125 152.5296325683594 461.0181884765625 139.0478057861328 455.0130615234375 C 125.8079376220703 449.1157531738281 113.0372467041016 441.8158874511719 101.0905609130859 433.3163146972656 C 89.25418853759766 424.895263671875 78.12325286865234 415.2235717773438 68.00675201416016 404.5699462890625 C 57.88812637329102 393.9140625 48.70131301879883 382.1882629394531 40.70149993896484 369.7182006835938 C 32.62381362915039 357.1267395019531 25.68574905395508 343.6655578613281 20.08006286621094 329.7086181640625 C 14.37018775939941 315.4920654296875 9.984749794006348 300.6142578125 7.04562520980835 285.4884338378906 C 4.029375076293945 269.9657592773438 2.5 253.9883117675781 2.5 238 C 2.5 222.0116882324219 4.029375076293945 206.0342559814453 7.04562520980835 190.5115661621094 C 9.984749794006348 175.3857574462891 14.37018775939941 160.5079345703125 20.08006286621094 146.2914428710938 C 25.68574905395508 132.3344421386719 32.62381362915039 118.8732528686523 40.70149993896484 106.2818756103516 C 48.70131301879883 93.81181335449219 57.88812637329102 82.0859375 68.00675201416016 71.43006134033203 C 78.12325286865234 60.77643585205078 89.25418853759766 51.10481262207031 101.0905609130859 42.68375015258789 C 113.0372467041016 34.18412399291992 125.8079376220703 26.88425064086914 139.0478057861328 20.98693656921387 C 152.5296325683594 14.98181247711182 166.6375579833984 10.36987495422363 180.9797515869141 7.279187679290771 C 195.6959381103516 4.107937335968018 210.8429412841797 2.5 226 2.5 C 241.1571197509766 2.5 256.3041381835938 4.107937335968018 271.020263671875 7.279187679290771 C 285.3624267578125 10.36987495422363 299.4704284667969 14.98181247711182 312.9521789550781 20.98693656921387 C 326.1920776367188 26.88425064086914 338.9627380371094 34.18412399291992 350.9094848632812 42.68375015258789 C 362.7458190917969 51.10481262207031 373.8768005371094 60.77643585205078 383.9932556152344 71.43006134033203 C 394.1118774414062 82.0859375 403.2986755371094 93.81181335449219 411.2985534667969 106.2818756103516 C 419.3762512207031 118.8732528686523 426.3142395019531 132.3344421386719 431.9199523925781 146.2914428710938 C 437.6298217773438 160.5079345703125 442.0152587890625 175.3857574462891 444.9543762207031 190.5115661621094 C 447.9706115722656 206.0342559814453 449.5 222.0116882324219 449.5 238 C 449.5 261.2429504394531 446.2949523925781 284.1969299316406 439.973876953125 306.2244262695312 C 433.8518676757812 327.5581359863281 424.8588256835938 347.8683166503906 413.2443237304688 366.591064453125 C 401.7976989746094 385.0432434082031 387.9493103027344 401.7273864746094 372.0840148925781 416.1800537109375 C 356.13818359375 430.7059936523438 338.36962890625 442.7801818847656 319.2718200683594 452.0671997070312 C 307.286376953125 457.8958129882812 294.6395568847656 462.6283264160156 281.6826171875 466.1332397460938 C 263.61181640625 471.0214233398438 244.87744140625 473.5 226 473.5 Z" stroke="none"/>
      <path d="M 226 5 C 211.0196228027344 5 196.0498199462891 6.58905029296875 181.5063781738281 9.723114013671875 C 167.3324279785156 12.77749633789062 153.3895568847656 17.3355712890625 140.0650024414062 23.2706298828125 C 126.9766235351562 29.10043334960938 114.3513793945312 36.31732177734375 102.5398254394531 44.72076416015625 C 90.83425903320312 53.04879760742188 79.8255615234375 62.6142578125 69.81961059570312 73.1514892578125 C 59.80938720703125 83.69329833984375 50.72055053710938 95.29412841796875 42.80569458007812 107.6317443847656 C 34.8126220703125 120.0911865234375 27.94717407226562 133.4116821289062 22.39993286132812 147.2231140136719 C 16.74893188476562 161.2929992675781 12.40869140625 176.0177612304688 9.49969482421875 190.9884338378906 C 6.513946533203125 206.3543701171875 5 222.1713714599609 5 238 C 5 253.8286285400391 6.513946533203125 269.6456298828125 9.49969482421875 285.0115661621094 C 12.40869140625 299.982177734375 16.74893188476562 314.7069396972656 22.39993286132812 328.7767944335938 C 27.94717407226562 342.5883178710938 34.8126220703125 355.9088134765625 42.80569458007812 368.3682556152344 C 50.72055053710938 380.7058715820312 59.80938720703125 392.3067016601562 69.81961059570312 402.8484497070312 C 79.8255615234375 413.3856811523438 90.83425903320312 422.951171875 102.5398254394531 431.2792358398438 C 114.3513793945312 439.6826171875 126.9766235351562 446.8995056152344 140.0650024414062 452.7293701171875 C 153.3895568847656 458.6644287109375 167.3324279785156 463.2225036621094 181.5064392089844 466.2768859863281 C 196.0498199462891 469.4109497070312 211.0196228027344 471 226 471 C 244.6570587158203 471 263.1717529296875 468.5506286621094 281.0298156738281 463.7199401855469 C 293.8353271484375 460.2560119628906 306.3339233398438 455.5790710449219 318.1784973144531 449.8189392089844 C 337.0613098144531 440.6364440917969 354.6313171386719 428.6968688964844 370.4004516601562 414.3318786621094 C 386.0950012207031 400.0348205566406 399.7949829101562 383.529052734375 411.119873046875 365.2731323242188 C 422.6130065917969 346.7460632324219 431.5123901367188 326.6472473144531 437.5708618164062 305.5348815917969 C 443.8275756835938 283.7316284179688 447 261.0096435546875 447 238 C 447 222.1713714599609 445.4860534667969 206.3543701171875 442.5003051757812 190.9884338378906 C 439.59130859375 176.0177612304688 435.2510681152344 161.2929992675781 429.6000671386719 147.2231140136719 C 424.0528259277344 133.4116821289062 417.1873168945312 120.0911865234375 409.1943054199219 107.6317443847656 C 401.2794494628906 95.29412841796875 392.1906127929688 83.69329833984375 382.1803588867188 73.1514892578125 C 372.1743774414062 62.6142578125 361.1657409667969 53.04879760742188 349.460205078125 44.72076416015625 C 337.6486206054688 36.31732177734375 325.0233154296875 29.10043334960938 311.9349365234375 23.2706298828125 C 298.6104431152344 17.3355712890625 284.66748046875 12.77749633789062 270.4935607910156 9.723114013671875 C 255.9501800537109 6.58905029296875 240.9803771972656 5 226 5 M 226 0 C 350.8163146972656 0 452 106.5561828613281 452 238 C 452 333.8508911132812 398.1950073242188 416.4676818847656 320.3651123046875 454.3154296875 C 308.4074401855469 460.1305541992188 295.6073608398438 464.9563598632812 282.33544921875 468.5465087890625 C 264.3675537109375 473.4068603515625 245.4713134765625 476 226 476 C 101.1836242675781 476 0 369.4437561035156 0 238 C 0 106.5561828613281 101.1836242675781 0 226 0 Z" stroke="none" fill="#474646"/>
    </g>
    <g id="Path_7581" data-name="Path 7581" transform="translate(7521 19809)" fill="#9fffa2">
      <path d="M 226 473.5 C 210.8428802490234 473.5 195.6959381103516 471.8920593261719 180.9797515869141 468.7208251953125 C 166.6375579833984 465.630126953125 152.5296325683594 461.0181884765625 139.0478057861328 455.0130615234375 C 125.8079376220703 449.1157531738281 113.0372467041016 441.8158874511719 101.0905609130859 433.3163146972656 C 89.25418853759766 424.895263671875 78.12325286865234 415.2235717773438 68.00675201416016 404.5699462890625 C 57.88812637329102 393.9140625 48.70131301879883 382.1882629394531 40.70149993896484 369.7182006835938 C 32.62381362915039 357.1267395019531 25.68574905395508 343.6655578613281 20.08006286621094 329.7086181640625 C 14.37018775939941 315.4920654296875 9.984749794006348 300.6142578125 7.04562520980835 285.4884338378906 C 4.029375076293945 269.9657592773438 2.5 253.9883117675781 2.5 238 C 2.5 222.0116882324219 4.029375076293945 206.0342559814453 7.04562520980835 190.5115661621094 C 9.984749794006348 175.3857574462891 14.37018775939941 160.5079345703125 20.08006286621094 146.2914428710938 C 25.68574905395508 132.3344421386719 32.62381362915039 118.8732528686523 40.70149993896484 106.2818756103516 C 48.70131301879883 93.81181335449219 57.88812637329102 82.0859375 68.00675201416016 71.43006134033203 C 78.12325286865234 60.77643585205078 89.25418853759766 51.10481262207031 101.0905609130859 42.68375015258789 C 113.0372467041016 34.18412399291992 125.8079376220703 26.88425064086914 139.0478057861328 20.98693656921387 C 152.5296325683594 14.98181247711182 166.6375579833984 10.36987495422363 180.9797515869141 7.279187679290771 C 195.6959381103516 4.107937335968018 210.8429412841797 2.5 226 2.5 C 241.1571197509766 2.5 256.3041381835938 4.107937335968018 271.020263671875 7.279187679290771 C 285.3624267578125 10.36987495422363 299.4704284667969 14.98181247711182 312.9521789550781 20.98693656921387 C 326.1920776367188 26.88425064086914 338.9627380371094 34.18412399291992 350.9094848632812 42.68375015258789 C 362.7458190917969 51.10481262207031 373.8768005371094 60.77643585205078 383.9932556152344 71.43006134033203 C 394.1118774414062 82.0859375 403.2986755371094 93.81181335449219 411.2985534667969 106.2818756103516 C 419.3762512207031 118.8732528686523 426.3142395019531 132.3344421386719 431.9199523925781 146.2914428710938 C 437.6298217773438 160.5079345703125 442.0152587890625 175.3857574462891 444.9543762207031 190.5115661621094 C 447.9706115722656 206.0342559814453 449.5 222.0116882324219 449.5 238 C 449.5 262.5376281738281 445.9323120117188 286.7139892578125 438.8960571289062 309.8575744628906 C 432.08349609375 332.265380859375 422.0969848632812 353.4795532226562 409.2139282226562 372.9107360839844 C 399.1711120605469 388.0583190917969 387.4099426269531 401.97119140625 374.2572021484375 414.2630004882812 C 361.0576171875 426.5985107421875 346.4850769042969 437.2739868164062 330.9443664550781 445.9929504394531 C 315.1281127929688 454.8663635253906 298.3137512207031 461.7079467773438 280.96826171875 466.3275146484375 C 263.0981750488281 471.0868225097656 244.604248046875 473.5 226 473.5 Z" stroke="none"/>
      <path d="M 226 5 C 211.0196228027344 5 196.0498199462891 6.58905029296875 181.5063781738281 9.723114013671875 C 167.3324279785156 12.77749633789062 153.3895568847656 17.3355712890625 140.0650024414062 23.2706298828125 C 126.9766235351562 29.10043334960938 114.3513793945312 36.31732177734375 102.5398254394531 44.72076416015625 C 90.83425903320312 53.04879760742188 79.8255615234375 62.6142578125 69.81961059570312 73.1514892578125 C 59.80938720703125 83.69329833984375 50.72055053710938 95.29412841796875 42.80569458007812 107.6317443847656 C 34.8126220703125 120.0911865234375 27.94717407226562 133.4116821289062 22.39993286132812 147.2231140136719 C 16.74893188476562 161.2929992675781 12.40869140625 176.0177612304688 9.49969482421875 190.9884338378906 C 6.513946533203125 206.3543701171875 5 222.1713714599609 5 238 C 5 253.8286285400391 6.513946533203125 269.6456298828125 9.49969482421875 285.0115661621094 C 12.40869140625 299.982177734375 16.74893188476562 314.7069396972656 22.39993286132812 328.7767944335938 C 27.94717407226562 342.5883178710938 34.8126220703125 355.9088134765625 42.80569458007812 368.3682556152344 C 50.72055053710938 380.7058715820312 59.80938720703125 392.3067016601562 69.81961059570312 402.8484497070312 C 79.8255615234375 413.3856811523438 90.83425903320312 422.951171875 102.5398254394531 431.2792358398438 C 114.3513793945312 439.6826171875 126.9766235351562 446.8995056152344 140.0650024414062 452.7293701171875 C 153.3895568847656 458.6644287109375 167.3324279785156 463.2225036621094 181.5064392089844 466.2768859863281 C 196.0498199462891 469.4109497070312 211.0196228027344 471 226 471 C 244.3871307373047 471 262.6646118164062 468.6151733398438 280.3248291015625 463.9117431640625 C 297.4681396484375 459.3460083007812 314.0874328613281 452.5836181640625 329.7211303710938 443.8125610351562 C 345.0871887207031 435.1916809082031 359.4969482421875 424.6351928710938 372.5501708984375 412.4364318847656 C 385.5606689453125 400.2776184082031 397.1951293945312 386.5144958496094 407.1303100585938 371.529296875 C 419.8793029785156 352.3001708984375 429.7621154785156 331.3061828613281 436.5041809082031 309.13037109375 C 443.4686889648438 286.2227478027344 447 262.291015625 447 238 C 447 222.1713714599609 445.4860534667969 206.3543701171875 442.5003051757812 190.9884338378906 C 439.59130859375 176.0177612304688 435.2510681152344 161.2929992675781 429.6000671386719 147.2231140136719 C 424.0528259277344 133.4116821289062 417.1873168945312 120.0911865234375 409.1943054199219 107.6317443847656 C 401.2794494628906 95.29412841796875 392.1906127929688 83.69329833984375 382.1803588867188 73.1514892578125 C 372.1743774414062 62.6142578125 361.1657409667969 53.04879760742188 349.460205078125 44.72076416015625 C 337.6486206054688 36.31732177734375 325.0233154296875 29.10043334960938 311.9349365234375 23.2706298828125 C 298.6104431152344 17.3355712890625 284.66748046875 12.77749633789062 270.4935607910156 9.723114013671875 C 255.9501800537109 6.58905029296875 240.9803771972656 5 226 5 M 226 0 C 350.8163146972656 0 452 106.5561828613281 452 238 C 452 288.6058959960938 437.0020751953125 335.5227661132812 411.2975463867188 374.292236328125 C 370.5856323242188 435.69775390625 302.7620849609375 476 226 476 C 101.1836242675781 476 0 369.4437561035156 0 238 C 0 106.5561828613281 101.1836242675781 0 226 0 Z" stroke="none" fill="#474646"/>
    </g>
    <path id="Path_7579" data-name="Path 7579" d="M9.515,1.3,450.722.365l.516,7.439V21.615l-.32,6.426-.2,3.752-.377,4.227-.444,4.707-.532,4.725-.487,3.943L11.44,49.115l-.6-4.35-.53-5.482-.34-3.607-.367-4.932-.28-5.719-.263-6.117V14.469l.159-6.83Z" transform="translate(7516.777 20031.977)" fill="#2ae02a"/>
    <path id="Path_7582" data-name="Path 7582" d="M9.515.6,450.789.346l.171,1.959.163,1.609V5.428l.118,1.436v5.643L9.063,12.541V5.171L9.169,3.74,9.294,2.2Z" transform="translate(7516.776 20031.977)" fill="#22b522"/>
  </g>
</svg>
