<svg xmlns="http://www.w3.org/2000/svg" width="452" height="501" viewBox="0 0 452 501">
  <g id="Group_802" data-name="Group 802" transform="translate(-7521 -19809)">
    <g id="Path_7580" data-name="Path 7580" transform="translate(7521 19834)" fill="#d868b9">
      <path d="M 226 473.5 C 210.8428802490234 473.5 195.6959381103516 471.8920593261719 180.9797515869141 468.7208251953125 C 166.6375579833984 465.630126953125 152.5296325683594 461.0181884765625 139.0478057861328 455.0130615234375 C 125.8079376220703 449.1157531738281 113.0372467041016 441.8158874511719 101.0905609130859 433.3163146972656 C 89.25418853759766 424.895263671875 78.12325286865234 415.2235717773438 68.00675201416016 404.5699462890625 C 57.88812637329102 393.9140625 48.70131301879883 382.1882629394531 40.70149993896484 369.7182006835938 C 32.62381362915039 357.1267395019531 25.68574905395508 343.6655578613281 20.08006286621094 329.7086181640625 C 14.37018775939941 315.4920654296875 9.984749794006348 300.6142578125 7.04562520980835 285.4884338378906 C 4.029375076293945 269.9657592773438 2.5 253.9883117675781 2.5 238 C 2.5 222.0116882324219 4.029375076293945 206.0342559814453 7.04562520980835 190.5115661621094 C 9.984749794006348 175.3857574462891 14.37018775939941 160.5079345703125 20.08006286621094 146.2914428710938 C 25.68574905395508 132.3344421386719 32.62381362915039 118.8732528686523 40.70149993896484 106.2818756103516 C 48.70131301879883 93.81181335449219 57.88812637329102 82.0859375 68.00675201416016 71.43006134033203 C 78.12325286865234 60.77643585205078 89.25418853759766 51.10481262207031 101.0905609130859 42.68375015258789 C 113.0372467041016 34.18412399291992 125.8079376220703 26.88425064086914 139.0478057861328 20.98693656921387 C 152.5296325683594 14.98181247711182 166.6375579833984 10.36987495422363 180.9797515869141 7.279187679290771 C 195.6959381103516 4.107937335968018 210.8429412841797 2.5 226 2.5 C 241.1571197509766 2.5 256.3041381835938 4.107937335968018 271.020263671875 7.279187679290771 C 285.3624267578125 10.36987495422363 299.4704284667969 14.98181247711182 312.9521789550781 20.98693656921387 C 326.1920776367188 26.88425064086914 338.9627380371094 34.18412399291992 350.9094848632812 42.68375015258789 C 362.7458190917969 51.10481262207031 373.8768005371094 60.77643585205078 383.9932556152344 71.43006134033203 C 394.1118774414062 82.0859375 403.2986755371094 93.81181335449219 411.2985534667969 106.2818756103516 C 419.3762512207031 118.8732528686523 426.3142395019531 132.3344421386719 431.9199523925781 146.2914428710938 C 437.6298217773438 160.5079345703125 442.0152587890625 175.3857574462891 444.9543762207031 190.5115661621094 C 447.9706115722656 206.0342559814453 449.5 222.0116882324219 449.5 238 C 449.5 264.8678894042969 445.2413635253906 291.2184448242188 436.8423767089844 316.3196105957031 C 432.7867431640625 328.4404296875 427.7369995117188 340.3032531738281 421.8334350585938 351.5786743164062 C 415.9989318847656 362.7222595214844 409.2452392578125 373.45556640625 401.7599487304688 383.4803161621094 C 394.3135681152344 393.4530639648438 386.03857421875 402.864990234375 377.1648864746094 411.4546813964844 C 368.2765502929688 420.0585021972656 358.6632385253906 427.9575500488281 348.5920104980469 434.9325561523438 C 338.4358215332031 441.9664306640625 327.6669311523438 448.1619262695312 316.5846252441406 453.3469848632812 C 305.3380126953125 458.6089477539062 293.5953063964844 462.9108276367188 281.6826171875 466.1332397460938 C 263.61181640625 471.0214233398438 244.87744140625 473.5 226 473.5 Z" stroke="none"/>
      <path d="M 226 5 C 211.0196228027344 5 196.0498199462891 6.58905029296875 181.5063781738281 9.723114013671875 C 167.3324279785156 12.77749633789062 153.3895568847656 17.3355712890625 140.0650024414062 23.2706298828125 C 126.9766235351562 29.10043334960938 114.3513793945312 36.31732177734375 102.5398254394531 44.72076416015625 C 90.83425903320312 53.04879760742188 79.8255615234375 62.6142578125 69.81961059570312 73.1514892578125 C 59.80938720703125 83.69329833984375 50.72055053710938 95.29412841796875 42.80569458007812 107.6317443847656 C 34.8126220703125 120.0911865234375 27.94717407226562 133.4116821289062 22.39993286132812 147.2231140136719 C 16.74893188476562 161.2929992675781 12.40869140625 176.0177612304688 9.49969482421875 190.9884338378906 C 6.513946533203125 206.3543701171875 5 222.1713714599609 5 238 C 5 253.8286285400391 6.513946533203125 269.6456298828125 9.49969482421875 285.0115661621094 C 12.40869140625 299.982177734375 16.74893188476562 314.7069396972656 22.39993286132812 328.7767944335938 C 27.94717407226562 342.5883178710938 34.8126220703125 355.9088134765625 42.80569458007812 368.3682556152344 C 50.72055053710938 380.7058715820312 59.80938720703125 392.3067016601562 69.81961059570312 402.8484497070312 C 79.8255615234375 413.3856811523438 90.83425903320312 422.951171875 102.5398254394531 431.2792358398438 C 114.3513793945312 439.6826171875 126.9766235351562 446.8995056152344 140.0650024414062 452.7293701171875 C 153.3895568847656 458.6644287109375 167.3324279785156 463.2225036621094 181.5064392089844 466.2768859863281 C 196.0498199462891 469.4109497070312 211.0196228027344 471 226 471 C 244.6570587158203 471 263.1717529296875 468.5506286621094 281.0298767089844 463.7199401855469 C 292.8032531738281 460.5352478027344 304.4091796875 456.2833862304688 315.5252075195312 451.0825500488281 C 326.4809265136719 445.9567565917969 337.1273193359375 439.8316345214844 347.1686401367188 432.8773803710938 C 357.1282348632812 425.9796752929688 366.6353759765625 418.1676940917969 375.4260559082031 409.658447265625 C 384.2040710449219 401.161376953125 392.3900756835938 391.8505554199219 399.7567443847656 381.984619140625 C 407.1629333496094 372.0657348632812 413.8454284667969 361.445556640625 419.6186218261719 350.4191284179688 C 425.4607543945312 339.2610473632812 430.4580078125 327.5214233398438 434.4715576171875 315.5263671875 C 442.7848205566406 290.681396484375 447 264.5976867675781 447 238 C 447 222.1713714599609 445.4860534667969 206.3543701171875 442.5003051757812 190.9884338378906 C 439.59130859375 176.0177612304688 435.2510681152344 161.2929992675781 429.6000671386719 147.2231140136719 C 424.0528259277344 133.4116821289062 417.1873168945312 120.0911865234375 409.1943054199219 107.6317443847656 C 401.2794494628906 95.29412841796875 392.1906127929688 83.69329833984375 382.1803588867188 73.1514892578125 C 372.1743774414062 62.6142578125 361.1657409667969 53.04879760742188 349.460205078125 44.72076416015625 C 337.6486206054688 36.31732177734375 325.0233154296875 29.10043334960938 311.9349365234375 23.2706298828125 C 298.6104431152344 17.3355712890625 284.66748046875 12.77749633789062 270.4935607910156 9.723114013671875 C 255.9501800537109 6.58905029296875 240.9803771972656 5 226 5 M 226 0 C 350.8163146972656 0 452 106.5561828613281 452 238 C 452 348.9385681152344 379.9232482910156 442.1488037109375 282.33544921875 468.5465087890625 C 264.3675537109375 473.4068603515625 245.4713134765625 476 226 476 C 101.1836242675781 476 0 369.4437561035156 0 238 C 0 106.5561828613281 101.1836242675781 0 226 0 Z" stroke="none" fill="#474646"/>
    </g>
    <g id="Path_7581" data-name="Path 7581" transform="translate(7521 19809)" fill="#ff7edc">
      <path d="M 226 473.5 C 210.8428802490234 473.5 195.6959381103516 471.8920593261719 180.9797515869141 468.7208251953125 C 166.6375579833984 465.630126953125 152.5296325683594 461.0181884765625 139.0478057861328 455.0130615234375 C 125.8079376220703 449.1157531738281 113.0372467041016 441.8158874511719 101.0905609130859 433.3163146972656 C 89.25418853759766 424.895263671875 78.12325286865234 415.2235717773438 68.00675201416016 404.5699462890625 C 57.88812637329102 393.9140625 48.70131301879883 382.1882629394531 40.70149993896484 369.7182006835938 C 32.62381362915039 357.1267395019531 25.68574905395508 343.6655578613281 20.08006286621094 329.7086181640625 C 14.37018775939941 315.4920654296875 9.984749794006348 300.6142578125 7.04562520980835 285.4884338378906 C 4.029375076293945 269.9657592773438 2.5 253.9883117675781 2.5 238 C 2.5 222.0116882324219 4.029375076293945 206.0342559814453 7.04562520980835 190.5115661621094 C 9.984749794006348 175.3857574462891 14.37018775939941 160.5079345703125 20.08006286621094 146.2914428710938 C 25.68574905395508 132.3344421386719 32.62381362915039 118.8732528686523 40.70149993896484 106.2818756103516 C 48.70131301879883 93.81181335449219 57.88812637329102 82.0859375 68.00675201416016 71.43006134033203 C 78.12325286865234 60.77643585205078 89.25418853759766 51.10481262207031 101.0905609130859 42.68375015258789 C 113.0372467041016 34.18412399291992 125.8079376220703 26.88425064086914 139.0478057861328 20.98693656921387 C 152.5296325683594 14.98181247711182 166.6375579833984 10.36987495422363 180.9797515869141 7.279187679290771 C 195.6959381103516 4.107937335968018 210.8429412841797 2.5 226 2.5 C 241.1571197509766 2.5 256.3041381835938 4.107937335968018 271.020263671875 7.279187679290771 C 285.3624267578125 10.36987495422363 299.4704284667969 14.98181247711182 312.9521789550781 20.98693656921387 C 326.1920776367188 26.88425064086914 338.9627380371094 34.18412399291992 350.9094848632812 42.68375015258789 C 362.7458190917969 51.10481262207031 373.8768005371094 60.77643585205078 383.9932556152344 71.43006134033203 C 394.1118774414062 82.0859375 403.2986755371094 93.81181335449219 411.2985534667969 106.2818756103516 C 419.3762512207031 118.8732528686523 426.3142395019531 132.3344421386719 431.9199523925781 146.2914428710938 C 437.6298217773438 160.5079345703125 442.0152587890625 175.3857574462891 444.9543762207031 190.5115661621094 C 447.9706115722656 206.0342559814453 449.5 222.0116882324219 449.5 238 C 449.5 262.5376281738281 445.9323120117188 286.7139892578125 438.8960571289062 309.8575744628906 C 432.08349609375 332.265380859375 422.0969848632812 353.4795532226562 409.2139282226562 372.9107360839844 C 398.7003173828125 388.7684326171875 386.3197021484375 403.2513732910156 372.4160766601562 415.9572448730469 C 358.43994140625 428.7293701171875 342.9721374511719 439.6614990234375 326.4423217773438 448.4497985839844 C 311.2384948730469 456.5333251953125 295.1143188476562 462.7644348144531 278.5177001953125 466.9700012207031 C 261.4184265136719 471.3030090332031 243.7489318847656 473.5 226 473.5 Z" stroke="none"/>
      <path d="M 226 5 C 211.0196228027344 5 196.0498199462891 6.58905029296875 181.5063781738281 9.723114013671875 C 167.3324279785156 12.77749633789062 153.3895568847656 17.3355712890625 140.0650024414062 23.2706298828125 C 126.9766235351562 29.10043334960938 114.3513793945312 36.31732177734375 102.5398254394531 44.72076416015625 C 90.83425903320312 53.04879760742188 79.8255615234375 62.6142578125 69.81961059570312 73.1514892578125 C 59.80938720703125 83.69329833984375 50.72055053710938 95.29412841796875 42.80569458007812 107.6317443847656 C 34.8126220703125 120.0911865234375 27.94717407226562 133.4116821289062 22.39993286132812 147.2231140136719 C 16.74893188476562 161.2929992675781 12.40869140625 176.0177612304688 9.49969482421875 190.9884338378906 C 6.513946533203125 206.3543701171875 5 222.1713714599609 5 238 C 5 253.8286285400391 6.513946533203125 269.6456298828125 9.49969482421875 285.0115661621094 C 12.40869140625 299.982177734375 16.74893188476562 314.7069396972656 22.39993286132812 328.7767944335938 C 27.94717407226562 342.5883178710938 34.8126220703125 355.9088134765625 42.80569458007812 368.3682556152344 C 50.72055053710938 380.7058715820312 59.80938720703125 392.3067016601562 69.81961059570312 402.8484497070312 C 79.8255615234375 413.3856811523438 90.83425903320312 422.951171875 102.5398254394531 431.2792358398438 C 114.3513793945312 439.6826171875 126.9766235351562 446.8995056152344 140.0650024414062 452.7293701171875 C 153.3895568847656 458.6644287109375 167.3324279785156 463.2225036621094 181.5064392089844 466.2768859863281 C 196.0498199462891 469.4109497070312 211.0196228027344 471 226 471 C 243.5420074462891 471 261.0049438476562 468.8287353515625 277.903564453125 464.546630859375 C 294.3059387207031 460.3902587890625 310.2418212890625 454.2318115234375 325.2687377929688 446.242431640625 C 341.6131286621094 437.5526123046875 356.9083862304688 426.7423095703125 370.7295532226562 414.1117553710938 C 384.482421875 401.5436401367188 396.7294311523438 387.216796875 407.1303100585938 371.529296875 C 419.8793029785156 352.3001708984375 429.7621154785156 331.3061828613281 436.5041809082031 309.13037109375 C 443.4686889648438 286.2227478027344 447 262.291015625 447 238 C 447 222.1713714599609 445.4860534667969 206.3543701171875 442.5003051757812 190.9884338378906 C 439.59130859375 176.0177612304688 435.2510681152344 161.2929992675781 429.6000671386719 147.2231140136719 C 424.0528259277344 133.4116821289062 417.1873168945312 120.0911865234375 409.1943054199219 107.6317443847656 C 401.2794494628906 95.29412841796875 392.1906127929688 83.69329833984375 382.1803588867188 73.1514892578125 C 372.1743774414062 62.6142578125 361.1657409667969 53.04879760742188 349.460205078125 44.72076416015625 C 337.6486206054688 36.31732177734375 325.0233154296875 29.10043334960938 311.9349365234375 23.2706298828125 C 298.6104431152344 17.3355712890625 284.66748046875 12.77749633789062 270.4935607910156 9.723114013671875 C 255.9501800537109 6.58905029296875 240.9803771972656 5 226 5 M 226 0 C 350.8163146972656 0 452 106.5561828613281 452 238 C 452 288.6058959960938 437.0020751953125 335.5227661132812 411.2975463867188 374.292236328125 C 390.0051879882812 406.4073181152344 361.2970581054688 432.7500610351562 327.6159362792969 450.6572570800781 C 297.197265625 466.830078125 262.615478515625 476 226 476 C 101.1836242675781 476 0 369.4437561035156 0 238 C 0 106.5561828613281 101.1836242675781 0 226 0 Z" stroke="none" fill="#474646"/>
    </g>
    <path id="Path_7579" data-name="Path 7579" d="M9.515,1.3,450.591.365l.516,7.439V21.615l-.32,6.426-.2,3.752-.377,4.227-.444,4.707-.532,4.725-.529,3.9L11.439,49.115l-.6-4.35-.53-5.482-.339-3.607-.367-4.932-.28-5.719-.263-6.117V14.469l.159-6.83Z" transform="translate(7516.975 20031.977)" fill="#e672c6"/>
    <path id="Path_7582" data-name="Path 7582" d="M9.515.6l441.14-.25.171,1.959.163,1.609V5.428l.118,1.436v5.643l-92.476.007L9.063,12.541V5.171L9.169,3.74,9.294,2.2Z" transform="translate(7516.975 20031.977)" fill="#d868b9"/>
  </g>
</svg>
