<svg xmlns="http://www.w3.org/2000/svg" width="520" height="519.998" viewBox="0 0 520 519.998">
  <g id="Layer_13" data-name="Layer 13" transform="translate(3.894 2.805)">
    <path id="Path_7524" data-name="Path 7524" d="M342.88,366,471.6,237.31A138.314,138.314,0,0,0,275.99,41.71L147.28,170.42Z" fill="#002dc3" stroke="#474646" stroke-width="8"/>
    <path id="Path_7525" data-name="Path 7525" d="M342.83,365.84l.05.18L236.22,472.68a138.31,138.31,0,1,1-195.6-195.6L147.28,170.42A293.35,293.35,0,0,1,342.83,365.84Z" fill="#ffbfbf" stroke="#474646" stroke-width="8"/>
    <path id="Path_7526" data-name="Path 7526" d="M406.92,62.48a19,19,0,0,1-21.54,16.05,68.7,68.7,0,0,0-59,19.55,19,19,0,1,1-26.87-26.87,107.79,107.79,0,0,1,91.38-30.28,19,19,0,0,1,16.03,21.55Z" fill="#fff"/>
  </g>
</svg>
